<?xml version="1.0" encoding="UTF-8" standalone="yes"?><svg xmlns="http://www.w3.org/2000/svg" xmlns:xlink="http://www.w3.org/1999/xlink" height="573pt" style="width:1330px;height:573px;" version="1.1" viewBox="0 0 1330 573" width="1330pt"><defs><filter height="300%" id="f1" width="300%" x="-1" y="-1"><feGaussianBlur result="blurOut" stdDeviation="2.0"/><feColorMatrix in="blurOut" result="blurOut2" type="matrix" values="0 0 0 0 0 0 0 0 0 0 0 0 0 0 0 0 0 0 .4 0"/><feOffset dx="4.0" dy="4.0" in="blurOut2" result="blurOut3"/><feBlend in="SourceGraphic" in2="blurOut3" mode="normal"/></filter></defs><g><polygon fill="#FFFFFF" filter="url(#f1)" points="14,16,51,16,58,38.4883,1323,38.4883,1323,566,14,566,14,16" style="stroke: #000000; stroke-width: 2.0;"/><line style="stroke: #000000; stroke-width: 2.0;" x1="14" x2="58" y1="38.4883" y2="38.4883"/><text fill="#000000" font-family="sans-serif" font-size="14" font-weight="bold" lengthAdjust="spacingAndGlyphs" textLength="31" x="17" y="32.5352">SMV</text><rect fill="#FEFECE" filter="url(#f1)" height="70.998" style="stroke: #A80036; stroke-width: 1.5;" width="164" x="1067" y="60"/><text fill="#000000" font-family="sans-serif" font-size="12" lengthAdjust="spacingAndGlyphs" textLength="67" x="1115.5" y="76.6016">DQMLogger</text><line style="stroke: #A80036; stroke-width: 1.5;" x1="1068" x2="1230" y1="84.1328" y2="84.1328"/><text fill="#000000" font-family="sans-serif" font-size="11" lengthAdjust="spacingAndGlyphs" textLength="152" x="1073" y="98.7676">recordCounter: SmvCounter</text><text fill="#000000" font-family="sans-serif" font-size="11" lengthAdjust="spacingAndGlyphs" textLength="137" x="1073" y="111.7227">ruleCounter: SmvCounter</text><text fill="#000000" font-family="sans-serif" font-size="11" lengthAdjust="spacingAndGlyphs" textLength="107" x="1073" y="124.6777">ruleLog: SmvLogger</text><rect fill="#FEFECE" filter="url(#f1)" height="59.2207" style="stroke: #A80036; stroke-width: 1.5;" width="90" x="446" y="218.5"/><text fill="#000000" font-family="sans-serif" font-size="12" font-style="italic" lengthAdjust="spacingAndGlyphs" textLength="88" x="447" y="235.1016">&lt;&lt;Abstract&gt;&gt;</text><text fill="#000000" font-family="sans-serif" font-size="12" lengthAdjust="spacingAndGlyphs" textLength="56" x="463" y="249.2344">DQMTask</text><line style="stroke: #A80036; stroke-width: 1.5;" x1="447" x2="535" y1="256.7656" y2="256.7656"/><text fill="#000000" font-family="sans-serif" font-size="11" lengthAdjust="spacingAndGlyphs" textLength="67" x="452" y="271.4004">name: String</text><rect fill="#FEFECE" filter="url(#f1)" height="78.998" style="stroke: #A80036; stroke-width: 1.5;" width="313" x="22.5" y="354.5"/><text fill="#000000" font-family="sans-serif" font-size="12" lengthAdjust="spacingAndGlyphs" textLength="53" x="152.5" y="371.1016">DQMRule</text><line style="stroke: #A80036; stroke-width: 1.5;" x1="23.5" x2="334.5" y1="378.6328" y2="378.6328"/><text fill="#000000" font-family="sans-serif" font-size="11" lengthAdjust="spacingAndGlyphs" textLength="69" x="28.5" y="393.2676">rule: Column</text><text fill="#000000" font-family="sans-serif" font-size="11" lengthAdjust="spacingAndGlyphs" textLength="67" x="28.5" y="406.2227">name: String</text><line style="stroke: #A80036; stroke-width: 1.5;" x1="23.5" x2="334.5" y1="412.543" y2="412.543"/><text fill="#000000" font-family="sans-serif" font-size="11" lengthAdjust="spacingAndGlyphs" textLength="301" x="28.5" y="427.1777">createCheckCol(logger: DQMLogger): (Column, Column)</text><rect fill="#FEFECE" filter="url(#f1)" height="91.9531" style="stroke: #A80036; stroke-width: 1.5;" width="240" x="371" y="348"/><text fill="#000000" font-family="sans-serif" font-size="12" lengthAdjust="spacingAndGlyphs" textLength="44" x="469" y="364.6016">DQMFix</text><line style="stroke: #A80036; stroke-width: 1.5;" x1="372" x2="610" y1="372.1328" y2="372.1328"/><text fill="#000000" font-family="sans-serif" font-size="11" lengthAdjust="spacingAndGlyphs" textLength="99" x="377" y="386.7676">condition: Column</text><text fill="#000000" font-family="sans-serif" font-size="11" lengthAdjust="spacingAndGlyphs" textLength="62" x="377" y="399.7227">fix: Column</text><text fill="#000000" font-family="sans-serif" font-size="11" lengthAdjust="spacingAndGlyphs" textLength="67" x="377" y="412.6777">name: String</text><line style="stroke: #A80036; stroke-width: 1.5;" x1="372" x2="610" y1="418.998" y2="418.998"/><text fill="#000000" font-family="sans-serif" font-size="11" lengthAdjust="spacingAndGlyphs" textLength="228" x="377" y="433.6328">createFixCol(logger: DQMLogger): Column</text><rect fill="#FEFECE" filter="url(#f1)" height="80.1758" style="stroke: #A80036; stroke-width: 1.5;" width="315" x="588.5" y="208"/><text fill="#000000" font-family="sans-serif" font-size="12" font-style="italic" lengthAdjust="spacingAndGlyphs" textLength="88" x="702" y="224.6016">&lt;&lt;Abstract&gt;&gt;</text><text fill="#000000" font-family="sans-serif" font-size="12" lengthAdjust="spacingAndGlyphs" textLength="60" x="716" y="238.7344">DQMPolicy</text><line style="stroke: #A80036; stroke-width: 1.5;" x1="589.5" x2="902.5" y1="246.2656" y2="246.2656"/><text fill="#000000" font-family="sans-serif" font-size="11" lengthAdjust="spacingAndGlyphs" textLength="67" x="594.5" y="260.9004">name: String</text><line style="stroke: #A80036; stroke-width: 1.5;" x1="589.5" x2="902.5" y1="267.2207" y2="267.2207"/><text fill="#000000" font-family="sans-serif" font-size="11" lengthAdjust="spacingAndGlyphs" textLength="303" x="594.5" y="281.8555">checkPolicy(df: DataFrame, logger: DQMLogger): Boolean</text><rect fill="#FEFECE" filter="url(#f1)" height="72.1758" style="stroke: #A80036; stroke-width: 1.5;" width="235" x="646.5" y="358"/><text fill="#000000" font-family="sans-serif" font-size="12" font-style="italic" lengthAdjust="spacingAndGlyphs" textLength="88" x="720" y="374.6016">&lt;&lt;Abstract&gt;&gt;</text><text fill="#000000" font-family="sans-serif" font-size="12" lengthAdjust="spacingAndGlyphs" textLength="98" x="715" y="388.7344">DQMSimplePolicy</text><line style="stroke: #A80036; stroke-width: 1.5;" x1="647.5" x2="880.5" y1="396.2656" y2="396.2656"/><text fill="#000000" font-family="sans-serif" font-size="11" lengthAdjust="spacingAndGlyphs" textLength="223" x="652.5" y="410.9004">checkPolicy(logger: DQMLogger): Boolean</text><text fill="#000000" font-family="sans-serif" font-size="11" lengthAdjust="spacingAndGlyphs" textLength="185" x="652.5" y="423.8555">report(logger: DQMLogger): String</text><rect fill="#FEFECE" filter="url(#f1)" height="58.043" style="stroke: #A80036; stroke-width: 1.5;" width="102" x="492" y="500"/><text fill="#000000" font-family="sans-serif" font-size="12" lengthAdjust="spacingAndGlyphs" textLength="84" x="501" y="516.6016">FailCountPolicy</text><line style="stroke: #A80036; stroke-width: 1.5;" x1="493" x2="593" y1="524.1328" y2="524.1328"/><text fill="#000000" font-family="sans-serif" font-size="11" lengthAdjust="spacingAndGlyphs" textLength="90" x="498" y="538.7676">taskName: String</text><text fill="#000000" font-family="sans-serif" font-size="11" lengthAdjust="spacingAndGlyphs" textLength="72" x="498" y="551.7227">threshold: Int</text><rect fill="#FEFECE" filter="url(#f1)" height="45.0879" style="stroke: #A80036; stroke-width: 1.5;" width="119" x="629.5" y="506.5"/><text fill="#000000" font-family="sans-serif" font-size="12" lengthAdjust="spacingAndGlyphs" textLength="113" x="632.5" y="523.1016">FailTotalCountPolicy</text><line style="stroke: #A80036; stroke-width: 1.5;" x1="630.5" x2="747.5" y1="530.6328" y2="530.6328"/><text fill="#000000" font-family="sans-serif" font-size="11" lengthAdjust="spacingAndGlyphs" textLength="72" x="635.5" y="545.2676">threshold: Int</text><rect fill="#FEFECE" filter="url(#f1)" height="58.043" style="stroke: #A80036; stroke-width: 1.5;" width="108" x="784" y="500"/><text fill="#000000" font-family="sans-serif" font-size="12" lengthAdjust="spacingAndGlyphs" textLength="94" x="791" y="516.6016">FailPercentPolicy</text><line style="stroke: #A80036; stroke-width: 1.5;" x1="785" x2="891" y1="524.1328" y2="524.1328"/><text fill="#000000" font-family="sans-serif" font-size="11" lengthAdjust="spacingAndGlyphs" textLength="90" x="790" y="538.7676">taskName: String</text><text fill="#000000" font-family="sans-serif" font-size="11" lengthAdjust="spacingAndGlyphs" textLength="96" x="790" y="551.7227">threshold: Double</text><rect fill="#FEFECE" filter="url(#f1)" height="45.0879" style="stroke: #A80036; stroke-width: 1.5;" width="129" x="927.5" y="506.5"/><text fill="#000000" font-family="sans-serif" font-size="12" lengthAdjust="spacingAndGlyphs" textLength="123" x="930.5" y="523.1016">FailTotalPercentPolicy</text><line style="stroke: #A80036; stroke-width: 1.5;" x1="928.5" x2="1055.5" y1="530.6328" y2="530.6328"/><text fill="#000000" font-family="sans-serif" font-size="11" lengthAdjust="spacingAndGlyphs" textLength="96" x="933.5" y="545.2676">threshold: Double</text><rect fill="#FEFECE" filter="url(#f1)" height="59.2207" style="stroke: #A80036; stroke-width: 1.5;" width="249" x="938.5" y="218.5"/><text fill="#000000" font-family="sans-serif" font-size="12" font-style="italic" lengthAdjust="spacingAndGlyphs" textLength="88" x="1019" y="235.1016">&lt;&lt;Abstract&gt;&gt;</text><text fill="#000000" font-family="sans-serif" font-size="12" lengthAdjust="spacingAndGlyphs" textLength="88" x="1019" y="249.2344">DQMTaskPolicy</text><line style="stroke: #A80036; stroke-width: 1.5;" x1="939.5" x2="1186.5" y1="256.7656" y2="256.7656"/><text fill="#000000" font-family="sans-serif" font-size="11" lengthAdjust="spacingAndGlyphs" textLength="237" x="944.5" y="271.4004">createPolicy(name: String): DQMSimplyPolicy</text><rect fill="#FEFECE" filter="url(#f1)" height="24.1328" style="stroke: #A80036; stroke-width: 1.5;" width="55" x="916.5" y="382"/><text fill="#000000" font-family="sans-serif" font-size="12" lengthAdjust="spacingAndGlyphs" textLength="49" x="919.5" y="398.6016">FailNone</text><rect fill="#FEFECE" filter="url(#f1)" height="24.1328" style="stroke: #A80036; stroke-width: 1.5;" width="46" x="1007" y="382"/><text fill="#000000" font-family="sans-serif" font-size="12" lengthAdjust="spacingAndGlyphs" textLength="40" x="1010" y="398.6016">FailAny</text><rect fill="#FEFECE" filter="url(#f1)" height="45.0879" style="stroke: #A80036; stroke-width: 1.5;" width="84" x="1088" y="371.5"/><text fill="#000000" font-family="sans-serif" font-size="12" lengthAdjust="spacingAndGlyphs" textLength="52" x="1104" y="388.1016">FailCount</text><line style="stroke: #A80036; stroke-width: 1.5;" x1="1089" x2="1171" y1="395.6328" y2="395.6328"/><text fill="#000000" font-family="sans-serif" font-size="11" lengthAdjust="spacingAndGlyphs" textLength="72" x="1094" y="410.2676">threshold: Int</text><rect fill="#FEFECE" filter="url(#f1)" height="45.0879" style="stroke: #A80036; stroke-width: 1.5;" width="108" x="1207" y="371.5"/><text fill="#000000" font-family="sans-serif" font-size="12" lengthAdjust="spacingAndGlyphs" textLength="62" x="1230" y="388.1016">FailPercent</text><line style="stroke: #A80036; stroke-width: 1.5;" x1="1208" x2="1314" y1="395.6328" y2="395.6328"/><text fill="#000000" font-family="sans-serif" font-size="11" lengthAdjust="spacingAndGlyphs" textLength="96" x="1213" y="410.2676">threshold: Double</text><rect fill="#FEFECE" filter="url(#f1)" height="104.9082" style="stroke: #A80036; stroke-width: 1.5;" width="370" x="561" y="43"/><text fill="#000000" font-family="sans-serif" font-size="12" lengthAdjust="spacingAndGlyphs" textLength="51" x="720.5" y="59.6016">SmvDQM</text><line style="stroke: #A80036; stroke-width: 1.5;" x1="562" x2="930" y1="67.1328" y2="67.1328"/><text fill="#000000" font-family="sans-serif" font-size="11" lengthAdjust="spacingAndGlyphs" textLength="200" x="567" y="81.7676">tasks: Seq[DQMTask, DQMTaskPolicy]</text><text fill="#000000" font-family="sans-serif" font-size="11" lengthAdjust="spacingAndGlyphs" textLength="131" x="567" y="94.7227">policies: Seq[DQMPolicy]</text><line style="stroke: #A80036; stroke-width: 1.5;" x1="562" x2="930" y1="101.043" y2="101.043"/><text fill="#000000" font-family="sans-serif" font-size="11" lengthAdjust="spacingAndGlyphs" textLength="358" x="567" y="115.6777">add(task: DQMTask, t_policy: DQMTaskPolicy = FailNone): SmvDQM</text><text fill="#000000" font-family="sans-serif" font-size="11" lengthAdjust="spacingAndGlyphs" textLength="123" x="567" y="128.6328">add(policy: DQMPolicy)</text><text fill="#000000" font-family="sans-serif" font-size="11" lengthAdjust="spacingAndGlyphs" textLength="320" x="567" y="141.5879">attachTasks(df: DataFrame, logger: DQMLogger): DataFrame</text><path d="M427.715,278.208 C380.097,300.186 314.39,330.512 262.471,354.475 " fill="none" style="stroke: #A80036; stroke-width: 1.0;"/><polygon fill="none" points="424.873,271.811,445.966,269.785,430.74,284.522,424.873,271.811" style="stroke: #A80036; stroke-width: 1.0;"/><path d="M491,298.025 C491,314.147 491,331.987 491,347.811 " fill="none" style="stroke: #A80036; stroke-width: 1.0;"/><polygon fill="none" points="484,297.794,491,277.794,498,297.794,484,297.794" style="stroke: #A80036; stroke-width: 1.0;"/><path d="M753.425,308.397 C755.516,325.128 757.725,342.797 759.579,357.635 " fill="none" style="stroke: #A80036; stroke-width: 1.0;"/><polygon fill="none" points="746.453,309.062,750.919,288.349,760.345,307.326,746.453,309.062" style="stroke: #A80036; stroke-width: 1.0;"/><path d="M688.508,440.432 C655.758,460.141 618.433,482.6039 589.786,499.844 " fill="none" style="stroke: #A80036; stroke-width: 1.0;"/><polygon fill="none" points="684.9,434.433,705.646,430.118,692.119,446.429,684.9,434.433" style="stroke: #A80036; stroke-width: 1.0;"/><path d="M734.161,447.915 C722.663,468.304 710.162,490.4732 701.233,506.3063 " fill="none" style="stroke: #A80036; stroke-width: 1.0;"/><polygon fill="none" points="728.177,444.275,744.098,430.292,740.372,451.152,728.177,444.275" style="stroke: #A80036; stroke-width: 1.0;"/><path d="M793.489,448 C803.317,465.665 813.884,484.6567 822.255,499.7013 " fill="none" style="stroke: #A80036; stroke-width: 1.0;"/><polygon fill="none" points="787.243,451.173,783.636,430.292,799.477,444.366,787.243,451.173" style="stroke: #A80036; stroke-width: 1.0;"/><path d="M841.603,440.269 C879.961,462.644 924.461,488.6024 955.05,506.4456 " fill="none" style="stroke: #A80036; stroke-width: 1.0;"/><polygon fill="none" points="837.951,446.242,824.203,430.118,845.005,434.149,837.951,446.242" style="stroke: #A80036; stroke-width: 1.0;"/><path d="M1026.21,293.52 C1000.678,324.415 968.583,363.253 953.135,381.946 " fill="none" style="stroke: #A80036; stroke-width: 1.0;"/><polygon fill="none" points="1021.07,288.752,1039.2,277.794,1031.86,297.671,1021.07,288.752" style="stroke: #A80036; stroke-width: 1.0;"/><path d="M1051.91,297.403 C1044.99,327.602 1036.64,364.028 1032.53,381.946 " fill="none" style="stroke: #A80036; stroke-width: 1.0;"/><polygon fill="none" points="1045.11,295.725,1056.4,277.794,1058.76,298.853,1045.11,295.725" style="stroke: #A80036; stroke-width: 1.0;"/><path d="M1084.87,296.013 C1096.67,321.364 1110.66,351.432 1119.9,371.296 " fill="none" style="stroke: #A80036; stroke-width: 1.0;"/><polygon fill="none" points="1078.49,298.881,1076.4,277.794,1091.18,292.975,1078.49,298.881" style="stroke: #A80036; stroke-width: 1.0;"/><path d="M1119.08,289.783 C1155.51,316.282 1201.57,349.777 1231.16,371.296 " fill="none" style="stroke: #A80036; stroke-width: 1.0;"/><polygon fill="none" points="1114.65,295.219,1102.59,277.794,1122.88,283.897,1114.65,295.219" style="stroke: #A80036; stroke-width: 1.0;"/><path d="M647.35,154.723 C608.947,177.388 566.86,202.228 536.035,220.42 " fill="none" style="stroke: #A80036; stroke-width: 1.0;"/><polygon fill="#A80036" points="658.6,148.083,651.3997,147.6876,648.2654,154.1819,655.4657,154.5773,658.6,148.083" style="stroke: #A80036; stroke-width: 1.0;"/><text fill="#000000" font-family="sans-serif" font-size="13" lengthAdjust="spacingAndGlyphs" textLength="6" x="543.9908" y="212.1857">*</text><path d="M866.661,153.785 C913.099,175.832 964.139,200.064 1002.538,218.295 " fill="none" style="stroke: #A80036; stroke-width: 1.0;"/><polygon fill="#A80036" points="854.65,148.083,858.3547,154.2697,865.4903,153.2296,861.7857,147.0428,854.65,148.083" style="stroke: #A80036; stroke-width: 1.0;"/><text fill="#000000" font-family="sans-serif" font-size="13" lengthAdjust="spacingAndGlyphs" textLength="6" x="982.6557" y="207.7346">*</text><path d="M746,161.401 C746,177.256 746,193.735 746,207.952 " fill="none" style="stroke: #A80036; stroke-width: 1.0;"/><polygon fill="#A80036" points="746,148.294,742,154.294,746,160.294,750,154.294,746,148.294" style="stroke: #A80036; stroke-width: 1.0;"/><text fill="#000000" font-family="sans-serif" font-size="13" lengthAdjust="spacingAndGlyphs" textLength="6" x="739.4844" y="197.3596">*</text></g></svg>