<?xml version="1.0" encoding="UTF-8" standalone="yes"?><svg xmlns="http://www.w3.org/2000/svg" xmlns:xlink="http://www.w3.org/1999/xlink" height="987pt" style="width:2600px;height:987px;" version="1.1" viewBox="0 0 2600 987" width="2600pt"><defs><filter height="300%" id="f1" width="300%" x="-1" y="-1"><feGaussianBlur result="blurOut" stdDeviation="2.0"/><feColorMatrix in="blurOut" result="blurOut2" type="matrix" values="0 0 0 0 0 0 0 0 0 0 0 0 0 0 0 0 0 0 .4 0"/><feOffset dx="4.0" dy="4.0" in="blurOut2" result="blurOut3"/><feBlend in="SourceGraphic" in2="blurOut3" mode="normal"/></filter></defs><g><polygon fill="#FFFFFF" filter="url(#f1)" points="14,16,50,16,57,38.4883,484,38.4883,484,663,14,663,14,16" style="stroke: #000000; stroke-width: 2.0;"/><line style="stroke: #000000; stroke-width: 2.0;" x1="14" x2="57" y1="38.4883" y2="38.4883"/><text fill="#000000" font-family="sans-serif" font-size="14" font-weight="bold" lengthAdjust="spacingAndGlyphs" textLength="30" x="17" y="32.5352">smv</text><polygon fill="#FFFFFF" filter="url(#f1)" points="492,195,563,195,570,217.4883,2593,217.4883,2593,980,492,980,492,195" style="stroke: #000000; stroke-width: 2.0;"/><line style="stroke: #000000; stroke-width: 2.0;" x1="492" x2="570" y1="217.4883" y2="217.4883"/><text fill="#000000" font-family="sans-serif" font-size="14" font-weight="bold" lengthAdjust="spacingAndGlyphs" textLength="65" x="495" y="211.5352">smv.dqm</text><rect fill="#FEFECE" filter="url(#f1)" height="119.041" style="stroke: #A80036; stroke-width: 1.5;" width="289" x="186.5" y="43"/><text fill="#000000" font-family="sans-serif" font-size="12" font-style="italic" lengthAdjust="spacingAndGlyphs" textLength="88" x="287" y="59.6016">&lt;&lt;Abstract&gt;&gt;</text><text fill="#000000" font-family="sans-serif" font-size="12" lengthAdjust="spacingAndGlyphs" textLength="67" x="297.5" y="73.7344">SmvDataSet</text><line style="stroke: #A80036; stroke-width: 1.5;" x1="187.5" x2="474.5" y1="81.2656" y2="81.2656"/><text fill="#000000" font-family="sans-serif" font-size="11" lengthAdjust="spacingAndGlyphs" textLength="113" x="192.5" y="95.9004">isEphemeral: Boolean</text><line style="stroke: #A80036; stroke-width: 1.5;" x1="187.5" x2="474.5" y1="102.2207" y2="102.2207"/><text fill="#000000" font-family="sans-serif" font-size="11" lengthAdjust="spacingAndGlyphs" textLength="86" x="206.5" y="116.8555">dqm(): SmvDQM</text><rect fill="#F24D5C" height="6" style="stroke: #C82930; stroke-width: 1.0;" width="6" x="194.5" y="124.1533"/><text fill="#000000" font-family="sans-serif" font-size="11" lengthAdjust="spacingAndGlyphs" textLength="263" x="206.5" y="129.8105">terminateAtError(checkResult: CheckResult): Unit</text><rect fill="#F24D5C" height="6" style="stroke: #C82930; stroke-width: 1.0;" width="6" x="194.5" y="137.1084"/><text fill="#000000" font-family="sans-serif" font-size="11" lengthAdjust="spacingAndGlyphs" textLength="106" x="206.5" y="142.7656">doRun(): DataFrame</text><rect fill="#F24D5C" height="6" style="stroke: #C82930; stroke-width: 1.0;" width="6" x="194.5" y="150.0635"/><text fill="#000000" font-family="sans-serif" font-size="11" lengthAdjust="spacingAndGlyphs" textLength="141" x="206.5" y="155.7207">computeRDD(): DataFrame</text><rect fill="#FEFECE" filter="url(#f1)" height="91.9531" style="stroke: #A80036; stroke-width: 1.5;" width="209" x="22.5" y="280.5"/><text fill="#000000" font-family="sans-serif" font-size="12" lengthAdjust="spacingAndGlyphs" textLength="70" x="92" y="297.1016">CheckResult</text><line style="stroke: #A80036; stroke-width: 1.5;" x1="23.5" x2="230.5" y1="304.6328" y2="304.6328"/><text fill="#000000" font-family="sans-serif" font-size="11" lengthAdjust="spacingAndGlyphs" textLength="86" x="28.5" y="319.2676">passed: Boolean</text><text fill="#000000" font-family="sans-serif" font-size="11" lengthAdjust="spacingAndGlyphs" textLength="183" x="28.5" y="332.2227">errorMessages: Seq[String, String]</text><text fill="#000000" font-family="sans-serif" font-size="11" lengthAdjust="spacingAndGlyphs" textLength="116" x="28.5" y="345.1777">checkLog: Seq[String]</text><line style="stroke: #A80036; stroke-width: 1.5;" x1="23.5" x2="230.5" y1="351.498" y2="351.498"/><text fill="#000000" font-family="sans-serif" font-size="11" lengthAdjust="spacingAndGlyphs" textLength="197" x="28.5" y="366.1328">\++(that: CheckResult): CheckResult</text><rect fill="#FEFECE" filter="url(#f1)" height="106.0859" style="stroke: #A80036; stroke-width: 1.5;" width="209" x="266.5" y="273.5"/><text fill="#000000" font-family="sans-serif" font-size="12" font-style="italic" lengthAdjust="spacingAndGlyphs" textLength="88" x="327" y="290.1016">&lt;&lt;Abstract&gt;&gt;</text><text fill="#000000" font-family="sans-serif" font-size="12" lengthAdjust="spacingAndGlyphs" textLength="42" x="350" y="304.2344">SmvFile</text><line style="stroke: #A80036; stroke-width: 1.5;" x1="267.5" x2="474.5" y1="311.7656" y2="311.7656"/><text fill="#000000" font-family="sans-serif" font-size="11" lengthAdjust="spacingAndGlyphs" textLength="144" x="286.5" y="326.4004">failAtParsingError: Boolean</text><rect fill="none" height="6" style="stroke: #C82930; stroke-width: 1.0;" width="6" x="274.5" y="333.6982"/><text fill="#000000" font-family="sans-serif" font-size="11" lengthAdjust="spacingAndGlyphs" textLength="149" x="286.5" y="339.3555">parserLogger: RejectLogger</text><line style="stroke: #A80036; stroke-width: 1.5;" x1="267.5" x2="474.5" y1="345.6758" y2="345.6758"/><rect fill="#F24D5C" height="6" style="stroke: #C82930; stroke-width: 1.0;" width="6" x="274.5" y="354.6533"/><text fill="#000000" font-family="sans-serif" font-size="11" lengthAdjust="spacingAndGlyphs" textLength="183" x="286.5" y="360.3105">checkParserLogger(): CheckResult</text><rect fill="#F24D5C" height="6" style="stroke: #C82930; stroke-width: 1.0;" width="6" x="274.5" y="367.6084"/><text fill="#000000" font-family="sans-serif" font-size="11" lengthAdjust="spacingAndGlyphs" textLength="78" x="286.5" y="373.2656">computeRDD()</text><rect fill="#FEFECE" filter="url(#f1)" height="104.9082" style="stroke: #A80036; stroke-width: 1.5;" width="245" x="230.5" y="550"/><text fill="#000000" font-family="sans-serif" font-size="12" lengthAdjust="spacingAndGlyphs" textLength="75" x="315.5" y="566.6016">RejectLogger</text><line style="stroke: #A80036; stroke-width: 1.5;" x1="231.5" x2="474.5" y1="574.1328" y2="574.1328"/><rect fill="none" height="6" style="stroke: #C82930; stroke-width: 1.0;" width="6" x="238.5" y="583.1104"/><text fill="#000000" font-family="sans-serif" font-size="11" lengthAdjust="spacingAndGlyphs" textLength="152" x="250.5" y="588.7676">counter: Accumulator[Long]</text><rect fill="none" height="6" style="stroke: #C82930; stroke-width: 1.0;" width="6" x="238.5" y="596.0654"/><text fill="#000000" font-family="sans-serif" font-size="11" lengthAdjust="spacingAndGlyphs" textLength="219" x="250.5" y="601.7227">logger: Accumulator[MutableList[String]]</text><line style="stroke: #A80036; stroke-width: 1.5;" x1="231.5" x2="474.5" y1="608.043" y2="608.043"/><text fill="#000000" font-family="sans-serif" font-size="11" lengthAdjust="spacingAndGlyphs" textLength="113" x="236.5" y="622.6777">add(message: String)</text><text fill="#000000" font-family="sans-serif" font-size="11" lengthAdjust="spacingAndGlyphs" textLength="58" x="236.5" y="635.6328">getCount()</text><text fill="#000000" font-family="sans-serif" font-size="11" lengthAdjust="spacingAndGlyphs" textLength="61" x="236.5" y="648.5879">getReport()</text><rect fill="#FEFECE" filter="url(#f1)" height="208.5488" style="stroke: #A80036; stroke-width: 1.5;" width="251" x="1159.5" y="222"/><text fill="#000000" font-family="sans-serif" font-size="12" lengthAdjust="spacingAndGlyphs" textLength="51" x="1259.5" y="238.6016">SmvDQM</text><line style="stroke: #A80036; stroke-width: 1.5;" x1="1160.5" x2="1409.5" y1="246.1328" y2="246.1328"/><text fill="#000000" font-family="sans-serif" font-size="11" lengthAdjust="spacingAndGlyphs" textLength="101" x="1179.5" y="260.7676">fixes: Seq[DQMFix]</text><text fill="#000000" font-family="sans-serif" font-size="11" lengthAdjust="spacingAndGlyphs" textLength="109" x="1179.5" y="273.7227">rules: Seq[DQMRule]</text><text fill="#000000" font-family="sans-serif" font-size="11" lengthAdjust="spacingAndGlyphs" textLength="131" x="1179.5" y="286.6777">policies: Seq[DQMPolicy]</text><rect fill="none" height="6" style="stroke: #C82930; stroke-width: 1.0;" width="6" x="1167.5" y="293.9756"/><text fill="#000000" font-family="sans-serif" font-size="11" lengthAdjust="spacingAndGlyphs" textLength="108" x="1179.5" y="299.6328">dqmState: DQMState</text><line style="stroke: #A80036; stroke-width: 1.5;" x1="1160.5" x2="1409.5" y1="305.9531" y2="305.9531"/><rect fill="#F24D5C" height="6" style="stroke: #C82930; stroke-width: 1.0;" width="6" x="1167.5" y="314.9307"/><text fill="#000000" font-family="sans-serif" font-size="11" lengthAdjust="spacingAndGlyphs" textLength="142" x="1179.5" y="320.5879">cnstr(fixes, rules, policies)</text><text fill="#000000" font-family="sans-serif" font-size="11" lengthAdjust="spacingAndGlyphs" textLength="144" x="1179.5" y="333.543">add(fix: DQMFix): SmvDQM</text><text fill="#000000" font-family="sans-serif" font-size="11" lengthAdjust="spacingAndGlyphs" textLength="158" x="1179.5" y="346.498">add(rule: DQMRule): SmvDQM</text><text fill="#000000" font-family="sans-serif" font-size="11" lengthAdjust="spacingAndGlyphs" textLength="177" x="1179.5" y="359.4531">add(policy: DQMPolicy): SmvDQM</text><rect fill="#F24D5C" height="6" style="stroke: #C82930; stroke-width: 1.0;" width="6" x="1167.5" y="366.751"/><text fill="#000000" font-family="sans-serif" font-size="11" lengthAdjust="spacingAndGlyphs" textLength="198" x="1179.5" y="372.4082">policiesFromTasks(): Seq[DQMPolicy]</text><polygon fill="#4177AF" points="1170.5,378.7061,1166.5,384.7061,1174.5,384.7061" style="stroke: #1963A0; stroke-width: 1.0;"/><text fill="#000000" font-family="sans-serif" font-size="11" lengthAdjust="spacingAndGlyphs" textLength="98" x="1179.5" y="385.3633">isEmpty(): Boolean</text><polygon fill="#4177AF" points="1170.5,391.6611,1166.5,397.6611,1174.5,397.6611" style="stroke: #1963A0; stroke-width: 1.0;"/><text fill="#000000" font-family="sans-serif" font-size="11" lengthAdjust="spacingAndGlyphs" textLength="209" x="1179.5" y="398.3184">attachTasks(df: DataFrame): DataFrame</text><polygon fill="#4177AF" points="1170.5,404.6162,1166.5,410.6162,1174.5,410.6162" style="stroke: #1963A0; stroke-width: 1.0;"/><text fill="#000000" font-family="sans-serif" font-size="11" lengthAdjust="spacingAndGlyphs" textLength="225" x="1179.5" y="411.2734">checkPolicies(df: DataFrame): CheckResult</text><text fill="#000000" font-family="sans-serif" font-size="11" lengthAdjust="spacingAndGlyphs" textLength="213" x="1179.5" y="424.2285">applyOnDF(df: DataFrame): CheckResult</text><rect fill="#FEFECE" filter="url(#f1)" height="80.1758" style="stroke: #A80036; stroke-width: 1.5;" width="239" x="1050.5" y="562.5"/><text fill="#000000" font-family="sans-serif" font-size="12" font-style="italic" lengthAdjust="spacingAndGlyphs" textLength="88" x="1126" y="579.1016">&lt;&lt;Abstract&gt;&gt;</text><text fill="#000000" font-family="sans-serif" font-size="12" lengthAdjust="spacingAndGlyphs" textLength="60" x="1140" y="593.2344">DQMPolicy</text><line style="stroke: #A80036; stroke-width: 1.5;" x1="1051.5" x2="1288.5" y1="600.7656" y2="600.7656"/><text fill="#000000" font-family="sans-serif" font-size="11" lengthAdjust="spacingAndGlyphs" textLength="67" x="1056.5" y="615.4004">name: String</text><line style="stroke: #A80036; stroke-width: 1.5;" x1="1051.5" x2="1288.5" y1="621.7207" y2="621.7207"/><text fill="#000000" font-family="sans-serif" font-size="11" lengthAdjust="spacingAndGlyphs" textLength="227" x="1056.5" y="636.3555">policy: (DataFrame, DQMState) =&gt; Boolean</text><rect fill="#FEFECE" filter="url(#f1)" height="93.1309" style="stroke: #A80036; stroke-width: 1.5;" width="172" x="500" y="774"/><text fill="#000000" font-family="sans-serif" font-size="12" font-style="italic" lengthAdjust="spacingAndGlyphs" textLength="79" x="546.5" y="790.6016">&lt;&lt;Private&gt;&gt;</text><text fill="#000000" font-family="sans-serif" font-size="12" lengthAdjust="spacingAndGlyphs" textLength="145" x="513.5" y="804.7344">ImplementFailCountPolicy</text><line style="stroke: #A80036; stroke-width: 1.5;" x1="501" x2="671" y1="812.2656" y2="812.2656"/><text fill="#000000" font-family="sans-serif" font-size="11" lengthAdjust="spacingAndGlyphs" textLength="90" x="506" y="826.9004">taskName: String</text><text fill="#000000" font-family="sans-serif" font-size="11" lengthAdjust="spacingAndGlyphs" textLength="72" x="506" y="839.8555">threshold: Int</text><line style="stroke: #A80036; stroke-width: 1.5;" x1="501" x2="671" y1="846.1758" y2="846.1758"/><polygon fill="#4177AF" points="511,854.1533,507,860.1533,515,860.1533" style="stroke: #1963A0; stroke-width: 1.0;"/><text fill="#000000" font-family="sans-serif" font-size="11" lengthAdjust="spacingAndGlyphs" textLength="146" x="520" y="860.8105">cnstr(taskName, threshold)</text><rect fill="#FEFECE" filter="url(#f1)" height="93.1309" style="stroke: #A80036; stroke-width: 1.5;" width="172" x="707" y="774"/><text fill="#000000" font-family="sans-serif" font-size="12" font-style="italic" lengthAdjust="spacingAndGlyphs" textLength="79" x="753.5" y="790.6016">&lt;&lt;Private&gt;&gt;</text><text fill="#000000" font-family="sans-serif" font-size="12" lengthAdjust="spacingAndGlyphs" textLength="155" x="715.5" y="804.7344">ImplementFailPercentPolicy</text><line style="stroke: #A80036; stroke-width: 1.5;" x1="708" x2="878" y1="812.2656" y2="812.2656"/><text fill="#000000" font-family="sans-serif" font-size="11" lengthAdjust="spacingAndGlyphs" textLength="90" x="713" y="826.9004">taskName: String</text><text fill="#000000" font-family="sans-serif" font-size="11" lengthAdjust="spacingAndGlyphs" textLength="96" x="713" y="839.8555">threshold: Double</text><line style="stroke: #A80036; stroke-width: 1.5;" x1="708" x2="878" y1="846.1758" y2="846.1758"/><polygon fill="#4177AF" points="718,854.1533,714,860.1533,722,860.1533" style="stroke: #1963A0; stroke-width: 1.0;"/><text fill="#000000" font-family="sans-serif" font-size="11" lengthAdjust="spacingAndGlyphs" textLength="146" x="727" y="860.8105">cnstr(taskName, threshold)</text><rect fill="#FEFECE" filter="url(#f1)" height="66.043" style="stroke: #A80036; stroke-width: 1.5;" width="144" x="914" y="787.5"/><text fill="#000000" font-family="sans-serif" font-size="12" lengthAdjust="spacingAndGlyphs" textLength="138" x="917" y="804.1016">FailTotalRuleCountPolicy</text><line style="stroke: #A80036; stroke-width: 1.5;" x1="915" x2="1057" y1="811.6328" y2="811.6328"/><text fill="#000000" font-family="sans-serif" font-size="11" lengthAdjust="spacingAndGlyphs" textLength="72" x="920" y="826.2676">threshold: Int</text><line style="stroke: #A80036; stroke-width: 1.5;" x1="915" x2="1057" y1="832.5879" y2="832.5879"/><text fill="#000000" font-family="sans-serif" font-size="11" lengthAdjust="spacingAndGlyphs" textLength="88" x="920" y="847.2227">cnstr(threshold)</text><rect fill="#FEFECE" filter="url(#f1)" height="66.043" style="stroke: #A80036; stroke-width: 1.5;" width="154" x="1093" y="787.5"/><text fill="#000000" font-family="sans-serif" font-size="12" lengthAdjust="spacingAndGlyphs" textLength="148" x="1096" y="804.1016">FailTotalRulePercentPolicy</text><line style="stroke: #A80036; stroke-width: 1.5;" x1="1094" x2="1246" y1="811.6328" y2="811.6328"/><text fill="#000000" font-family="sans-serif" font-size="11" lengthAdjust="spacingAndGlyphs" textLength="96" x="1099" y="826.2676">threshold: Double</text><line style="stroke: #A80036; stroke-width: 1.5;" x1="1094" x2="1246" y1="832.5879" y2="832.5879"/><text fill="#000000" font-family="sans-serif" font-size="11" lengthAdjust="spacingAndGlyphs" textLength="88" x="1099" y="847.2227">cnstr(threshold)</text><rect fill="#FEFECE" filter="url(#f1)" height="66.043" style="stroke: #A80036; stroke-width: 1.5;" width="135" x="1282.5" y="787.5"/><text fill="#000000" font-family="sans-serif" font-size="12" lengthAdjust="spacingAndGlyphs" textLength="129" x="1285.5" y="804.1016">FailTotalFixCountPolicy</text><line style="stroke: #A80036; stroke-width: 1.5;" x1="1283.5" x2="1416.5" y1="811.6328" y2="811.6328"/><text fill="#000000" font-family="sans-serif" font-size="11" lengthAdjust="spacingAndGlyphs" textLength="72" x="1288.5" y="826.2676">threshold: Int</text><line style="stroke: #A80036; stroke-width: 1.5;" x1="1283.5" x2="1416.5" y1="832.5879" y2="832.5879"/><text fill="#000000" font-family="sans-serif" font-size="11" lengthAdjust="spacingAndGlyphs" textLength="88" x="1288.5" y="847.2227">cnstr(threshold)</text><rect fill="#FEFECE" filter="url(#f1)" height="66.043" style="stroke: #A80036; stroke-width: 1.5;" width="145" x="1452.5" y="787.5"/><text fill="#000000" font-family="sans-serif" font-size="12" lengthAdjust="spacingAndGlyphs" textLength="139" x="1455.5" y="804.1016">FailTotalFixPercentPolicy</text><line style="stroke: #A80036; stroke-width: 1.5;" x1="1453.5" x2="1596.5" y1="811.6328" y2="811.6328"/><text fill="#000000" font-family="sans-serif" font-size="11" lengthAdjust="spacingAndGlyphs" textLength="96" x="1458.5" y="826.2676">threshold: Double</text><line style="stroke: #A80036; stroke-width: 1.5;" x1="1453.5" x2="1596.5" y1="832.5879" y2="832.5879"/><text fill="#000000" font-family="sans-serif" font-size="11" lengthAdjust="spacingAndGlyphs" textLength="88" x="1458.5" y="847.2227">cnstr(threshold)</text><rect fill="#FEFECE" filter="url(#f1)" height="72.1758" style="stroke: #A80036; stroke-width: 1.5;" width="153" x="1519.5" y="566.5"/><text fill="#000000" font-family="sans-serif" font-size="12" font-style="italic" lengthAdjust="spacingAndGlyphs" textLength="88" x="1552" y="583.1016">&lt;&lt;Abstract&gt;&gt;</text><text fill="#000000" font-family="sans-serif" font-size="12" lengthAdjust="spacingAndGlyphs" textLength="56" x="1568" y="597.2344">DQMTask</text><line style="stroke: #A80036; stroke-width: 1.5;" x1="1520.5" x2="1671.5" y1="604.7656" y2="604.7656"/><text fill="#000000" font-family="sans-serif" font-size="11" lengthAdjust="spacingAndGlyphs" textLength="67" x="1525.5" y="619.4004">name: String</text><text fill="#000000" font-family="sans-serif" font-size="11" lengthAdjust="spacingAndGlyphs" textLength="141" x="1525.5" y="632.3555">taskPolicy: DQMTaskPolicy</text><rect fill="#FEFECE" filter="url(#f1)" height="78.998" style="stroke: #A80036; stroke-width: 1.5;" width="316" x="1633" y="781"/><text fill="#000000" font-family="sans-serif" font-size="12" lengthAdjust="spacingAndGlyphs" textLength="53" x="1764.5" y="797.6016">DQMRule</text><line style="stroke: #A80036; stroke-width: 1.5;" x1="1634" x2="1948" y1="805.1328" y2="805.1328"/><text fill="#000000" font-family="sans-serif" font-size="11" lengthAdjust="spacingAndGlyphs" textLength="69" x="1639" y="819.7676">rule: Column</text><line style="stroke: #A80036; stroke-width: 1.5;" x1="1634" x2="1948" y1="826.0879" y2="826.0879"/><text fill="#000000" font-family="sans-serif" font-size="11" lengthAdjust="spacingAndGlyphs" textLength="247" x="1639" y="840.7227">cnstr(rule, name = null, taskPolicy = FailNone)</text><text fill="#000000" font-family="sans-serif" font-size="11" lengthAdjust="spacingAndGlyphs" textLength="304" x="1639" y="853.6777">createCheckCol(dqmState: DQMState): (Column, Column)</text><rect fill="#FEFECE" filter="url(#f1)" height="91.9531" style="stroke: #A80036; stroke-width: 1.5;" width="316" x="1984" y="774.5"/><text fill="#000000" font-family="sans-serif" font-size="12" lengthAdjust="spacingAndGlyphs" textLength="44" x="2120" y="791.1016">DQMFix</text><line style="stroke: #A80036; stroke-width: 1.5;" x1="1985" x2="2299" y1="798.6328" y2="798.6328"/><text fill="#000000" font-family="sans-serif" font-size="11" lengthAdjust="spacingAndGlyphs" textLength="99" x="1990" y="813.2676">condition: Column</text><text fill="#000000" font-family="sans-serif" font-size="11" lengthAdjust="spacingAndGlyphs" textLength="62" x="1990" y="826.2227">fix: Column</text><line style="stroke: #A80036; stroke-width: 1.5;" x1="1985" x2="2299" y1="832.543" y2="832.543"/><text fill="#000000" font-family="sans-serif" font-size="11" lengthAdjust="spacingAndGlyphs" textLength="304" x="1990" y="847.1777">cnstr(condition, rule, name = null, taskPolicy = FailNone)</text><text fill="#000000" font-family="sans-serif" font-size="11" lengthAdjust="spacingAndGlyphs" textLength="231" x="1990" y="860.1328">createFixCol(dqmState: DQMState): Column</text><rect fill="#FEFECE" filter="url(#f1)" height="59.2207" style="stroke: #A80036; stroke-width: 1.5;" width="249" x="2335.5" y="791"/><text fill="#000000" font-family="sans-serif" font-size="12" font-style="italic" lengthAdjust="spacingAndGlyphs" textLength="88" x="2416" y="807.6016">&lt;&lt;Abstract&gt;&gt;</text><text fill="#000000" font-family="sans-serif" font-size="12" lengthAdjust="spacingAndGlyphs" textLength="88" x="2416" y="821.7344">DQMTaskPolicy</text><line style="stroke: #A80036; stroke-width: 1.5;" x1="2336.5" x2="2583.5" y1="829.2656" y2="829.2656"/><text fill="#000000" font-family="sans-serif" font-size="11" lengthAdjust="spacingAndGlyphs" textLength="237" x="2341.5" y="843.9004">createPolicy(name: String): DQMSimplyPolicy</text><rect fill="#FEFECE" filter="url(#f1)" height="24.1328" style="stroke: #A80036; stroke-width: 1.5;" width="55" x="2186.5" y="937.5"/><text fill="#000000" font-family="sans-serif" font-size="12" lengthAdjust="spacingAndGlyphs" textLength="49" x="2189.5" y="954.1016">FailNone</text><rect fill="#FEFECE" filter="url(#f1)" height="24.1328" style="stroke: #A80036; stroke-width: 1.5;" width="46" x="2277" y="937.5"/><text fill="#000000" font-family="sans-serif" font-size="12" lengthAdjust="spacingAndGlyphs" textLength="40" x="2280" y="954.1016">FailAny</text><rect fill="#FEFECE" filter="url(#f1)" height="45.0879" style="stroke: #A80036; stroke-width: 1.5;" width="84" x="2358" y="927"/><text fill="#000000" font-family="sans-serif" font-size="12" lengthAdjust="spacingAndGlyphs" textLength="52" x="2374" y="943.6016">FailCount</text><line style="stroke: #A80036; stroke-width: 1.5;" x1="2359" x2="2441" y1="951.1328" y2="951.1328"/><text fill="#000000" font-family="sans-serif" font-size="11" lengthAdjust="spacingAndGlyphs" textLength="72" x="2364" y="965.7676">threshold: Int</text><rect fill="#FEFECE" filter="url(#f1)" height="45.0879" style="stroke: #A80036; stroke-width: 1.5;" width="108" x="2477" y="927"/><text fill="#000000" font-family="sans-serif" font-size="12" lengthAdjust="spacingAndGlyphs" textLength="62" x="2500" y="943.6016">FailPercent</text><line style="stroke: #A80036; stroke-width: 1.5;" x1="2478" x2="2584" y1="951.1328" y2="951.1328"/><text fill="#000000" font-family="sans-serif" font-size="11" lengthAdjust="spacingAndGlyphs" textLength="96" x="2483" y="965.7676">threshold: Double</text><rect fill="#FEFECE" filter="url(#f1)" height="222.6816" style="stroke: #A80036; stroke-width: 1.5;" width="262" x="1708" y="491"/><text fill="#000000" font-family="sans-serif" font-size="12" font-style="italic" lengthAdjust="spacingAndGlyphs" textLength="106" x="1786" y="507.6016">&lt;&lt;Serializable&gt;&gt;</text><text fill="#000000" font-family="sans-serif" font-size="12" lengthAdjust="spacingAndGlyphs" textLength="56" x="1811" y="521.7344">DQMState</text><line style="stroke: #A80036; stroke-width: 1.5;" x1="1709" x2="1969" y1="529.2656" y2="529.2656"/><rect fill="none" height="6" style="stroke: #C82930; stroke-width: 1.0;" width="6" x="1716" y="538.2432"/><text fill="#000000" font-family="sans-serif" font-size="11" lengthAdjust="spacingAndGlyphs" textLength="184" x="1728" y="543.9004">recordCounter: Acumulator[Long]</text><rect fill="none" height="6" style="stroke: #C82930; stroke-width: 1.0;" width="6" x="1716" y="551.1982"/><text fill="#000000" font-family="sans-serif" font-size="11" lengthAdjust="spacingAndGlyphs" textLength="236" x="1728" y="556.8555">fixCounters: Map[String, Acumulator[Long]]</text><rect fill="none" height="6" style="stroke: #C82930; stroke-width: 1.0;" width="6" x="1716" y="564.1533"/><text fill="#000000" font-family="sans-serif" font-size="11" lengthAdjust="spacingAndGlyphs" textLength="203" x="1728" y="569.8105">ruleLogger: Map[String, RejectLogger]</text><line style="stroke: #A80036; stroke-width: 1.5;" x1="1709" x2="1969" y1="576.1309" y2="576.1309"/><text fill="#000000" font-family="sans-serif" font-size="11" lengthAdjust="spacingAndGlyphs" textLength="47" x="1714" y="590.7656">addRec()</text><text fill="#000000" font-family="sans-serif" font-size="11" lengthAdjust="spacingAndGlyphs" textLength="145" x="1714" y="603.7207">addFixRec(fixName: String)</text><text fill="#000000" font-family="sans-serif" font-size="11" lengthAdjust="spacingAndGlyphs" textLength="220" x="1714" y="616.6758">addRuleRec(ruleName: String, rec: String)</text><text fill="#000000" font-family="sans-serif" font-size="11" lengthAdjust="spacingAndGlyphs" textLength="58" x="1714" y="629.6309">snapshot()</text><text fill="#000000" font-family="sans-serif" font-size="11" lengthAdjust="spacingAndGlyphs" textLength="77" x="1714" y="642.5859">getRecCount()</text><text fill="#000000" font-family="sans-serif" font-size="11" lengthAdjust="spacingAndGlyphs" textLength="156" x="1714" y="655.541">getFixCount(fixName: String)</text><text fill="#000000" font-family="sans-serif" font-size="11" lengthAdjust="spacingAndGlyphs" textLength="170" x="1714" y="668.4961">getRuleCount(ruleName: String)</text><text fill="#000000" font-family="sans-serif" font-size="11" lengthAdjust="spacingAndGlyphs" textLength="157" x="1714" y="681.4512">getRuleLog(ruleName: String)</text><text fill="#000000" font-family="sans-serif" font-size="11" lengthAdjust="spacingAndGlyphs" textLength="101" x="1714" y="694.4063">getTotalFixCount()</text><text fill="#000000" font-family="sans-serif" font-size="11" lengthAdjust="spacingAndGlyphs" textLength="108" x="1714" y="707.3613">getTotalRuleCount()</text><path d="M345.13,181.924 C350.595,212.253 356.701,246.143 361.609,273.378 " fill="none" style="stroke: #A80036; stroke-width: 1.0;"/><polygon fill="none" points="338.219,183.043,341.562,162.118,351.997,180.56,338.219,183.043" style="stroke: #A80036; stroke-width: 1.0;"/><path d="M488.385,140.124 C676.25,183.841 986.624,256.067 1159.27,296.242 " fill="none" style="stroke: #A80036; stroke-width: 1.0;"/><polygon fill="#A80036" points="475.633,137.157,480.57,142.4131,487.3206,139.8775,482.3836,134.6214,475.633,137.157" style="stroke: #A80036; stroke-width: 1.0;"/><text fill="#000000" font-family="sans-serif" font-size="13" lengthAdjust="spacingAndGlyphs" textLength="8" x="1143.3646" y="291.5327">1</text><path d="M268.178,171.865 C235.791,207.11 197.19,249.116 168.544,280.291 " fill="none" style="stroke: #A80036; stroke-width: 1.0;"/><polygon fill="#A80036" points="277.135,162.118,270.13,163.8298,269.016,170.9544,276.0209,169.2425,277.135,162.118" style="stroke: #A80036; stroke-width: 1.0;"/><text fill="#000000" font-family="sans-serif" font-size="13" lengthAdjust="spacingAndGlyphs" textLength="6" x="168.4461" y="269.6625">*</text><path d="M366.711,392.788 C363.55,440.909 359.309,505.466 356.385,549.977 " fill="none" style="stroke: #A80036; stroke-width: 1.0;"/><polygon fill="#A80036" points="367.572,379.682,363.187,385.4067,366.7848,391.6562,371.1698,385.9315,367.572,379.682" style="stroke: #A80036; stroke-width: 1.0;"/><text fill="#000000" font-family="sans-serif" font-size="13" lengthAdjust="spacingAndGlyphs" textLength="8" x="348.2985" y="539.1329">1</text><path d="M1032.78,649.067 C935.999,681.952 803.697,728.413 689,774 C683.459,776.202 677.777,778.526 672.065,780.91 " fill="none" style="stroke: #A80036; stroke-width: 1.0;"/><polygon fill="none" points="1030.77,642.358,1051.96,642.571,1035.26,655.618,1030.77,642.358" style="stroke: #A80036; stroke-width: 1.0;"/><path d="M1084.01,652.765 C1020.44,689.19 934.506,738.425 872.52,773.939 " fill="none" style="stroke: #A80036; stroke-width: 1.0;"/><polygon fill="none" points="1080.89,646.485,1101.73,642.616,1087.85,658.632,1080.89,646.485" style="stroke: #A80036; stroke-width: 1.0;"/><path d="M1123.52,658.069 C1088.75,698.877 1042.4,753.292 1013.38,787.36 " fill="none" style="stroke: #A80036; stroke-width: 1.0;"/><polygon fill="none" points="1118.38,653.302,1136.68,642.616,1129.04,662.38,1118.38,653.302" style="stroke: #A80036; stroke-width: 1.0;"/><path d="M1170,662.729 C1170,702.941 1170,754.573 1170,787.36 " fill="none" style="stroke: #A80036; stroke-width: 1.0;"/><polygon fill="none" points="1163,662.616,1170,642.616,1177,662.616,1163,662.616" style="stroke: #A80036; stroke-width: 1.0;"/><path d="M1215.47,658.069 C1249.48,698.877 1294.83,753.292 1323.22,787.36 " fill="none" style="stroke: #A80036; stroke-width: 1.0;"/><polygon fill="none" points="1210.02,662.462,1202.6,642.616,1220.78,653.499,1210.02,662.462" style="stroke: #A80036; stroke-width: 1.0;"/><path d="M1251.78,653.26 C1319.58,694.511 1413.96,751.935 1472.18,787.36 " fill="none" style="stroke: #A80036; stroke-width: 1.0;"/><polygon fill="none" points="1247.74,658.992,1234.29,642.616,1255.01,647.032,1247.74,658.992" style="stroke: #A80036; stroke-width: 1.0;"/><path d="M1638.71,654.221 C1654.89,673.157 1673.6,694.732 1691,714 C1711.29,736.478 1734.54,761.064 1753.5,780.843 " fill="none" style="stroke: #A80036; stroke-width: 1.0;"/><polygon fill="none" points="1633.15,658.484,1625.52,638.714,1643.81,649.414,1633.15,658.484" style="stroke: #A80036; stroke-width: 1.0;"/><path d="M1629.06,655.037 C1645.27,676.351 1666.56,699.439 1691,714 C1798.84,778.257 1844.9,744.867 1967,774 C1972.5,775.311 1978.08,776.663 1983.73,778.044 " fill="none" style="stroke: #A80036; stroke-width: 1.0;"/><polygon fill="none" points="1623.18,658.847,1617.2,638.52,1634.55,650.68,1623.18,658.847" style="stroke: #A80036; stroke-width: 1.0;"/><path d="M2386.76,859.313 C2334.86,886.105 2268.75,920.2335 2235.36,937.4716 " fill="none" style="stroke: #A80036; stroke-width: 1.0;"/><polygon fill="none" points="2383.81,852.956,2404.79,850.001,2390.23,865.396,2383.81,852.956" style="stroke: #A80036; stroke-width: 1.0;"/><path d="M2408.11,862.691 C2375.07,888.9134 2334.71,920.9502 2313.89,937.4716 " fill="none" style="stroke: #A80036; stroke-width: 1.0;"/><polygon fill="none" points="2404.08,856.953,2424.09,850.001,2412.78,867.918,2404.08,856.953" style="stroke: #A80036; stroke-width: 1.0;"/><path d="M2437.93,868.213 C2428.45,888.2783 2417.83,910.7529 2410.25,926.8088 " fill="none" style="stroke: #A80036; stroke-width: 1.0;"/><polygon fill="none" points="2431.66,865.095,2446.53,850.001,2444.32,871.075,2431.66,865.095" style="stroke: #A80036; stroke-width: 1.0;"/><path d="M2485.77,867.593 C2497.07,887.814 2509.8,910.5874 2518.87,926.8088 " fill="none" style="stroke: #A80036; stroke-width: 1.0;"/><polygon fill="none" points="2479.58,870.874,2475.93,850.001,2491.8,864.043,2479.58,870.874" style="stroke: #A80036; stroke-width: 1.0;"/><path d="M1412.48,439.816 C1464.03,485.232 1519.83,534.391 1556.19,566.43 " fill="none" style="stroke: #A80036; stroke-width: 1.0;"/><polygon fill="#A80036" points="1402.58,431.088,1404.4357,438.0562,1411.5817,439.0233,1409.726,432.0551,1402.58,431.088" style="stroke: #A80036; stroke-width: 1.0;"/><text fill="#000000" font-family="sans-serif" font-size="13" lengthAdjust="spacingAndGlyphs" textLength="6" x="1542.0293" y="555.7057">*</text><path d="M1236.4,443.304 C1218.53,485.884 1199.48,531.263 1186.39,562.449 " fill="none" style="stroke: #A80036; stroke-width: 1.0;"/><polygon fill="#A80036" points="1241.52,431.088,1235.5094,435.0721,1236.8752,442.1526,1242.8858,438.1686,1241.52,431.088" style="stroke: #A80036; stroke-width: 1.0;"/><text fill="#000000" font-family="sans-serif" font-size="13" lengthAdjust="spacingAndGlyphs" textLength="6" x="1182.6914" y="551.8561">*</text><path d="M1423.29,373.397 C1503.48,402.424 1605.08,443.401 1690,491 C1695.9,494.307 1701.83,497.815 1707.76,501.469 " fill="none" style="stroke: #A80036; stroke-width: 1.0;"/><polygon fill="#A80036" points="1410.6,368.842,1414.8923,374.6365,1421.8919,372.9031,1417.5997,367.1086,1410.6,368.842" style="stroke: #A80036; stroke-width: 1.0;"/><text fill="#000000" font-family="sans-serif" font-size="13" lengthAdjust="spacingAndGlyphs" textLength="8" x="1691.9414" y="492.7811">1</text><path d="M1623.21,649.408 C1639.71,672.875 1662.98,699.481 1691,714 C1815.28,778.392 2180.9,745.816 2318,774 C2338.79,778.274 2360.83,784.479 2381.19,790.938 " fill="none" style="stroke: #A80036; stroke-width: 1.0;"/><polygon fill="#A80036" points="1615.89,638.555,1615.9305,645.766,1622.6023,648.5021,1622.5619,641.2911,1615.89,638.555" style="stroke: #A80036; stroke-width: 1.0;"/><text fill="#000000" font-family="sans-serif" font-size="13" lengthAdjust="spacingAndGlyphs" textLength="8" x="2355.0753" y="780.4089">1</text><path d="M1716.82,483.324 C1702.68,474.357 1687.81,466.628 1672.5,461 C1611.44,438.558 561.9,436.831 501.5,461 C456.7,478.926 417.722,517.518 390.954,549.877 " fill="none" style="stroke: #A80036; stroke-width: 1.0;"/><polygon fill="#A80036" points="1727.99,490.765,1725.2104,484.1111,1717.9993,484.1177,1720.7789,490.7716,1727.99,490.765" style="stroke: #A80036; stroke-width: 1.0;"/><text fill="#000000" font-family="sans-serif" font-size="13" lengthAdjust="spacingAndGlyphs" textLength="6" x="389.6509" y="539.3934">*</text></g></svg>