<?xml version="1.0" encoding="UTF-8" standalone="yes"?><svg xmlns="http://www.w3.org/2000/svg" xmlns:xlink="http://www.w3.org/1999/xlink" height="716pt" style="width:2608px;height:716px;" version="1.1" viewBox="0 0 2608 716" width="2608pt"><defs><filter height="300%" id="f1" width="300%" x="-1" y="-1"><feGaussianBlur result="blurOut" stdDeviation="2.0"/><feColorMatrix in="blurOut" result="blurOut2" type="matrix" values="0 0 0 0 0 0 0 0 0 0 0 0 0 0 0 0 0 0 .4 0"/><feOffset dx="4.0" dy="4.0" in="blurOut2" result="blurOut3"/><feBlend in="SourceGraphic" in2="blurOut3" mode="normal"/></filter></defs><g><polygon fill="#FFFFFF" filter="url(#f1)" points="2131,259,2167,259,2174,281.4883,2601,281.4883,2601,698.5,2131,698.5,2131,259" style="stroke: #000000; stroke-width: 2.0;"/><line style="stroke: #000000; stroke-width: 2.0;" x1="2131" x2="2174" y1="281.4883" y2="281.4883"/><text fill="#000000" font-family="sans-serif" font-size="14" font-weight="bold" lengthAdjust="spacingAndGlyphs" textLength="30" x="2134" y="275.5352">smv</text><polygon fill="#FFFFFF" filter="url(#f1)" points="14,16,85,16,92,38.4883,2112,38.4883,2112,709,14,709,14,16" style="stroke: #000000; stroke-width: 2.0;"/><line style="stroke: #000000; stroke-width: 2.0;" x1="14" x2="92" y1="38.4883" y2="38.4883"/><text fill="#000000" font-family="sans-serif" font-size="14" font-weight="bold" lengthAdjust="spacingAndGlyphs" textLength="65" x="17" y="32.5352">smv.dqm</text><rect fill="#FEFECE" filter="url(#f1)" height="119.041" style="stroke: #A80036; stroke-width: 1.5;" width="289" x="2248.5" y="286"/><text fill="#000000" font-family="sans-serif" font-size="12" font-style="italic" lengthAdjust="spacingAndGlyphs" textLength="88" x="2349" y="302.6016">&lt;&lt;Abstract&gt;&gt;</text><text fill="#000000" font-family="sans-serif" font-size="12" lengthAdjust="spacingAndGlyphs" textLength="67" x="2359.5" y="316.7344">SmvDataSet</text><line style="stroke: #A80036; stroke-width: 1.5;" x1="2249.5" x2="2536.5" y1="324.2656" y2="324.2656"/><text fill="#000000" font-family="sans-serif" font-size="11" lengthAdjust="spacingAndGlyphs" textLength="113" x="2254.5" y="338.9004">isEphemeral: Boolean</text><line style="stroke: #A80036; stroke-width: 1.5;" x1="2249.5" x2="2536.5" y1="345.2207" y2="345.2207"/><text fill="#000000" font-family="sans-serif" font-size="11" lengthAdjust="spacingAndGlyphs" textLength="86" x="2268.5" y="359.8555">dqm(): SmvDQM</text><rect fill="#F24D5C" height="6" style="stroke: #C82930; stroke-width: 1.0;" width="6" x="2256.5" y="367.1533"/><text fill="#000000" font-family="sans-serif" font-size="11" lengthAdjust="spacingAndGlyphs" textLength="263" x="2268.5" y="372.8105">terminateAtError(checkResult: CheckResult): Unit</text><rect fill="#F24D5C" height="6" style="stroke: #C82930; stroke-width: 1.0;" width="6" x="2256.5" y="380.1084"/><text fill="#000000" font-family="sans-serif" font-size="11" lengthAdjust="spacingAndGlyphs" textLength="106" x="2268.5" y="385.7656">doRun(): DataFrame</text><rect fill="#F24D5C" height="6" style="stroke: #C82930; stroke-width: 1.0;" width="6" x="2256.5" y="393.0635"/><text fill="#000000" font-family="sans-serif" font-size="11" lengthAdjust="spacingAndGlyphs" textLength="141" x="2268.5" y="398.7207">computeRDD(): DataFrame</text><rect fill="#FEFECE" filter="url(#f1)" height="91.9531" style="stroke: #A80036; stroke-width: 1.5;" width="209" x="2139.5" y="484.5"/><text fill="#000000" font-family="sans-serif" font-size="12" lengthAdjust="spacingAndGlyphs" textLength="70" x="2209" y="501.1016">CheckResult</text><line style="stroke: #A80036; stroke-width: 1.5;" x1="2140.5" x2="2347.5" y1="508.6328" y2="508.6328"/><text fill="#000000" font-family="sans-serif" font-size="11" lengthAdjust="spacingAndGlyphs" textLength="86" x="2145.5" y="523.2676">passed: Boolean</text><text fill="#000000" font-family="sans-serif" font-size="11" lengthAdjust="spacingAndGlyphs" textLength="183" x="2145.5" y="536.2227">errorMessages: Seq[String, String]</text><text fill="#000000" font-family="sans-serif" font-size="11" lengthAdjust="spacingAndGlyphs" textLength="116" x="2145.5" y="549.1777">checkLog: Seq[String]</text><line style="stroke: #A80036; stroke-width: 1.5;" x1="2140.5" x2="2347.5" y1="555.498" y2="555.498"/><text fill="#000000" font-family="sans-serif" font-size="11" lengthAdjust="spacingAndGlyphs" textLength="197" x="2145.5" y="570.1328">\++(that: CheckResult): CheckResult</text><rect fill="#FEFECE" filter="url(#f1)" height="106.0859" style="stroke: #A80036; stroke-width: 1.5;" width="209" x="2383.5" y="477.5"/><text fill="#000000" font-family="sans-serif" font-size="12" font-style="italic" lengthAdjust="spacingAndGlyphs" textLength="88" x="2444" y="494.1016">&lt;&lt;Abstract&gt;&gt;</text><text fill="#000000" font-family="sans-serif" font-size="12" lengthAdjust="spacingAndGlyphs" textLength="42" x="2467" y="508.2344">SmvFile</text><line style="stroke: #A80036; stroke-width: 1.5;" x1="2384.5" x2="2591.5" y1="515.7656" y2="515.7656"/><text fill="#000000" font-family="sans-serif" font-size="11" lengthAdjust="spacingAndGlyphs" textLength="144" x="2403.5" y="530.4004">failAtParsingError: Boolean</text><rect fill="none" height="6" style="stroke: #C82930; stroke-width: 1.0;" width="6" x="2391.5" y="537.6982"/><text fill="#000000" font-family="sans-serif" font-size="11" lengthAdjust="spacingAndGlyphs" textLength="149" x="2403.5" y="543.3555">parserLogger: RejectLogger</text><line style="stroke: #A80036; stroke-width: 1.5;" x1="2384.5" x2="2591.5" y1="549.6758" y2="549.6758"/><rect fill="#F24D5C" height="6" style="stroke: #C82930; stroke-width: 1.0;" width="6" x="2391.5" y="558.6533"/><text fill="#000000" font-family="sans-serif" font-size="11" lengthAdjust="spacingAndGlyphs" textLength="183" x="2403.5" y="564.3105">checkParserLogger(): CheckResult</text><rect fill="#F24D5C" height="6" style="stroke: #C82930; stroke-width: 1.0;" width="6" x="2391.5" y="571.6084"/><text fill="#000000" font-family="sans-serif" font-size="11" lengthAdjust="spacingAndGlyphs" textLength="78" x="2403.5" y="577.2656">computeRDD()</text><rect fill="#FEFECE" filter="url(#f1)" height="24.1328" style="stroke: #A80036; stroke-width: 1.5;" width="81" x="2293.5" y="666.5"/><text fill="#000000" font-family="sans-serif" font-size="12" lengthAdjust="spacingAndGlyphs" textLength="75" x="2296.5" y="683.1016">RejectLogger</text><rect fill="#FEFECE" filter="url(#f1)" height="24.1328" style="stroke: #A80036; stroke-width: 1.5;" width="74" x="2139" y="333.5"/><text fill="#000000" font-family="sans-serif" font-size="12" lengthAdjust="spacingAndGlyphs" textLength="68" x="2142" y="350.1016">SmvCounter</text><rect fill="#FEFECE" filter="url(#f1)" height="182.6387" style="stroke: #A80036; stroke-width: 1.5;" width="251" x="1756.5" y="43"/><text fill="#000000" font-family="sans-serif" font-size="12" lengthAdjust="spacingAndGlyphs" textLength="51" x="1856.5" y="59.6016">SmvDQM</text><line style="stroke: #A80036; stroke-width: 1.5;" x1="1757.5" x2="2006.5" y1="67.1328" y2="67.1328"/><text fill="#000000" font-family="sans-serif" font-size="11" lengthAdjust="spacingAndGlyphs" textLength="112" x="1776.5" y="81.7676">tasks: Seq[DQMTask]</text><text fill="#000000" font-family="sans-serif" font-size="11" lengthAdjust="spacingAndGlyphs" textLength="131" x="1776.5" y="94.7227">policies: Seq[DQMPolicy]</text><rect fill="none" height="6" style="stroke: #C82930; stroke-width: 1.0;" width="6" x="1764.5" y="102.0205"/><text fill="#000000" font-family="sans-serif" font-size="11" lengthAdjust="spacingAndGlyphs" textLength="152" x="1776.5" y="107.6777">recordCounter: SmvCounter</text><line style="stroke: #A80036; stroke-width: 1.5;" x1="1757.5" x2="2006.5" y1="113.998" y2="113.998"/><text fill="#000000" font-family="sans-serif" font-size="11" lengthAdjust="spacingAndGlyphs" textLength="111" x="1776.5" y="128.6328">cnstr(tasks, policies)</text><text fill="#000000" font-family="sans-serif" font-size="11" lengthAdjust="spacingAndGlyphs" textLength="161" x="1776.5" y="141.5879">add(task: DQMTask): SmvDQM</text><text fill="#000000" font-family="sans-serif" font-size="11" lengthAdjust="spacingAndGlyphs" textLength="177" x="1776.5" y="154.543">add(policy: DQMPolicy): SmvDQM</text><rect fill="#F24D5C" height="6" style="stroke: #C82930; stroke-width: 1.0;" width="6" x="1764.5" y="161.8408"/><text fill="#000000" font-family="sans-serif" font-size="11" lengthAdjust="spacingAndGlyphs" textLength="198" x="1776.5" y="167.498">policiesFromTasks(): Seq[DQMPolicy]</text><polygon fill="#4177AF" points="1767.5,173.7959,1763.5,179.7959,1771.5,179.7959" style="stroke: #1963A0; stroke-width: 1.0;"/><text fill="#000000" font-family="sans-serif" font-size="11" lengthAdjust="spacingAndGlyphs" textLength="98" x="1776.5" y="180.4531">isEmpty(): Boolean</text><polygon fill="#4177AF" points="1767.5,186.751,1763.5,192.751,1771.5,192.751" style="stroke: #1963A0; stroke-width: 1.0;"/><text fill="#000000" font-family="sans-serif" font-size="11" lengthAdjust="spacingAndGlyphs" textLength="209" x="1776.5" y="193.4082">attachTasks(df: DataFrame): DataFrame</text><polygon fill="#4177AF" points="1767.5,199.7061,1763.5,205.7061,1771.5,205.7061" style="stroke: #1963A0; stroke-width: 1.0;"/><text fill="#000000" font-family="sans-serif" font-size="11" lengthAdjust="spacingAndGlyphs" textLength="225" x="1776.5" y="206.3633">checkPolicies(df: DataFrame): CheckResult</text><text fill="#000000" font-family="sans-serif" font-size="11" lengthAdjust="spacingAndGlyphs" textLength="213" x="1776.5" y="219.3184">applyOnDF(df: DataFrame): CheckResult</text><rect fill="#FEFECE" filter="url(#f1)" height="80.1758" style="stroke: #A80036; stroke-width: 1.5;" width="315" x="490.5" y="305.5"/><text fill="#000000" font-family="sans-serif" font-size="12" font-style="italic" lengthAdjust="spacingAndGlyphs" textLength="88" x="604" y="322.1016">&lt;&lt;Abstract&gt;&gt;</text><text fill="#000000" font-family="sans-serif" font-size="12" lengthAdjust="spacingAndGlyphs" textLength="60" x="618" y="336.2344">DQMPolicy</text><line style="stroke: #A80036; stroke-width: 1.5;" x1="491.5" x2="804.5" y1="343.7656" y2="343.7656"/><text fill="#000000" font-family="sans-serif" font-size="11" lengthAdjust="spacingAndGlyphs" textLength="67" x="496.5" y="358.4004">name: String</text><line style="stroke: #A80036; stroke-width: 1.5;" x1="491.5" x2="804.5" y1="364.7207" y2="364.7207"/><text fill="#000000" font-family="sans-serif" font-size="11" lengthAdjust="spacingAndGlyphs" textLength="303" x="496.5" y="379.3555">checkPolicy(df: DataFrame, logger: DQMLogger): Boolean</text><rect fill="#FEFECE" filter="url(#f1)" height="93.1309" style="stroke: #A80036; stroke-width: 1.5;" width="172" x="562" y="484"/><text fill="#000000" font-family="sans-serif" font-size="12" font-style="italic" lengthAdjust="spacingAndGlyphs" textLength="79" x="608.5" y="500.6016">&lt;&lt;Private&gt;&gt;</text><text fill="#000000" font-family="sans-serif" font-size="12" lengthAdjust="spacingAndGlyphs" textLength="145" x="575.5" y="514.7344">ImplementFailCountPolicy</text><line style="stroke: #A80036; stroke-width: 1.5;" x1="563" x2="733" y1="522.2656" y2="522.2656"/><text fill="#000000" font-family="sans-serif" font-size="11" lengthAdjust="spacingAndGlyphs" textLength="90" x="568" y="536.9004">taskName: String</text><text fill="#000000" font-family="sans-serif" font-size="11" lengthAdjust="spacingAndGlyphs" textLength="72" x="568" y="549.8555">threshold: Int</text><line style="stroke: #A80036; stroke-width: 1.5;" x1="563" x2="733" y1="556.1758" y2="556.1758"/><polygon fill="#4177AF" points="573,564.1533,569,570.1533,577,570.1533" style="stroke: #1963A0; stroke-width: 1.0;"/><text fill="#000000" font-family="sans-serif" font-size="11" lengthAdjust="spacingAndGlyphs" textLength="146" x="582" y="570.8105">cnstr(taskName, threshold)</text><rect fill="#FEFECE" filter="url(#f1)" height="93.1309" style="stroke: #A80036; stroke-width: 1.5;" width="172" x="769" y="484"/><text fill="#000000" font-family="sans-serif" font-size="12" font-style="italic" lengthAdjust="spacingAndGlyphs" textLength="79" x="815.5" y="500.6016">&lt;&lt;Private&gt;&gt;</text><text fill="#000000" font-family="sans-serif" font-size="12" lengthAdjust="spacingAndGlyphs" textLength="155" x="777.5" y="514.7344">ImplementFailPercentPolicy</text><line style="stroke: #A80036; stroke-width: 1.5;" x1="770" x2="940" y1="522.2656" y2="522.2656"/><text fill="#000000" font-family="sans-serif" font-size="11" lengthAdjust="spacingAndGlyphs" textLength="90" x="775" y="536.9004">taskName: String</text><text fill="#000000" font-family="sans-serif" font-size="11" lengthAdjust="spacingAndGlyphs" textLength="96" x="775" y="549.8555">threshold: Double</text><line style="stroke: #A80036; stroke-width: 1.5;" x1="770" x2="940" y1="556.1758" y2="556.1758"/><polygon fill="#4177AF" points="780,564.1533,776,570.1533,784,570.1533" style="stroke: #1963A0; stroke-width: 1.0;"/><text fill="#000000" font-family="sans-serif" font-size="11" lengthAdjust="spacingAndGlyphs" textLength="146" x="789" y="570.8105">cnstr(taskName, threshold)</text><rect fill="#FEFECE" filter="url(#f1)" height="66.043" style="stroke: #A80036; stroke-width: 1.5;" width="144" x="976" y="497.5"/><text fill="#000000" font-family="sans-serif" font-size="12" lengthAdjust="spacingAndGlyphs" textLength="138" x="979" y="514.1016">FailTotalRuleCountPolicy</text><line style="stroke: #A80036; stroke-width: 1.5;" x1="977" x2="1119" y1="521.6328" y2="521.6328"/><text fill="#000000" font-family="sans-serif" font-size="11" lengthAdjust="spacingAndGlyphs" textLength="72" x="982" y="536.2676">threshold: Int</text><line style="stroke: #A80036; stroke-width: 1.5;" x1="977" x2="1119" y1="542.5879" y2="542.5879"/><text fill="#000000" font-family="sans-serif" font-size="11" lengthAdjust="spacingAndGlyphs" textLength="88" x="982" y="557.2227">cnstr(threshold)</text><rect fill="#FEFECE" filter="url(#f1)" height="66.043" style="stroke: #A80036; stroke-width: 1.5;" width="154" x="22" y="497.5"/><text fill="#000000" font-family="sans-serif" font-size="12" lengthAdjust="spacingAndGlyphs" textLength="148" x="25" y="514.1016">FailTotalRulePercentPolicy</text><line style="stroke: #A80036; stroke-width: 1.5;" x1="23" x2="175" y1="521.6328" y2="521.6328"/><text fill="#000000" font-family="sans-serif" font-size="11" lengthAdjust="spacingAndGlyphs" textLength="96" x="28" y="536.2676">threshold: Double</text><line style="stroke: #A80036; stroke-width: 1.5;" x1="23" x2="175" y1="542.5879" y2="542.5879"/><text fill="#000000" font-family="sans-serif" font-size="11" lengthAdjust="spacingAndGlyphs" textLength="88" x="28" y="557.2227">cnstr(threshold)</text><rect fill="#FEFECE" filter="url(#f1)" height="66.043" style="stroke: #A80036; stroke-width: 1.5;" width="135" x="211.5" y="497.5"/><text fill="#000000" font-family="sans-serif" font-size="12" lengthAdjust="spacingAndGlyphs" textLength="129" x="214.5" y="514.1016">FailTotalFixCountPolicy</text><line style="stroke: #A80036; stroke-width: 1.5;" x1="212.5" x2="345.5" y1="521.6328" y2="521.6328"/><text fill="#000000" font-family="sans-serif" font-size="11" lengthAdjust="spacingAndGlyphs" textLength="72" x="217.5" y="536.2676">threshold: Int</text><line style="stroke: #A80036; stroke-width: 1.5;" x1="212.5" x2="345.5" y1="542.5879" y2="542.5879"/><text fill="#000000" font-family="sans-serif" font-size="11" lengthAdjust="spacingAndGlyphs" textLength="88" x="217.5" y="557.2227">cnstr(threshold)</text><rect fill="#FEFECE" filter="url(#f1)" height="66.043" style="stroke: #A80036; stroke-width: 1.5;" width="145" x="381.5" y="497.5"/><text fill="#000000" font-family="sans-serif" font-size="12" lengthAdjust="spacingAndGlyphs" textLength="139" x="384.5" y="514.1016">FailTotalFixPercentPolicy</text><line style="stroke: #A80036; stroke-width: 1.5;" x1="382.5" x2="525.5" y1="521.6328" y2="521.6328"/><text fill="#000000" font-family="sans-serif" font-size="11" lengthAdjust="spacingAndGlyphs" textLength="96" x="387.5" y="536.2676">threshold: Double</text><line style="stroke: #A80036; stroke-width: 1.5;" x1="382.5" x2="525.5" y1="542.5879" y2="542.5879"/><text fill="#000000" font-family="sans-serif" font-size="11" lengthAdjust="spacingAndGlyphs" textLength="88" x="387.5" y="557.2227">cnstr(threshold)</text><rect fill="#FEFECE" filter="url(#f1)" height="72.1758" style="stroke: #A80036; stroke-width: 1.5;" width="153" x="1614.5" y="309.5"/><text fill="#000000" font-family="sans-serif" font-size="12" font-style="italic" lengthAdjust="spacingAndGlyphs" textLength="88" x="1647" y="326.1016">&lt;&lt;Abstract&gt;&gt;</text><text fill="#000000" font-family="sans-serif" font-size="12" lengthAdjust="spacingAndGlyphs" textLength="56" x="1663" y="340.2344">DQMTask</text><line style="stroke: #A80036; stroke-width: 1.5;" x1="1615.5" x2="1766.5" y1="347.7656" y2="347.7656"/><text fill="#000000" font-family="sans-serif" font-size="11" lengthAdjust="spacingAndGlyphs" textLength="67" x="1620.5" y="362.4004">name: String</text><text fill="#000000" font-family="sans-serif" font-size="11" lengthAdjust="spacingAndGlyphs" textLength="141" x="1620.5" y="375.3555">taskPolicy: DQMTaskPolicy</text><rect fill="#FEFECE" filter="url(#f1)" height="117.8633" style="stroke: #A80036; stroke-width: 1.5;" width="313" x="1439.5" y="471.5"/><text fill="#000000" font-family="sans-serif" font-size="12" lengthAdjust="spacingAndGlyphs" textLength="53" x="1569.5" y="488.1016">DQMRule</text><line style="stroke: #A80036; stroke-width: 1.5;" x1="1440.5" x2="1751.5" y1="495.6328" y2="495.6328"/><text fill="#000000" font-family="sans-serif" font-size="11" lengthAdjust="spacingAndGlyphs" textLength="69" x="1459.5" y="510.2676">rule: Column</text><text fill="#000000" font-family="sans-serif" font-size="11" lengthAdjust="spacingAndGlyphs" textLength="67" x="1459.5" y="523.2227">name: String</text><text fill="#000000" font-family="sans-serif" font-size="11" lengthAdjust="spacingAndGlyphs" textLength="141" x="1459.5" y="536.1777">taskPolicy: DQMTaskPolicy</text><rect fill="none" height="6" style="stroke: #C82930; stroke-width: 1.0;" width="6" x="1447.5" y="543.4756"/><text fill="#000000" font-family="sans-serif" font-size="11" lengthAdjust="spacingAndGlyphs" textLength="111" x="1459.5" y="549.1328">logger: RejectLogger</text><line style="stroke: #A80036; stroke-width: 1.5;" x1="1440.5" x2="1751.5" y1="555.4531" y2="555.4531"/><text fill="#000000" font-family="sans-serif" font-size="11" lengthAdjust="spacingAndGlyphs" textLength="247" x="1445.5" y="570.0879">cnstr(rule, name = null, taskPolicy = FailNone)</text><text fill="#000000" font-family="sans-serif" font-size="11" lengthAdjust="spacingAndGlyphs" textLength="301" x="1445.5" y="583.043">createCheckCol(logger: DQMLogger): (Column, Column)</text><rect fill="#FEFECE" filter="url(#f1)" height="130.8184" style="stroke: #A80036; stroke-width: 1.5;" width="316" x="1788" y="465"/><text fill="#000000" font-family="sans-serif" font-size="12" lengthAdjust="spacingAndGlyphs" textLength="44" x="1924" y="481.6016">DQMFix</text><line style="stroke: #A80036; stroke-width: 1.5;" x1="1789" x2="2103" y1="489.1328" y2="489.1328"/><text fill="#000000" font-family="sans-serif" font-size="11" lengthAdjust="spacingAndGlyphs" textLength="99" x="1808" y="503.7676">condition: Column</text><text fill="#000000" font-family="sans-serif" font-size="11" lengthAdjust="spacingAndGlyphs" textLength="62" x="1808" y="516.7227">fix: Column</text><text fill="#000000" font-family="sans-serif" font-size="11" lengthAdjust="spacingAndGlyphs" textLength="67" x="1808" y="529.6777">name: String</text><text fill="#000000" font-family="sans-serif" font-size="11" lengthAdjust="spacingAndGlyphs" textLength="141" x="1808" y="542.6328">taskPolicy: DQMTaskPolicy</text><rect fill="none" height="6" style="stroke: #C82930; stroke-width: 1.0;" width="6" x="1796" y="549.9307"/><text fill="#000000" font-family="sans-serif" font-size="11" lengthAdjust="spacingAndGlyphs" textLength="114" x="1808" y="555.5879">counter: SmvCounter</text><line style="stroke: #A80036; stroke-width: 1.5;" x1="1789" x2="2103" y1="561.9082" y2="561.9082"/><text fill="#000000" font-family="sans-serif" font-size="11" lengthAdjust="spacingAndGlyphs" textLength="304" x="1794" y="576.543">cnstr(condition, rule, name = null, taskPolicy = FailNone)</text><text fill="#000000" font-family="sans-serif" font-size="11" lengthAdjust="spacingAndGlyphs" textLength="228" x="1794" y="589.498">createFixCol(logger: DQMLogger): Column</text><rect fill="#FEFECE" filter="url(#f1)" height="59.2207" style="stroke: #A80036; stroke-width: 1.5;" width="249" x="1155.5" y="501"/><text fill="#000000" font-family="sans-serif" font-size="12" font-style="italic" lengthAdjust="spacingAndGlyphs" textLength="88" x="1236" y="517.6016">&lt;&lt;Abstract&gt;&gt;</text><text fill="#000000" font-family="sans-serif" font-size="12" lengthAdjust="spacingAndGlyphs" textLength="88" x="1236" y="531.7344">DQMTaskPolicy</text><line style="stroke: #A80036; stroke-width: 1.5;" x1="1156.5" x2="1403.5" y1="539.2656" y2="539.2656"/><text fill="#000000" font-family="sans-serif" font-size="11" lengthAdjust="spacingAndGlyphs" textLength="237" x="1161.5" y="553.9004">createPolicy(name: String): DQMSimplyPolicy</text><rect fill="#FEFECE" filter="url(#f1)" height="24.1328" style="stroke: #A80036; stroke-width: 1.5;" width="55" x="1116.5" y="666.5"/><text fill="#000000" font-family="sans-serif" font-size="12" lengthAdjust="spacingAndGlyphs" textLength="49" x="1119.5" y="683.1016">FailNone</text><rect fill="#FEFECE" filter="url(#f1)" height="24.1328" style="stroke: #A80036; stroke-width: 1.5;" width="46" x="1207" y="666.5"/><text fill="#000000" font-family="sans-serif" font-size="12" lengthAdjust="spacingAndGlyphs" textLength="40" x="1210" y="683.1016">FailAny</text><rect fill="#FEFECE" filter="url(#f1)" height="45.0879" style="stroke: #A80036; stroke-width: 1.5;" width="84" x="1288" y="656"/><text fill="#000000" font-family="sans-serif" font-size="12" lengthAdjust="spacingAndGlyphs" textLength="52" x="1304" y="672.6016">FailCount</text><line style="stroke: #A80036; stroke-width: 1.5;" x1="1289" x2="1371" y1="680.1328" y2="680.1328"/><text fill="#000000" font-family="sans-serif" font-size="11" lengthAdjust="spacingAndGlyphs" textLength="72" x="1294" y="694.7676">threshold: Int</text><rect fill="#FEFECE" filter="url(#f1)" height="45.0879" style="stroke: #A80036; stroke-width: 1.5;" width="108" x="1407" y="656"/><text fill="#000000" font-family="sans-serif" font-size="12" lengthAdjust="spacingAndGlyphs" textLength="62" x="1430" y="672.6016">FailPercent</text><line style="stroke: #A80036; stroke-width: 1.5;" x1="1408" x2="1514" y1="680.1328" y2="680.1328"/><text fill="#000000" font-family="sans-serif" font-size="11" lengthAdjust="spacingAndGlyphs" textLength="96" x="1413" y="694.7676">threshold: Double</text><path d="M2432.74,423.061 C2442.24,441.35 2452.16,460.457 2460.93,477.353 " fill="none" style="stroke: #A80036; stroke-width: 1.0;"/><polygon fill="none" points="2426.45,426.133,2423.45,405.157,2438.88,419.683,2426.45,426.133" style="stroke: #A80036; stroke-width: 1.0;"/><path d="M2274.76,279.988 C2259.84,272.59 2244.67,265.412 2230,259 C2157.75,227.42 2074.59,197.676 2007.68,175.295 " fill="none" style="stroke: #A80036; stroke-width: 1.0;"/><polygon fill="#A80036" points="2286.65,285.957,2283.0806,279.6913,2275.924,280.5762,2279.4934,286.8419,2286.65,285.957" style="stroke: #A80036; stroke-width: 1.0;"/><text fill="#000000" font-family="sans-serif" font-size="13" lengthAdjust="spacingAndGlyphs" textLength="8" x="2015.5824" y="174.9127">1</text><path d="M2337.03,415.239 C2318.26,438.3 2297.8,463.421 2280.87,484.22 " fill="none" style="stroke: #A80036; stroke-width: 1.0;"/><polygon fill="#A80036" points="2345.24,405.157,2338.3504,407.2862,2337.6659,414.4647,2344.5555,412.3355,2345.24,405.157" style="stroke: #A80036; stroke-width: 1.0;"/><text fill="#000000" font-family="sans-serif" font-size="13" lengthAdjust="spacingAndGlyphs" textLength="6" x="2279.8447" y="473.9157">*</text><path d="M2423.07,593.055 C2393.94,620.676 2362.44,650.5394 2345.82,666.2926 " fill="none" style="stroke: #A80036; stroke-width: 1.0;"/><polygon fill="#A80036" points="2432.84,583.797,2425.7337,585.0217,2424.1309,592.0524,2431.2373,590.8277,2432.84,583.797" style="stroke: #A80036; stroke-width: 1.0;"/><text fill="#000000" font-family="sans-serif" font-size="13" lengthAdjust="spacingAndGlyphs" textLength="8" x="2341.0458" y="655.7683">1</text><path d="M648,405.928 C648,431.23 648,460.278 648,483.85 " fill="none" style="stroke: #A80036; stroke-width: 1.0;"/><polygon fill="none" points="641,405.758,648,385.758,655,405.758,641,405.758" style="stroke: #A80036; stroke-width: 1.0;"/><path d="M707.35,398.969 C737.63,425.738 774.114,457.992 803.24,483.741 " fill="none" style="stroke: #A80036; stroke-width: 1.0;"/><polygon fill="none" points="702.501,404.025,692.153,385.534,711.773,393.536,702.501,404.025" style="stroke: #A80036; stroke-width: 1.0;"/><path d="M790.639,392.333 C844.449,411.85 905.348,436.681 958,465 C975.099,474.197 992.715,486.177 1007.78,497.312 " fill="none" style="stroke: #A80036; stroke-width: 1.0;"/><polygon fill="none" points="788.03,398.835,771.546,385.521,792.735,385.649,788.03,398.835" style="stroke: #A80036; stroke-width: 1.0;"/><path d="M470.629,378.09 C384.726,397.039 281.491,425.31 194,465 C175.119,473.565 155.9,485.816 139.734,497.345 " fill="none" style="stroke: #A80036; stroke-width: 1.0;"/><polygon fill="none" points="469.346,371.206,490.372,373.831,472.298,384.891,469.346,371.206" style="stroke: #A80036; stroke-width: 1.0;"/><path d="M517.405,392.93 C468.015,412.551 412.139,437.296 364,465 C347.784,474.332 331.133,486.341 316.914,497.461 " fill="none" style="stroke: #A80036; stroke-width: 1.0;"/><polygon fill="none" points="515.166,386.29,536.342,385.529,520.262,399.329,515.166,386.29" style="stroke: #A80036; stroke-width: 1.0;"/><path d="M591.616,399.687 C558.107,431.296 516.706,470.349 488.116,497.319 " fill="none" style="stroke: #A80036; stroke-width: 1.0;"/><polygon fill="none" points="587.03,394.39,606.382,385.758,596.637,404.574,587.03,394.39" style="stroke: #A80036; stroke-width: 1.0;"/><path d="M1663.43,399.61 C1651.77,422.069 1638.15,448.298 1626.22,471.283 " fill="none" style="stroke: #A80036; stroke-width: 1.0;"/><polygon fill="none" points="1657.26,396.31,1672.68,381.784,1669.68,402.76,1657.26,396.31" style="stroke: #A80036; stroke-width: 1.0;"/><path d="M1756.45,393.468 C1786.73,415.201 1823.19,441.365 1856.01,464.918 " fill="none" style="stroke: #A80036; stroke-width: 1.0;"/><polygon fill="none" points="1752.03,398.916,1739.86,381.568,1760.19,387.542,1752.03,398.916" style="stroke: #A80036; stroke-width: 1.0;"/><path d="M1239.49,574.99 C1210.1,606.537 1172.48,646.9254 1154.49,666.2351 " fill="none" style="stroke: #A80036; stroke-width: 1.0;"/><polygon fill="none" points="1234.38,570.208,1253.13,560.345,1244.62,579.751,1234.38,570.208" style="stroke: #A80036; stroke-width: 1.0;"/><path d="M1263.61,579.344 C1253.06,610.166 1240.17,647.8031 1233.86,666.2351 " fill="none" style="stroke: #A80036; stroke-width: 1.0;"/><polygon fill="none" points="1257.02,576.998,1270.12,560.345,1270.26,581.534,1257.02,576.998" style="stroke: #A80036; stroke-width: 1.0;"/><path d="M1296.37,579.315 C1305.22,605.133 1315.7,635.7404 1322.58,655.8369 " fill="none" style="stroke: #A80036; stroke-width: 1.0;"/><polygon fill="none" points="1289.74,581.534,1289.88,560.345,1302.98,576.998,1289.74,581.534" style="stroke: #A80036; stroke-width: 1.0;"/><path d="M1331.37,572.938 C1364.84,599.933 1407.14,634.0574 1434.14,655.8369 " fill="none" style="stroke: #A80036; stroke-width: 1.0;"/><polygon fill="none" points="1326.93,578.35,1315.76,560.345,1335.72,567.453,1326.93,578.35" style="stroke: #A80036; stroke-width: 1.0;"/><path d="M1790.2,235.95 C1766.09,262.333 1741.66,289.06 1723.08,309.392 " fill="none" style="stroke: #A80036; stroke-width: 1.0;"/><polygon fill="#A80036" points="1799.06,226.259,1792.0601,227.9915,1790.9671,235.1193,1797.967,233.3868,1799.06,226.259" style="stroke: #A80036; stroke-width: 1.0;"/><text fill="#000000" font-family="sans-serif" font-size="13" lengthAdjust="spacingAndGlyphs" textLength="6" x="1722.6234" y="298.6604">*</text><path d="M1743.45,158.966 C1512.18,198.135 1048.94,276.594 805.592,317.809 " fill="none" style="stroke: #A80036; stroke-width: 1.0;"/><polygon fill="#A80036" points="1756.31,156.787,1749.7262,153.8454,1744.4786,158.7914,1751.0624,161.733,1756.31,156.787" style="stroke: #A80036; stroke-width: 1.0;"/><text fill="#000000" font-family="sans-serif" font-size="13" lengthAdjust="spacingAndGlyphs" textLength="6" x="813.3707" y="313.6761">*</text><path d="M1602.39,385.232 C1549.88,408.259 1482.07,438.127 1422,465 C1395.92,476.665 1367.22,489.67 1342.49,500.929 " fill="none" style="stroke: #A80036; stroke-width: 1.0;"/><polygon fill="#A80036" points="1614.37,379.98,1607.2693,378.7231,1603.378,384.7941,1610.4787,386.0511,1614.37,379.98" style="stroke: #A80036; stroke-width: 1.0;"/><text fill="#000000" font-family="sans-serif" font-size="13" lengthAdjust="spacingAndGlyphs" textLength="8" x="1347.2847" y="490.3979">1</text><path d="M1759.53,593.224 C1763.04,594.191 1766.53,595.118 1770,596 C1869.95,621.4417 2181.21,659.503 2293.28,672.7514 " fill="none" style="stroke: #A80036; stroke-width: 1.0;"/><polygon fill="#A80036" points="1746.76,589.564,1751.4241,595.0636,1758.2946,592.8735,1753.6305,587.3739,1746.76,589.564" style="stroke: #A80036; stroke-width: 1.0;"/><text fill="#000000" font-family="sans-serif" font-size="13" lengthAdjust="spacingAndGlyphs" textLength="8" x="2277.5938" y="668.0579">1</text><path d="M2053.86,457.077 C2076.32,440.699 2099.4,422.852 2120,405 C2137.42,389.898 2155.51,370.137 2166.25,357.884 " fill="none" style="stroke: #A80036; stroke-width: 1.0;"/><polygon fill="#A80036" points="2043.26,464.742,2050.466,464.4699,2052.9863,457.7136,2045.7804,457.9857,2043.26,464.742" style="stroke: #A80036; stroke-width: 1.0;"/><text fill="#000000" font-family="sans-serif" font-size="13" lengthAdjust="spacingAndGlyphs" textLength="8" x="2152.8359" y="378.3167">1</text><path d="M2019.53,191.749 C2054.62,209.997 2090.68,232.502 2120,259 C2144.36,281.008 2162.76,315.859 2171.09,333.497 " fill="none" style="stroke: #A80036; stroke-width: 1.0;"/><polygon fill="#A80036" points="2007.68,185.725,2011.2186,192.0082,2018.3794,191.1585,2014.8409,184.8753,2007.68,185.725" style="stroke: #A80036; stroke-width: 1.0;"/><text fill="#000000" font-family="sans-serif" font-size="13" lengthAdjust="spacingAndGlyphs" textLength="8" x="2159.1919" y="322.5717">1</text></g></svg>