<?xml version="1.0" encoding="UTF-8" standalone="yes"?><svg xmlns="http://www.w3.org/2000/svg" xmlns:xlink="http://www.w3.org/1999/xlink" height="497px" style="width:1289px;height:497px;" version="1.1" viewBox="0 0 1289 497" width="1289px"><defs><filter height="300%" id="f1" width="300%" x="-1" y="-1"><feGaussianBlur result="blurOut" stdDeviation="2.0"/><feColorMatrix in="blurOut" result="blurOut2" type="matrix" values="0 0 0 0 0 0 0 0 0 0 0 0 0 0 0 0 0 0 .4 0"/><feOffset dx="4.0" dy="4.0" in="blurOut2" result="blurOut3"/><feBlend in="SourceGraphic" in2="blurOut3" mode="normal"/></filter></defs><g><polygon fill="#FFFFFF" filter="url(#f1)" points="22,24,119,24,126,46.4883,1282,46.4883,1282,490,22,490,22,24" style="stroke: #000000; stroke-width: 2.0;"/><line style="stroke: #000000; stroke-width: 2.0;" x1="22" x2="126" y1="46.4883" y2="46.4883"/><text fill="#000000" font-family="sans-serif" font-size="14" font-weight="bold" lengthAdjust="spacingAndGlyphs" textLength="91" x="25" y="40.5352">smv.matcher</text><rect fill="#FEFECE" filter="url(#f1)" height="58.043" style="stroke: #A80036; stroke-width: 1.5;" width="105" x="1160.75" y="60"/><text fill="#000000" font-family="sans-serif" font-size="12" lengthAdjust="spacingAndGlyphs" textLength="96" x="1165.25" y="76.6016">StringMetricUDFs</text><line style="stroke: #A80036; stroke-width: 1.5;" x1="1161.75" x2="1264.75" y1="84.1328" y2="84.1328"/><ellipse cx="1171.75" cy="96.1104" fill="none" rx="3" ry="3" style="stroke: #038048; stroke-width: 1.0;"/><text fill="#000000" font-family="sans-serif" font-size="11" lengthAdjust="spacingAndGlyphs" textLength="79" x="1180.75" y="98.7676">soundexMatch</text><ellipse cx="1171.75" cy="109.0654" fill="none" rx="3" ry="3" style="stroke: #038048; stroke-width: 1.0;"/><text fill="#000000" font-family="sans-serif" font-size="11" lengthAdjust="spacingAndGlyphs" textLength="61" x="1180.75" y="111.7227">levenshtein</text><rect fill="#FEFECE" filter="url(#f1)" height="58.043" style="stroke: #A80036; stroke-width: 1.5;" width="495" x="405.75" y="310"/><text fill="#000000" font-family="sans-serif" font-size="12" lengthAdjust="spacingAndGlyphs" textLength="103" x="601.75" y="326.6016">SmvNameMatcher</text><line style="stroke: #A80036; stroke-width: 1.5;" x1="406.75" x2="899.75" y1="334.1328" y2="334.1328"/><ellipse cx="416.75" cy="346.1104" fill="#84BE84" rx="3" ry="3" style="stroke: #038048; stroke-width: 1.0;"/><text fill="#000000" font-family="sans-serif" font-size="11" lengthAdjust="spacingAndGlyphs" textLength="469" x="425.75" y="348.7676">SmvNameMatcher(ex:AbstractExactMatchFilter, joiner:Joiner, matchers:List[LevelMatch])</text><ellipse cx="416.75" cy="359.0654" fill="#84BE84" rx="3" ry="3" style="stroke: #038048; stroke-width: 1.0;"/><text fill="#000000" font-family="sans-serif" font-size="11" lengthAdjust="spacingAndGlyphs" textLength="276" x="425.75" y="361.7227">doMatch(df1:DataFrame, df2:DataFrame):DataFrame</text><rect fill="#FEFECE" filter="url(#f1)" height="45.0879" style="stroke: #A80036; stroke-width: 1.5;" width="434" x="766" y="428.5"/><text fill="#000000" font-family="sans-serif" font-size="12" lengthAdjust="spacingAndGlyphs" textLength="128" x="919" y="445.1016">ExactMatchFilterResult</text><line style="stroke: #A80036; stroke-width: 1.5;" x1="767" x2="1199" y1="452.6328" y2="452.6328"/><polygon fill="#4177AF" points="777,460.6104,773,466.6104,781,466.6104" style="stroke: #1963A0; stroke-width: 1.0;"/><text fill="#000000" font-family="sans-serif" font-size="11" lengthAdjust="spacingAndGlyphs" textLength="408" x="786" y="467.2676">ExactMatchFilterResult(df1:DataFrame, df2:DataFrame, extracted:DataFrame)</text><rect fill="#FEFECE" filter="url(#f1)" height="59.2207" style="stroke: #A80036; stroke-width: 1.5;" width="358" x="474" y="184.5"/><text fill="#000000" font-family="sans-serif" font-size="12" font-style="italic" lengthAdjust="spacingAndGlyphs" textLength="60" x="623" y="201.1016">«Abstract»</text><text fill="#000000" font-family="sans-serif" font-size="12" lengthAdjust="spacingAndGlyphs" textLength="141" x="582.5" y="215.2344">AbstractExactMatchFilter</text><line style="stroke: #A80036; stroke-width: 1.5;" x1="475" x2="831" y1="222.7656" y2="222.7656"/><polygon fill="#4177AF" points="485,230.7432,481,236.7432,489,236.7432" style="stroke: #1963A0; stroke-width: 1.0;"/><text fill="#000000" font-family="sans-serif" font-size="11" font-style="italic" lengthAdjust="spacingAndGlyphs" textLength="332" x="494" y="237.4004">extract(df1:DataFrame, df2:DataFrame):ExactMatchFilterResult</text><rect fill="#FEFECE" filter="url(#f1)" height="58.043" style="stroke: #A80036; stroke-width: 1.5;" width="358" x="767" y="60"/><text fill="#000000" font-family="sans-serif" font-size="12" lengthAdjust="spacingAndGlyphs" textLength="93" x="899.5" y="76.6016">ExactMatchFilter</text><line style="stroke: #A80036; stroke-width: 1.5;" x1="768" x2="1124" y1="84.1328" y2="84.1328"/><ellipse cx="778" cy="96.1104" fill="#84BE84" rx="3" ry="3" style="stroke: #038048; stroke-width: 1.0;"/><text fill="#000000" font-family="sans-serif" font-size="11" lengthAdjust="spacingAndGlyphs" textLength="186" x="787" y="98.7676">ExactMatchFilter(joinExpr:Column)</text><polygon fill="#4177AF" points="778,105.0654,774,111.0654,782,111.0654" style="stroke: #1963A0; stroke-width: 1.0;"/><text fill="#000000" font-family="sans-serif" font-size="11" lengthAdjust="spacingAndGlyphs" textLength="332" x="787" y="111.7227">extract(df1:DataFrame, df2:DataFrame):ExactMatchFilterResult</text><rect fill="#FEFECE" filter="url(#f1)" height="45.0879" style="stroke: #A80036; stroke-width: 1.5;" width="358" x="374" y="66.5"/><text fill="#000000" font-family="sans-serif" font-size="12" lengthAdjust="spacingAndGlyphs" textLength="135" x="485.5" y="83.1016">IdentityExactMatchFilter</text><line style="stroke: #A80036; stroke-width: 1.5;" x1="375" x2="731" y1="90.6328" y2="90.6328"/><polygon fill="#4177AF" points="385,98.6104,381,104.6104,389,104.6104" style="stroke: #1963A0; stroke-width: 1.0;"/><text fill="#000000" font-family="sans-serif" font-size="11" lengthAdjust="spacingAndGlyphs" textLength="332" x="394" y="105.2676">extract(df1:DataFrame, df2:DataFrame):ExactMatchFilterResult</text><rect fill="#FEFECE" filter="url(#f1)" height="59.2207" style="stroke: #A80036; stroke-width: 1.5;" width="280" x="889" y="184.5"/><text fill="#000000" font-family="sans-serif" font-size="12" font-style="italic" lengthAdjust="spacingAndGlyphs" textLength="60" x="999" y="201.1016">«Abstract»</text><text fill="#000000" font-family="sans-serif" font-size="12" lengthAdjust="spacingAndGlyphs" textLength="33" x="1012.5" y="215.2344">Joiner</text><line style="stroke: #A80036; stroke-width: 1.5;" x1="890" x2="1168" y1="222.7656" y2="222.7656"/><polygon fill="#4177AF" points="900,230.7432,896,236.7432,904,236.7432" style="stroke: #1963A0; stroke-width: 1.0;"/><text fill="#000000" font-family="sans-serif" font-size="11" lengthAdjust="spacingAndGlyphs" textLength="254" x="909" y="237.4004">join((df1:DataFrame, df2:DataFrame):DataFrame</text><rect fill="#FEFECE" filter="url(#f1)" height="45.0879" style="stroke: #A80036; stroke-width: 1.5;" width="186" x="936" y="316.5"/><text fill="#000000" font-family="sans-serif" font-size="12" lengthAdjust="spacingAndGlyphs" textLength="62" x="998" y="333.1016">InnerJoiner</text><line style="stroke: #A80036; stroke-width: 1.5;" x1="937" x2="1121" y1="340.6328" y2="340.6328"/><ellipse cx="947" cy="352.6104" fill="#84BE84" rx="3" ry="3" style="stroke: #038048; stroke-width: 1.0;"/><text fill="#000000" font-family="sans-serif" font-size="11" lengthAdjust="spacingAndGlyphs" textLength="160" x="956" y="355.2676">InnerJoiner(joinExpr: Column)</text><rect fill="#FEFECE" filter="url(#f1)" height="38.2656" style="stroke: #A80036; stroke-width: 1.5;" width="71" x="1157.75" y="320"/><text fill="#000000" font-family="sans-serif" font-size="12" font-style="italic" lengthAdjust="spacingAndGlyphs" textLength="50" x="1168.25" y="336.6016">«Object»</text><text fill="#000000" font-family="sans-serif" font-size="12" lengthAdjust="spacingAndGlyphs" textLength="65" x="1160.75" y="350.7344">CrossJoiner</text><rect fill="#FEFECE" filter="url(#f1)" height="72.1758" style="stroke: #A80036; stroke-width: 1.5;" width="209" x="118.75" y="178"/><text fill="#000000" font-family="sans-serif" font-size="12" font-style="italic" lengthAdjust="spacingAndGlyphs" textLength="60" x="193.25" y="194.6016">«Abstract»</text><text fill="#000000" font-family="sans-serif" font-size="12" lengthAdjust="spacingAndGlyphs" textLength="63" x="191.75" y="208.7344">LevelMatch</text><line style="stroke: #A80036; stroke-width: 1.5;" x1="119.75" x2="326.75" y1="216.2656" y2="216.2656"/><polygon fill="#4177AF" points="129.75,224.2432,125.75,230.2432,133.75,230.2432" style="stroke: #1963A0; stroke-width: 1.0;"/><text fill="#000000" font-family="sans-serif" font-size="11" lengthAdjust="spacingAndGlyphs" textLength="140" x="138.75" y="230.9004">getMatchColName():String</text><polygon fill="#4177AF" points="129.75,237.1982,125.75,243.1982,133.75,243.1982" style="stroke: #1963A0; stroke-width: 1.0;"/><text fill="#000000" font-family="sans-serif" font-size="11" lengthAdjust="spacingAndGlyphs" textLength="183" x="138.75" y="243.8555">addCols(df:DataFrame):DataFrame</text><rect fill="#FEFECE" filter="url(#f1)" height="45.0879" style="stroke: #A80036; stroke-width: 1.5;" width="295" x="75.75" y="316.5"/><text fill="#000000" font-family="sans-serif" font-size="12" lengthAdjust="spacingAndGlyphs" textLength="94" x="176.25" y="333.1016">ExactLevelMatch</text><line style="stroke: #A80036; stroke-width: 1.5;" x1="76.75" x2="369.75" y1="340.6328" y2="340.6328"/><ellipse cx="86.75" cy="352.6104" fill="#84BE84" rx="3" ry="3" style="stroke: #038048; stroke-width: 1.0;"/><text fill="#000000" font-family="sans-serif" font-size="11" lengthAdjust="spacingAndGlyphs" textLength="269" x="95.75" y="355.2676">ExactLevelMatch(colName:String, colExpr:Column)</text><rect fill="#FEFECE" filter="url(#f1)" height="45.0879" style="stroke: #A80036; stroke-width: 1.5;" width="627" x="38.75" y="428.5"/><text fill="#000000" font-family="sans-serif" font-size="12" lengthAdjust="spacingAndGlyphs" textLength="96" x="304.25" y="445.1016">FuzzyLevelMatch</text><line style="stroke: #A80036; stroke-width: 1.5;" x1="39.75" x2="664.75" y1="452.6328" y2="452.6328"/><ellipse cx="49.75" cy="464.6104" fill="#84BE84" rx="3" ry="3" style="stroke: #038048; stroke-width: 1.0;"/><text fill="#000000" font-family="sans-serif" font-size="11" lengthAdjust="spacingAndGlyphs" textLength="601" x="58.75" y="467.2676">FuzzyLevelMatch(colName:String, exactMatchGroup:Column, stringDistanceExpression:Column, threshold:Float)</text><path d="M653,243.528 C653,259.285 653,279.142 653,296.579 " fill="none" style="stroke: #A80036; stroke-width: 1.0;"/><polygon fill="#A80036" points="653,309.627,657,303.627,653,297.627,649,303.627,653,309.627" style="stroke: #A80036; stroke-width: 1.0;"/><text fill="#000000" font-family="sans-serif" font-size="13" lengthAdjust="spacingAndGlyphs" textLength="24" x="625.1563" y="264.2061">0..1</text><path d="M941.793,243.528 C884.779,262.179 810.207,286.573 751.122,305.902 " fill="none" style="stroke: #A80036; stroke-width: 1.0;"/><polygon fill="#A80036" points="738.761,309.945,745.7074,311.8808,750.166,306.2132,743.2196,304.2774,738.761,309.945" style="stroke: #A80036; stroke-width: 1.0;"/><text fill="#000000" font-family="sans-serif" font-size="13" lengthAdjust="spacingAndGlyphs" textLength="24" x="894.8727" y="264.2061">0..1</text><path d="M327.365,244.853 C392.402,263.457 476.004,287.371 542.213,306.31 " fill="none" style="stroke: #A80036; stroke-width: 1.0;"/><polygon fill="#A80036" points="554.788,309.907,550.1196,304.411,543.2509,306.6063,547.9192,312.1024,554.788,309.907" style="stroke: #A80036; stroke-width: 1.0;"/><text fill="#000000" font-family="sans-serif" font-size="13" lengthAdjust="spacingAndGlyphs" textLength="6" x="335.9007" y="243.208">*</text><path d="M223,270.503 C223,286.723 223,303.505 223,316.278 " fill="none" style="stroke: #A80036; stroke-width: 1.0;"/><polygon fill="none" points="216,270.247,223,250.247,230,270.247,216,270.247" style="stroke: #A80036; stroke-width: 1.0;"/><path d="M107.22,260.444 C87.5371,273.448 69.7032,289.757 58,310 C45.0978,332.317 42.412,347.469 58,368 C78.1072,394.483 149.157,414.707 216.369,428.4445 " fill="none" style="stroke: #A80036; stroke-width: 1.0;"/><polygon fill="none" points="103.7392,254.369,124.488,250.068,110.95,266.369,103.7392,254.369" style="stroke: #A80036; stroke-width: 1.0;"/><path d="M1029,263.729 C1029,281.888 1029,301.601 1029,316.152 " fill="none" style="stroke: #A80036; stroke-width: 1.0;"/><polygon fill="none" points="1022,263.528,1029,243.528,1036,263.528,1022,263.528" style="stroke: #A80036; stroke-width: 1.0;"/><path d="M1083.36,255.768 C1112.32,277.488 1146.49,303.115 1168.89,319.917 " fill="none" style="stroke: #A80036; stroke-width: 1.0;"/><polygon fill="none" points="1078.84,261.128,1067.04,243.528,1087.24,249.928,1078.84,261.128" style="stroke: #A80036; stroke-width: 1.0;"/><path d="M570.648,111.707 C583.375,127.361 601.003,149.044 616.685,168.333 " fill="none" style="stroke: #A80036; stroke-width: 1.0;"/><polygon fill="none" points="622.336,164.186,629.521,184.121,611.473,173.018,622.336,164.186" style="stroke: #A80036; stroke-width: 1.0;"/><path d="M879.147,118.065 C837.767,135.436 784.206,157.92 739.598,176.647 " fill="none" style="stroke: #A80036; stroke-width: 1.0;"/><polygon fill="none" points="742.24,183.129,721.089,184.417,736.821,170.221,742.24,183.129" style="stroke: #A80036; stroke-width: 1.0;"/><path d="M1092.83,122.635 C1126.75,135.536 1160.59,153.385 1187,178 C1234.01,221.816 1232.59,247.154 1246,310 C1251.38,335.211 1261.28,347.236 1246,368 C1227.44,393.234 1159,414.1147 1096.6,428.4898 " fill="none" style="stroke: #A80036; stroke-width: 1.0;"/><polygon fill="none" points="1080.34,118.103,1084.6181,123.908,1091.622,122.1916,1087.3439,116.3867,1080.34,118.103" style="stroke: #A80036; stroke-width: 1.0;"/><path d="M737.127,368.042 C791.699,386.233 861.952,409.6508 913.379,426.7931 " fill="none" style="stroke: #A80036; stroke-width: 1.0;"/><polygon fill="#A80036" points="918.296,428.4321,911.0231,421.7909,913.5527,426.8507,908.4929,429.3803,918.296,428.4321" style="stroke: #A80036; stroke-width: 1.0;"/></g></svg>