<?xml version="1.0" encoding="UTF-8" standalone="yes"?><svg xmlns="http://www.w3.org/2000/svg" xmlns:xlink="http://www.w3.org/1999/xlink" height="712pt" style="width:760px;height:712px;" version="1.1" viewBox="0 0 760 712" width="760pt"><defs><filter height="300%" id="f1" width="300%" x="-1" y="-1"><feGaussianBlur result="blurOut" stdDeviation="2.0"/><feColorMatrix in="blurOut" result="blurOut2" type="matrix" values="0 0 0 0 0 0 0 0 0 0 0 0 0 0 0 0 0 0 .4 0"/><feOffset dx="4.0" dy="4.0" in="blurOut2" result="blurOut3"/><feBlend in="SourceGraphic" in2="blurOut3" mode="normal"/></filter></defs><g><polygon fill="#FFFFFF" filter="url(#f1)" points="14,16,51,16,58,38.4883,559,38.4883,559,566,14,566,14,16" style="stroke: #000000; stroke-width: 2.0;"/><line style="stroke: #000000; stroke-width: 2.0;" x1="14" x2="58" y1="38.4883" y2="38.4883"/><text fill="#000000" font-family="sans-serif" font-size="14" font-weight="bold" lengthAdjust="spacingAndGlyphs" textLength="31" x="17" y="32.5352">SMV</text><polygon fill="#FFFFFF" filter="url(#f1)" points="272,591,366,591,373,613.4883,753,613.4883,753,705,272,705,272,591" style="stroke: #000000; stroke-width: 2.0;"/><line style="stroke: #000000; stroke-width: 2.0;" x1="272" x2="373" y1="613.4883" y2="613.4883"/><text fill="#000000" font-family="sans-serif" font-size="14" font-weight="bold" lengthAdjust="spacingAndGlyphs" textLength="88" x="275" y="607.5352">ExampleApp</text><rect fill="#FEFECE" filter="url(#f1)" height="209.7266" style="stroke: #A80036; stroke-width: 1.5;" width="191" x="359.5" y="43"/><text fill="#000000" font-family="sans-serif" font-size="12" font-style="italic" lengthAdjust="spacingAndGlyphs" textLength="88" x="411" y="59.6016">&lt;&lt;Abstract&gt;&gt;</text><text fill="#000000" font-family="sans-serif" font-size="12" lengthAdjust="spacingAndGlyphs" textLength="67" x="421.5" y="73.7344">SmvDataSet</text><line style="stroke: #A80036; stroke-width: 1.5;" x1="360.5" x2="549.5" y1="81.2656" y2="81.2656"/><rect fill="none" height="6" style="stroke: #C82930; stroke-width: 1.0;" width="6" x="367.5" y="90.2432"/><text fill="#000000" font-family="sans-serif" font-size="11" lengthAdjust="spacingAndGlyphs" textLength="70" x="379.5" y="95.9004">app: SmvApp</text><ellipse cx="370.5" cy="106.1982" fill="none" rx="3" ry="3" style="stroke: #038048; stroke-width: 1.0;"/><text fill="#000000" font-family="sans-serif" font-size="11" lengthAdjust="spacingAndGlyphs" textLength="67" x="379.5" y="108.8555">name: String</text><ellipse cx="370.5" cy="119.1533" fill="none" rx="3" ry="3" style="stroke: #038048; stroke-width: 1.0;"/><text fill="#000000" font-family="sans-serif" font-size="11" lengthAdjust="spacingAndGlyphs" textLength="60" x="379.5" y="121.8105">version: Int</text><ellipse cx="370.5" cy="132.1084" fill="none" rx="3" ry="3" style="stroke: #038048; stroke-width: 1.0;"/><text fill="#000000" font-family="sans-serif" font-size="11" lengthAdjust="spacingAndGlyphs" textLength="99" x="379.5" y="134.7656">description: String</text><ellipse cx="370.5" cy="145.0635" fill="none" rx="3" ry="3" style="stroke: #038048; stroke-width: 1.0;"/><text fill="#000000" font-family="sans-serif" font-size="11" lengthAdjust="spacingAndGlyphs" textLength="98" x="379.5" y="147.7207">classCodeCRC: Int</text><ellipse cx="370.5" cy="158.0186" fill="none" rx="3" ry="3" style="stroke: #038048; stroke-width: 1.0;"/><text fill="#000000" font-family="sans-serif" font-size="11" lengthAdjust="spacingAndGlyphs" textLength="133" x="379.5" y="160.6758">validations: ValidationSet</text><ellipse cx="370.5" cy="170.9736" fill="none" rx="3" ry="3" style="stroke: #038048; stroke-width: 1.0;"/><text fill="#000000" font-family="sans-serif" font-size="11" lengthAdjust="spacingAndGlyphs" textLength="86" x="379.5" y="173.6309">hashOfHash: Int</text><ellipse cx="370.5" cy="183.9287" fill="none" rx="3" ry="3" style="stroke: #038048; stroke-width: 1.0;"/><text fill="#000000" font-family="sans-serif" font-size="11" lengthAdjust="spacingAndGlyphs" textLength="113" x="379.5" y="186.5859">isEphemeral: Boolean</text><line style="stroke: #A80036; stroke-width: 1.5;" x1="360.5" x2="549.5" y1="192.9063" y2="192.9063"/><ellipse cx="370.5" cy="204.8838" fill="#84BE84" rx="3" ry="3" style="stroke: #038048; stroke-width: 1.0;"/><text fill="#000000" font-family="sans-serif" font-size="11" font-style="italic" lengthAdjust="spacingAndGlyphs" textLength="165" x="379.5" y="207.541">requiresDS() : Seq[SmvDataSet]</text><ellipse cx="370.5" cy="217.8389" fill="#84BE84" rx="3" ry="3" style="stroke: #038048; stroke-width: 1.0;"/><text fill="#000000" font-family="sans-serif" font-size="11" font-style="italic" lengthAdjust="spacingAndGlyphs" textLength="141" x="379.5" y="220.4961">computeRDD(): DataFrame</text><ellipse cx="370.5" cy="230.7939" fill="#84BE84" rx="3" ry="3" style="stroke: #038048; stroke-width: 1.0;"/><text fill="#000000" font-family="sans-serif" font-size="11" lengthAdjust="spacingAndGlyphs" textLength="62" x="379.5" y="233.4512">rdd(): SRDD</text><ellipse cx="370.5" cy="243.749" fill="#84BE84" rx="3" ry="3" style="stroke: #038048; stroke-width: 1.0;"/><text fill="#000000" font-family="sans-serif" font-size="11" lengthAdjust="spacingAndGlyphs" textLength="157" x="379.5" y="246.4063">injectApp(app: SmvApp): Unit</text><rect fill="#FEFECE" filter="url(#f1)" height="106.0859" style="stroke: #A80036; stroke-width: 1.5;" width="202" x="120" y="313"/><text fill="#000000" font-family="sans-serif" font-size="12" font-style="italic" lengthAdjust="spacingAndGlyphs" textLength="88" x="177" y="329.6016">&lt;&lt;Abstract&gt;&gt;</text><text fill="#000000" font-family="sans-serif" font-size="12" lengthAdjust="spacingAndGlyphs" textLength="42" x="200" y="343.7344">SmvFile</text><line style="stroke: #A80036; stroke-width: 1.5;" x1="121" x2="321" y1="351.2656" y2="351.2656"/><ellipse cx="131" cy="363.2432" fill="none" rx="3" ry="3" style="stroke: #038048; stroke-width: 1.0;"/><text fill="#000000" font-family="sans-serif" font-size="11" lengthAdjust="spacingAndGlyphs" textLength="89" x="140" y="365.9004">basePath : String</text><ellipse cx="131" cy="376.1982" fill="none" rx="3" ry="3" style="stroke: #038048; stroke-width: 1.0;"/><text fill="#000000" font-family="sans-serif" font-size="11" lengthAdjust="spacingAndGlyphs" textLength="144" x="140" y="378.8555">failAtParsingError: Boolean</text><ellipse cx="131" cy="389.1533" fill="none" rx="3" ry="3" style="stroke: #038048; stroke-width: 1.0;"/><text fill="#000000" font-family="sans-serif" font-size="11" lengthAdjust="spacingAndGlyphs" textLength="176" x="140" y="391.8105">parserValidator: ParserValidation</text><line style="stroke: #A80036; stroke-width: 1.5;" x1="121" x2="321" y1="398.1309" y2="398.1309"/><ellipse cx="131" cy="410.1084" fill="#84BE84" rx="3" ry="3" style="stroke: #038048; stroke-width: 1.0;"/><text fill="#000000" font-family="sans-serif" font-size="11" lengthAdjust="spacingAndGlyphs" textLength="164" x="140" y="412.7656">run(df: DataFrame): DataFrame</text><rect fill="#FEFECE" filter="url(#f1)" height="58.043" style="stroke: #A80036; stroke-width: 1.5;" width="181" x="22.5" y="489.5"/><text fill="#000000" font-family="sans-serif" font-size="12" lengthAdjust="spacingAndGlyphs" textLength="62" x="82" y="506.1016">SmvCsvFile</text><line style="stroke: #A80036; stroke-width: 1.5;" x1="23.5" x2="202.5" y1="513.6328" y2="513.6328"/><ellipse cx="33.5" cy="525.6104" fill="none" rx="3" ry="3" style="stroke: #038048; stroke-width: 1.0;"/><text fill="#000000" font-family="sans-serif" font-size="11" lengthAdjust="spacingAndGlyphs" textLength="155" x="42.5" y="528.2676">csvAttributes : CsvAttributes</text><ellipse cx="33.5" cy="538.5654" fill="none" rx="3" ry="3" style="stroke: #038048; stroke-width: 1.0;"/><text fill="#000000" font-family="sans-serif" font-size="11" lengthAdjust="spacingAndGlyphs" textLength="102" x="42.5" y="541.2227">schemaPath: String</text><rect fill="#FEFECE" filter="url(#f1)" height="45.0879" style="stroke: #A80036; stroke-width: 1.5;" width="128" x="239" y="496"/><text fill="#000000" font-family="sans-serif" font-size="12" lengthAdjust="spacingAndGlyphs" textLength="56" x="275" y="512.6016">SmvFrlFile</text><line style="stroke: #A80036; stroke-width: 1.5;" x1="240" x2="366" y1="520.1328" y2="520.1328"/><ellipse cx="250" cy="532.1104" fill="none" rx="3" ry="3" style="stroke: #038048; stroke-width: 1.0;"/><text fill="#000000" font-family="sans-serif" font-size="11" lengthAdjust="spacingAndGlyphs" textLength="102" x="259" y="534.7676">schemaPath: String</text><rect fill="#FEFECE" filter="url(#f1)" height="59.2207" style="stroke: #A80036; stroke-width: 1.5;" width="193" x="357.5" y="336.5"/><text fill="#000000" font-family="sans-serif" font-size="12" font-style="italic" lengthAdjust="spacingAndGlyphs" textLength="88" x="410" y="353.1016">&lt;&lt;Abstract&gt;&gt;</text><text fill="#000000" font-family="sans-serif" font-size="12" lengthAdjust="spacingAndGlyphs" textLength="65" x="421.5" y="367.2344">SmvModule</text><line style="stroke: #A80036; stroke-width: 1.5;" x1="358.5" x2="549.5" y1="374.7656" y2="374.7656"/><ellipse cx="368.5" cy="386.7432" fill="#84BE84" rx="3" ry="3" style="stroke: #038048; stroke-width: 1.0;"/><text fill="#000000" font-family="sans-serif" font-size="11" font-style="italic" lengthAdjust="spacingAndGlyphs" textLength="167" x="377.5" y="389.4004">run(in: runParams) : DataFrame</text><rect fill="#FEFECE" filter="url(#f1)" height="78.998" style="stroke: #A80036; stroke-width: 1.5;" width="147" x="402.5" y="479"/><text fill="#000000" font-family="sans-serif" font-size="12" lengthAdjust="spacingAndGlyphs" textLength="70" x="441" y="495.6016">SmvCsvData</text><line style="stroke: #A80036; stroke-width: 1.5;" x1="403.5" x2="548.5" y1="503.1328" y2="503.1328"/><ellipse cx="413.5" cy="515.1104" fill="none" rx="3" ry="3" style="stroke: #038048; stroke-width: 1.0;"/><text fill="#000000" font-family="sans-serif" font-size="11" lengthAdjust="spacingAndGlyphs" textLength="94" x="422.5" y="517.7676">schemaStr: String</text><ellipse cx="413.5" cy="528.0654" fill="none" rx="3" ry="3" style="stroke: #038048; stroke-width: 1.0;"/><text fill="#000000" font-family="sans-serif" font-size="11" lengthAdjust="spacingAndGlyphs" textLength="61" x="422.5" y="530.7227">data: String</text><line style="stroke: #A80036; stroke-width: 1.5;" x1="403.5" x2="548.5" y1="537.043" y2="537.043"/><ellipse cx="413.5" cy="549.0205" fill="#84BE84" rx="3" ry="3" style="stroke: #038048; stroke-width: 1.0;"/><text fill="#000000" font-family="sans-serif" font-size="11" lengthAdjust="spacingAndGlyphs" textLength="121" x="422.5" y="551.6777">cnstr(schemaStr, data)</text><rect fill="#FEFECE" filter="url(#f1)" height="117.8633" style="stroke: #A80036; stroke-width: 1.5;" width="302" x="22" y="89"/><text fill="#000000" font-family="sans-serif" font-size="12" lengthAdjust="spacingAndGlyphs" textLength="47" x="149.5" y="105.6016">SmvApp</text><line style="stroke: #A80036; stroke-width: 1.5;" x1="23" x2="323" y1="113.1328" y2="113.1328"/><rect fill="none" height="6" style="stroke: #C82930; stroke-width: 1.0;" width="6" x="30" y="122.1104"/><text fill="#000000" font-family="sans-serif" font-size="11" lengthAdjust="spacingAndGlyphs" textLength="91" x="42" y="127.7676">sc: SparkContext</text><rect fill="none" height="6" style="stroke: #C82930; stroke-width: 1.0;" width="6" x="30" y="135.0654"/><text fill="#000000" font-family="sans-serif" font-size="11" lengthAdjust="spacingAndGlyphs" textLength="129" x="42" y="140.7227">sqlContext: SQLContext</text><rect fill="none" height="6" style="stroke: #C82930; stroke-width: 1.0;" width="6" x="30" y="148.0205"/><text fill="#000000" font-family="sans-serif" font-size="11" lengthAdjust="spacingAndGlyphs" textLength="122" x="42" y="153.6777">smvConfig: SmvConfig</text><line style="stroke: #A80036; stroke-width: 1.5;" x1="23" x2="323" y1="159.998" y2="159.998"/><ellipse cx="33" cy="171.9756" fill="#84BE84" rx="3" ry="3" style="stroke: #038048; stroke-width: 1.0;"/><text fill="#000000" font-family="sans-serif" font-size="11" lengthAdjust="spacingAndGlyphs" textLength="214" x="42" y="174.6328">resolveRDD(ds: SmvDataSet): DataFrame</text><ellipse cx="33" cy="184.9307" fill="#84BE84" rx="3" ry="3" style="stroke: #038048; stroke-width: 1.0;"/><text fill="#000000" font-family="sans-serif" font-size="11" lengthAdjust="spacingAndGlyphs" textLength="276" x="42" y="187.5879">createDF(schemaStr:String, data: String): DataFrame</text><ellipse cx="33" cy="197.8857" fill="#84BE84" rx="3" ry="3" style="stroke: #038048; stroke-width: 1.0;"/><text fill="#000000" font-family="sans-serif" font-size="11" lengthAdjust="spacingAndGlyphs" textLength="27" x="42" y="200.543">run()</text><rect fill="#FEFECE" filter="url(#f1)" height="70.998" style="stroke: #A80036; stroke-width: 1.5;" width="141" x="427.5" y="622"/><text fill="#000000" font-family="sans-serif" font-size="12" lengthAdjust="spacingAndGlyphs" textLength="50" x="473" y="638.6016">Module1</text><line style="stroke: #A80036; stroke-width: 1.5;" x1="428.5" x2="567.5" y1="646.1328" y2="646.1328"/><ellipse cx="438.5" cy="658.1104" fill="#84BE84" rx="3" ry="3" style="stroke: #038048; stroke-width: 1.0;"/><text fill="#000000" font-family="sans-serif" font-size="11" lengthAdjust="spacingAndGlyphs" textLength="96" x="447.5" y="660.7676">override version()</text><ellipse cx="438.5" cy="671.0654" fill="#84BE84" rx="3" ry="3" style="stroke: #038048; stroke-width: 1.0;"/><text fill="#000000" font-family="sans-serif" font-size="11" lengthAdjust="spacingAndGlyphs" textLength="115" x="447.5" y="673.7227">override requiresDS()</text><ellipse cx="438.5" cy="684.0205" fill="#84BE84" rx="3" ry="3" style="stroke: #038048; stroke-width: 1.0;"/><text fill="#000000" font-family="sans-serif" font-size="11" lengthAdjust="spacingAndGlyphs" textLength="109" x="447.5" y="686.6777">override run(inputs)</text><rect fill="#FEFECE" filter="url(#f1)" height="70.998" style="stroke: #A80036; stroke-width: 1.5;" width="141" x="603.5" y="622"/><text fill="#000000" font-family="sans-serif" font-size="12" lengthAdjust="spacingAndGlyphs" textLength="50" x="649" y="638.6016">Module2</text><line style="stroke: #A80036; stroke-width: 1.5;" x1="604.5" x2="743.5" y1="646.1328" y2="646.1328"/><ellipse cx="614.5" cy="658.1104" fill="#84BE84" rx="3" ry="3" style="stroke: #038048; stroke-width: 1.0;"/><text fill="#000000" font-family="sans-serif" font-size="11" lengthAdjust="spacingAndGlyphs" textLength="96" x="623.5" y="660.7676">override version()</text><ellipse cx="614.5" cy="671.0654" fill="#84BE84" rx="3" ry="3" style="stroke: #038048; stroke-width: 1.0;"/><text fill="#000000" font-family="sans-serif" font-size="11" lengthAdjust="spacingAndGlyphs" textLength="115" x="623.5" y="673.7227">override requiresDS()</text><ellipse cx="614.5" cy="684.0205" fill="#84BE84" rx="3" ry="3" style="stroke: #038048; stroke-width: 1.0;"/><text fill="#000000" font-family="sans-serif" font-size="11" lengthAdjust="spacingAndGlyphs" textLength="109" x="623.5" y="686.6777">override run(inputs)</text><rect fill="#FEFECE" filter="url(#f1)" height="78.998" style="stroke: #A80036; stroke-width: 1.5;" width="112" x="280" y="618"/><text fill="#000000" font-family="sans-serif" font-size="12" lengthAdjust="spacingAndGlyphs" textLength="27" x="322.5" y="634.6016">File1</text><line style="stroke: #A80036; stroke-width: 1.5;" x1="281" x2="391" y1="642.1328" y2="642.1328"/><ellipse cx="291" cy="654.1104" fill="none" rx="3" ry="3" style="stroke: #038048; stroke-width: 1.0;"/><text fill="#000000" font-family="sans-serif" font-size="11" lengthAdjust="spacingAndGlyphs" textLength="48" x="300" y="656.7676">basePath</text><ellipse cx="291" cy="667.0654" fill="none" rx="3" ry="3" style="stroke: #038048; stroke-width: 1.0;"/><text fill="#000000" font-family="sans-serif" font-size="11" lengthAdjust="spacingAndGlyphs" textLength="72" x="300" y="669.7227">csvAttributes</text><line style="stroke: #A80036; stroke-width: 1.5;" x1="281" x2="391" y1="676.043" y2="676.043"/><ellipse cx="291" cy="688.0205" fill="#84BE84" rx="3" ry="3" style="stroke: #038048; stroke-width: 1.0;"/><text fill="#000000" font-family="sans-serif" font-size="11" lengthAdjust="spacingAndGlyphs" textLength="86" x="300" y="690.6777">override run(df)</text><path d="M344.705,250.811 C321.471,272.257 297.884,294.03 277.624,312.732 " fill="none" style="stroke: #A80036; stroke-width: 1.0;"/><polygon fill="none" points="340.042,245.589,359.486,237.167,349.538,255.876,340.042,245.589" style="stroke: #A80036; stroke-width: 1.0;"/><path d="M171.737,435.649 C158.098,454.656 144.052,474.228 133.117,489.466 " fill="none" style="stroke: #A80036; stroke-width: 1.0;"/><polygon fill="none" points="166.182,431.383,183.53,419.215,177.557,439.546,166.182,431.383" style="stroke: #A80036; stroke-width: 1.0;"/><path d="M259.102,436.93 C270.78,458.365 282.774,480.377 291.267,495.966 " fill="none" style="stroke: #A80036; stroke-width: 1.0;"/><polygon fill="none" points="252.872,440.127,249.449,419.215,265.165,433.428,252.872,440.127" style="stroke: #A80036; stroke-width: 1.0;"/><path d="M454.425,273.265 C454.315,296.972 454.21,319.608 454.132,336.463 " fill="none" style="stroke: #A80036; stroke-width: 1.0;"/><polygon fill="none" points="447.425,273.171,454.518,253.204,461.425,273.236,447.425,273.171" style="stroke: #A80036; stroke-width: 1.0;"/><path d="M461.11,415.642 C464.11,436.16 467.552,459.708 470.371,478.991 " fill="none" style="stroke: #A80036; stroke-width: 1.0;"/><polygon fill="none" points="454.156,416.464,458.19,395.662,468.009,414.439,454.156,416.464" style="stroke: #A80036; stroke-width: 1.0;"/><path d="M337.411,148 C344.756,148 352.102,148 359.447,148 " fill="none" style="stroke: #A80036; stroke-width: 1.0;"/><polygon fill="#A80036" points="324.189,148,330.189,152,336.189,148,330.189,144,324.189,148" style="stroke: #A80036; stroke-width: 1.0;"/><text fill="#000000" font-family="sans-serif" font-size="13" lengthAdjust="spacingAndGlyphs" textLength="6" x="345.5936" y="144.994">*</text><path d="M511.989,408.289 C533.524,427.125 555.498,451.406 567,479 C581.876,514.69 579.372,529.366 567,566 C560.046,586.591 546.328,606.195 532.944,621.8598 " fill="none" style="stroke: #A80036; stroke-width: 1.0;"/><polygon fill="none" points="507.528,413.684,496.541,395.565,516.429,402.877,507.528,413.684" style="stroke: #A80036; stroke-width: 1.0;"/><path d="M519.921,407.032 C547.183,426.139 577.399,450.962 599,479 C632.688,522.727 654.107,583.824 665.077,621.7354 " fill="none" style="stroke: #A80036; stroke-width: 1.0;"/><polygon fill="none" points="515.659,412.601,502.994,395.612,523.489,400.995,515.659,412.601" style="stroke: #A80036; stroke-width: 1.0;"/><path d="M175.987,558.196 C208.61,578.238 248.116,602.509 279.711,621.9187 " fill="none" style="stroke: #A80036; stroke-width: 1.0;"/><polygon fill="none" points="172.042,563.988,158.665,547.555,179.371,552.059,172.042,563.988" style="stroke: #A80036; stroke-width: 1.0;"/></g></svg>