<?xml version="1.0" encoding="UTF-8" standalone="yes"?><svg xmlns="http://www.w3.org/2000/svg" xmlns:xlink="http://www.w3.org/1999/xlink" height="571pt" style="width:681px;height:571px;" version="1.1" viewBox="0 0 681 571" width="681pt"><defs><filter height="300%" id="f1" width="300%" x="-1" y="-1"><feGaussianBlur result="blurOut" stdDeviation="2.0"/><feColorMatrix in="blurOut" result="blurOut2" type="matrix" values="0 0 0 0 0 0 0 0 0 0 0 0 0 0 0 0 0 0 .4 0"/><feOffset dx="4.0" dy="4.0" in="blurOut2" result="blurOut3"/><feBlend in="SourceGraphic" in2="blurOut3" mode="normal"/></filter></defs><g><polygon fill="#FFFFFF" filter="url(#f1)" points="158,16,195,16,202,38.4883,674,38.4883,674,302,158,302,158,16" style="stroke: #000000; stroke-width: 2.0;"/><line style="stroke: #000000; stroke-width: 2.0;" x1="158" x2="202" y1="38.4883" y2="38.4883"/><text fill="#000000" font-family="sans-serif" font-size="14" font-weight="bold" lengthAdjust="spacingAndGlyphs" textLength="31" x="161" y="32.5352">SMV</text><polygon fill="#FFFFFF" filter="url(#f1)" points="14,327,108,327,115,349.4883,446,349.4883,446,564,14,564,14,327" style="stroke: #000000; stroke-width: 2.0;"/><line style="stroke: #000000; stroke-width: 2.0;" x1="14" x2="115" y1="349.4883" y2="349.4883"/><text fill="#000000" font-family="sans-serif" font-size="14" font-weight="bold" lengthAdjust="spacingAndGlyphs" textLength="88" x="17" y="343.5352">ExampleApp</text><rect fill="#FEFECE" filter="url(#f1)" height="117.8633" style="stroke: #A80036; stroke-width: 1.5;" width="209" x="456.5" y="50"/><text fill="#000000" font-family="sans-serif" font-size="12" lengthAdjust="spacingAndGlyphs" textLength="67" x="527.5" y="66.6016">SmvDataSet</text><line style="stroke: #A80036; stroke-width: 1.5;" x1="457.5" x2="664.5" y1="74.1328" y2="74.1328"/><ellipse cx="467.5" cy="86.1104" fill="none" rx="3" ry="3" style="stroke: #038048; stroke-width: 1.0;"/><text fill="#000000" font-family="sans-serif" font-size="11" lengthAdjust="spacingAndGlyphs" textLength="67" x="476.5" y="88.7676">name: String</text><ellipse cx="467.5" cy="99.0654" fill="none" rx="3" ry="3" style="stroke: #038048; stroke-width: 1.0;"/><text fill="#000000" font-family="sans-serif" font-size="11" lengthAdjust="spacingAndGlyphs" textLength="60" x="476.5" y="101.7227">version: Int</text><ellipse cx="467.5" cy="112.0205" fill="none" rx="3" ry="3" style="stroke: #038048; stroke-width: 1.0;"/><text fill="#000000" font-family="sans-serif" font-size="11" lengthAdjust="spacingAndGlyphs" textLength="99" x="476.5" y="114.6777">description: String</text><line style="stroke: #A80036; stroke-width: 1.5;" x1="457.5" x2="664.5" y1="120.998" y2="120.998"/><ellipse cx="467.5" cy="132.9756" fill="#84BE84" rx="3" ry="3" style="stroke: #038048; stroke-width: 1.0;"/><text fill="#000000" font-family="sans-serif" font-size="11" font-style="italic" lengthAdjust="spacingAndGlyphs" textLength="165" x="476.5" y="135.6328">requiresDS() : Seq[SmvDataSet]</text><ellipse cx="467.5" cy="145.9307" fill="#84BE84" rx="3" ry="3" style="stroke: #038048; stroke-width: 1.0;"/><text fill="#000000" font-family="sans-serif" font-size="11" font-style="italic" lengthAdjust="spacingAndGlyphs" textLength="183" x="476.5" y="148.5879">computeRDD(app: SmvApp): SRDD</text><ellipse cx="467.5" cy="158.8857" fill="#84BE84" rx="3" ry="3" style="stroke: #038048; stroke-width: 1.0;"/><text fill="#000000" font-family="sans-serif" font-size="11" lengthAdjust="spacingAndGlyphs" textLength="62" x="476.5" y="161.543">rdd(): SRDD</text><rect fill="#FEFECE" filter="url(#f1)" height="58.043" style="stroke: #A80036; stroke-width: 1.5;" width="181" x="484.5" y="235.5"/><text fill="#000000" font-family="sans-serif" font-size="12" lengthAdjust="spacingAndGlyphs" textLength="42" x="554" y="252.1016">SmvFile</text><line style="stroke: #A80036; stroke-width: 1.5;" x1="485.5" x2="664.5" y1="259.6328" y2="259.6328"/><ellipse cx="495.5" cy="271.6104" fill="none" rx="3" ry="3" style="stroke: #038048; stroke-width: 1.0;"/><text fill="#000000" font-family="sans-serif" font-size="11" lengthAdjust="spacingAndGlyphs" textLength="89" x="504.5" y="274.2676">basePath : String</text><ellipse cx="495.5" cy="284.5654" fill="none" rx="3" ry="3" style="stroke: #038048; stroke-width: 1.0;"/><text fill="#000000" font-family="sans-serif" font-size="11" lengthAdjust="spacingAndGlyphs" textLength="155" x="504.5" y="287.2227">csvAttributes : CsvAttributes</text><rect fill="#FEFECE" filter="url(#f1)" height="59.2207" style="stroke: #A80036; stroke-width: 1.5;" width="165" x="284.5" y="235"/><text fill="#000000" font-family="sans-serif" font-size="12" font-style="italic" lengthAdjust="spacingAndGlyphs" textLength="88" x="323" y="251.6016">&lt;&lt;Abstract&gt;&gt;</text><text fill="#000000" font-family="sans-serif" font-size="12" lengthAdjust="spacingAndGlyphs" textLength="65" x="334.5" y="265.7344">SmvModule</text><line style="stroke: #A80036; stroke-width: 1.5;" x1="285.5" x2="448.5" y1="273.2656" y2="273.2656"/><ellipse cx="295.5" cy="285.2432" fill="#84BE84" rx="3" ry="3" style="stroke: #038048; stroke-width: 1.0;"/><text fill="#000000" font-family="sans-serif" font-size="11" font-style="italic" lengthAdjust="spacingAndGlyphs" textLength="139" x="304.5" y="287.9004">run(in: runParams) : SRDD</text><rect fill="#FEFECE" filter="url(#f1)" height="131.9961" style="stroke: #A80036; stroke-width: 1.5;" width="255" x="166.5" y="43"/><text fill="#000000" font-family="sans-serif" font-size="12" font-style="italic" lengthAdjust="spacingAndGlyphs" textLength="88" x="250" y="59.6016">&lt;&lt;Abstract&gt;&gt;</text><text fill="#000000" font-family="sans-serif" font-size="12" lengthAdjust="spacingAndGlyphs" textLength="47" x="270.5" y="73.7344">SmvApp</text><line style="stroke: #A80036; stroke-width: 1.5;" x1="167.5" x2="420.5" y1="81.2656" y2="81.2656"/><rect fill="none" height="6" style="stroke: #C82930; stroke-width: 1.0;" width="6" x="174.5" y="90.2432"/><text fill="#000000" font-family="sans-serif" font-size="11" lengthAdjust="spacingAndGlyphs" textLength="73" x="186.5" y="95.9004">sparkContext</text><rect fill="none" height="6" style="stroke: #C82930; stroke-width: 1.0;" width="6" x="174.5" y="103.1982"/><text fill="#000000" font-family="sans-serif" font-size="11" lengthAdjust="spacingAndGlyphs" textLength="59" x="186.5" y="108.8555">sqlContext</text><ellipse cx="177.5" cy="119.1533" fill="none" rx="3" ry="3" style="stroke: #038048; stroke-width: 1.0;"/><text fill="#000000" font-family="sans-serif" font-size="11" lengthAdjust="spacingAndGlyphs" textLength="88" x="186.5" y="121.8105">appName: String</text><line style="stroke: #A80036; stroke-width: 1.5;" x1="167.5" x2="420.5" y1="128.1309" y2="128.1309"/><ellipse cx="177.5" cy="140.1084" fill="#84BE84" rx="3" ry="3" style="stroke: #038048; stroke-width: 1.0;"/><text fill="#000000" font-family="sans-serif" font-size="11" lengthAdjust="spacingAndGlyphs" textLength="221" x="186.5" y="142.7656">resolveRDD(ds: SmvDataSet): SchemaRDD</text><ellipse cx="177.5" cy="153.0635" fill="#84BE84" rx="3" ry="3" style="stroke: #038048; stroke-width: 1.0;"/><text fill="#000000" font-family="sans-serif" font-size="11" font-style="italic" lengthAdjust="spacingAndGlyphs" textLength="181" x="186.5" y="155.7207">getModulePackages() : Seq[String]</text><ellipse cx="177.5" cy="166.0186" fill="#84BE84" rx="3" ry="3" style="stroke: #038048; stroke-width: 1.0;"/><text fill="#000000" font-family="sans-serif" font-size="11" lengthAdjust="spacingAndGlyphs" textLength="229" x="186.5" y="168.6758">run(inputs: Map[SmvDataSet, SchemaRDD])</text><rect fill="#FEFECE" filter="url(#f1)" height="70.998" style="stroke: #A80036; stroke-width: 1.5;" width="141" x="296.5" y="354"/><text fill="#000000" font-family="sans-serif" font-size="12" lengthAdjust="spacingAndGlyphs" textLength="50" x="342" y="370.6016">Module1</text><line style="stroke: #A80036; stroke-width: 1.5;" x1="297.5" x2="436.5" y1="378.1328" y2="378.1328"/><ellipse cx="307.5" cy="390.1104" fill="#84BE84" rx="3" ry="3" style="stroke: #038048; stroke-width: 1.0;"/><text fill="#000000" font-family="sans-serif" font-size="11" lengthAdjust="spacingAndGlyphs" textLength="96" x="316.5" y="392.7676">override version()</text><ellipse cx="307.5" cy="403.0654" fill="#84BE84" rx="3" ry="3" style="stroke: #038048; stroke-width: 1.0;"/><text fill="#000000" font-family="sans-serif" font-size="11" lengthAdjust="spacingAndGlyphs" textLength="115" x="316.5" y="405.7227">override requiresDS()</text><ellipse cx="307.5" cy="416.0205" fill="#84BE84" rx="3" ry="3" style="stroke: #038048; stroke-width: 1.0;"/><text fill="#000000" font-family="sans-serif" font-size="11" lengthAdjust="spacingAndGlyphs" textLength="109" x="316.5" y="418.6777">override run(inputs)</text><rect fill="#FEFECE" filter="url(#f1)" height="70.998" style="stroke: #A80036; stroke-width: 1.5;" width="141" x="192.5" y="485"/><text fill="#000000" font-family="sans-serif" font-size="12" lengthAdjust="spacingAndGlyphs" textLength="50" x="238" y="501.6016">Module2</text><line style="stroke: #A80036; stroke-width: 1.5;" x1="193.5" x2="332.5" y1="509.1328" y2="509.1328"/><ellipse cx="203.5" cy="521.1104" fill="#84BE84" rx="3" ry="3" style="stroke: #038048; stroke-width: 1.0;"/><text fill="#000000" font-family="sans-serif" font-size="11" lengthAdjust="spacingAndGlyphs" textLength="96" x="212.5" y="523.7676">override version()</text><ellipse cx="203.5" cy="534.0654" fill="#84BE84" rx="3" ry="3" style="stroke: #038048; stroke-width: 1.0;"/><text fill="#000000" font-family="sans-serif" font-size="11" lengthAdjust="spacingAndGlyphs" textLength="115" x="212.5" y="536.7227">override requiresDS()</text><ellipse cx="203.5" cy="547.0205" fill="#84BE84" rx="3" ry="3" style="stroke: #038048; stroke-width: 1.0;"/><text fill="#000000" font-family="sans-serif" font-size="11" lengthAdjust="spacingAndGlyphs" textLength="109" x="212.5" y="549.6777">override run(inputs)</text><rect fill="#FEFECE" filter="url(#f1)" height="45.0879" style="stroke: #A80036; stroke-width: 1.5;" width="204" x="57" y="367"/><text fill="#000000" font-family="sans-serif" font-size="12" lengthAdjust="spacingAndGlyphs" textLength="74" x="122" y="383.6016">ExampleApp</text><line style="stroke: #A80036; stroke-width: 1.5;" x1="58" x2="260" y1="391.1328" y2="391.1328"/><ellipse cx="68" cy="403.1104" fill="#84BE84" rx="3" ry="3" style="stroke: #038048; stroke-width: 1.0;"/><text fill="#000000" font-family="sans-serif" font-size="11" lengthAdjust="spacingAndGlyphs" textLength="178" x="77" y="405.7676">getModulePackages(): Seq[String]</text><path d="M568.129,188.164 C569.676,205.125 571.215,221.995 572.442,235.457 " fill="none" style="stroke: #A80036; stroke-width: 1.0;"/><polygon fill="none" points="561.138,188.585,566.293,168.032,575.081,187.313,561.138,188.585" style="stroke: #A80036; stroke-width: 1.0;"/><path d="M471.874,180.52 C447.613,199.716 422.691,219.435 403.232,234.832 " fill="none" style="stroke: #A80036; stroke-width: 1.0;"/><polygon fill="none" points="467.629,174.952,487.657,168.032,476.316,185.931,467.629,174.952" style="stroke: #A80036; stroke-width: 1.0;"/><path d="M434.581,109 C441.846,109 449.112,109 456.377,109 " fill="none" style="stroke: #A80036; stroke-width: 1.0;"/><polygon fill="#A80036" points="421.503,109,427.503,113,433.503,109,427.503,105,421.503,109" style="stroke: #A80036; stroke-width: 1.0;"/><text fill="#000000" font-family="sans-serif" font-size="13" lengthAdjust="spacingAndGlyphs" textLength="6" x="442.4734" y="106.034">*</text><path d="M367,314.434 C367,327.674 367,341.727 367,353.992 " fill="none" style="stroke: #A80036; stroke-width: 1.0;"/><polygon fill="none" points="360,314.028,367,294.028,374,314.028,360,314.028" style="stroke: #A80036; stroke-width: 1.0;"/><path d="M440.613,307.534 C446.307,313.377 451.278,319.859 455,327 C475.129,365.625 478.015,388.021 455,425 C428.596,467.424 376.938,491.3551 333.851,504.5146 " fill="none" style="stroke: #A80036; stroke-width: 1.0;"/><polygon fill="none" points="435.856,312.675,425.272,294.318,444.993,302.068,435.856,312.675" style="stroke: #A80036; stroke-width: 1.0;"/><path d="M253.613,193.317 C224.534,253.306 187.403,329.905 169.537,366.763 " fill="none" style="stroke: #A80036; stroke-width: 1.0;"/><polygon fill="none" points="247.326,190.24,262.348,175.296,259.924,196.346,247.326,190.24" style="stroke: #A80036; stroke-width: 1.0;"/><path d="M291.24,389.5 C281.285,389.5 271.33,389.5 261.375,389.5 " fill="none" style="stroke: #A80036; stroke-width: 1.0; stroke-dasharray: 7.0,7.0;"/><polygon fill="#A80036" points="296.446,389.5,287.446,385.5,291.446,389.5,287.446,393.5,296.446,389.5" style="stroke: #A80036; stroke-width: 1.0;"/><path d="M176.407,412.092 C191.486,430.795 213.668,458.309 231.805,480.8064 " fill="none" style="stroke: #A80036; stroke-width: 1.0; stroke-dasharray: 7.0,7.0;"/><polygon fill="#A80036" points="235.142,484.9456,232.606,475.4288,232.0033,481.0535,226.3786,480.4507,235.142,484.9456" style="stroke: #A80036; stroke-width: 1.0;"/></g></svg>