<?xml version="1.0" encoding="UTF-8" standalone="yes"?><svg xmlns="http://www.w3.org/2000/svg" xmlns:xlink="http://www.w3.org/1999/xlink" height="730pt" style="width:863px;height:730px;" version="1.1" viewBox="0 0 863 730" width="863pt"><defs><filter height="300%" id="f1" width="300%" x="-1" y="-1"><feGaussianBlur result="blurOut" stdDeviation="2.0"/><feColorMatrix in="blurOut" result="blurOut2" type="matrix" values="0 0 0 0 0 0 0 0 0 0 0 0 0 0 0 0 0 0 .4 0"/><feOffset dx="4.0" dy="4.0" in="blurOut2" result="blurOut3"/><feBlend in="SourceGraphic" in2="blurOut3" mode="normal"/></filter></defs><g><polygon fill="#FFFFFF" filter="url(#f1)" points="14,16,51,16,58,38.4883,653,38.4883,653,566,14,566,14,16" style="stroke: #000000; stroke-width: 2.0;"/><line style="stroke: #000000; stroke-width: 2.0;" x1="14" x2="58" y1="38.4883" y2="38.4883"/><text fill="#000000" font-family="sans-serif" font-size="14" font-weight="bold" lengthAdjust="spacingAndGlyphs" textLength="31" x="17" y="32.5352">SMV</text><polygon fill="#FFFFFF" filter="url(#f1)" points="359,574,453,574,460,596.4883,856,596.4883,856,723,359,723,359,574" style="stroke: #000000; stroke-width: 2.0;"/><line style="stroke: #000000; stroke-width: 2.0;" x1="359" x2="460" y1="596.4883" y2="596.4883"/><text fill="#000000" font-family="sans-serif" font-size="14" font-weight="bold" lengthAdjust="spacingAndGlyphs" textLength="88" x="362" y="590.5352">ExampleApp</text><polygon fill="#FFFFFF" filter="url(#f1)" points="367,601,437,601,444,623.4883,672,623.4883,672,715,367,715,367,601" style="stroke: #000000; stroke-width: 2.0;"/><line style="stroke: #000000; stroke-width: 2.0;" x1="367" x2="444" y1="623.4883" y2="623.4883"/><text fill="#000000" font-family="sans-serif" font-size="14" font-weight="bold" lengthAdjust="spacingAndGlyphs" textLength="64" x="370" y="617.5352">AppPkg1</text><polygon fill="#FFFFFF" filter="url(#f1)" points="690,605,760,605,767,627.4883,848,627.4883,848,711,690,711,690,605" style="stroke: #000000; stroke-width: 2.0;"/><line style="stroke: #000000; stroke-width: 2.0;" x1="690" x2="767" y1="627.4883" y2="627.4883"/><text fill="#000000" font-family="sans-serif" font-size="14" font-weight="bold" lengthAdjust="spacingAndGlyphs" textLength="64" x="693" y="621.5352">AppPkg2</text><rect fill="#FEFECE" filter="url(#f1)" height="209.7266" style="stroke: #A80036; stroke-width: 1.5;" width="191" x="359.5" y="43"/><text fill="#000000" font-family="sans-serif" font-size="12" font-style="italic" lengthAdjust="spacingAndGlyphs" textLength="88" x="411" y="59.6016">&lt;&lt;Abstract&gt;&gt;</text><text fill="#000000" font-family="sans-serif" font-size="12" lengthAdjust="spacingAndGlyphs" textLength="67" x="421.5" y="73.7344">SmvDataSet</text><line style="stroke: #A80036; stroke-width: 1.5;" x1="360.5" x2="549.5" y1="81.2656" y2="81.2656"/><rect fill="none" height="6" style="stroke: #C82930; stroke-width: 1.0;" width="6" x="367.5" y="90.2432"/><text fill="#000000" font-family="sans-serif" font-size="11" lengthAdjust="spacingAndGlyphs" textLength="70" x="379.5" y="95.9004">app: SmvApp</text><ellipse cx="370.5" cy="106.1982" fill="none" rx="3" ry="3" style="stroke: #038048; stroke-width: 1.0;"/><text fill="#000000" font-family="sans-serif" font-size="11" lengthAdjust="spacingAndGlyphs" textLength="67" x="379.5" y="108.8555">name: String</text><ellipse cx="370.5" cy="119.1533" fill="none" rx="3" ry="3" style="stroke: #038048; stroke-width: 1.0;"/><text fill="#000000" font-family="sans-serif" font-size="11" lengthAdjust="spacingAndGlyphs" textLength="60" x="379.5" y="121.8105">version: Int</text><ellipse cx="370.5" cy="132.1084" fill="none" rx="3" ry="3" style="stroke: #038048; stroke-width: 1.0;"/><text fill="#000000" font-family="sans-serif" font-size="11" lengthAdjust="spacingAndGlyphs" textLength="99" x="379.5" y="134.7656">description: String</text><ellipse cx="370.5" cy="145.0635" fill="none" rx="3" ry="3" style="stroke: #038048; stroke-width: 1.0;"/><text fill="#000000" font-family="sans-serif" font-size="11" lengthAdjust="spacingAndGlyphs" textLength="98" x="379.5" y="147.7207">classCodeCRC: Int</text><ellipse cx="370.5" cy="158.0186" fill="none" rx="3" ry="3" style="stroke: #038048; stroke-width: 1.0;"/><text fill="#000000" font-family="sans-serif" font-size="11" lengthAdjust="spacingAndGlyphs" textLength="133" x="379.5" y="160.6758">validations: ValidationSet</text><ellipse cx="370.5" cy="170.9736" fill="none" rx="3" ry="3" style="stroke: #038048; stroke-width: 1.0;"/><text fill="#000000" font-family="sans-serif" font-size="11" lengthAdjust="spacingAndGlyphs" textLength="86" x="379.5" y="173.6309">hashOfHash: Int</text><ellipse cx="370.5" cy="183.9287" fill="none" rx="3" ry="3" style="stroke: #038048; stroke-width: 1.0;"/><text fill="#000000" font-family="sans-serif" font-size="11" lengthAdjust="spacingAndGlyphs" textLength="113" x="379.5" y="186.5859">isEphemeral: Boolean</text><line style="stroke: #A80036; stroke-width: 1.5;" x1="360.5" x2="549.5" y1="192.9063" y2="192.9063"/><ellipse cx="370.5" cy="204.8838" fill="#84BE84" rx="3" ry="3" style="stroke: #038048; stroke-width: 1.0;"/><text fill="#000000" font-family="sans-serif" font-size="11" font-style="italic" lengthAdjust="spacingAndGlyphs" textLength="165" x="379.5" y="207.541">requiresDS() : Seq[SmvDataSet]</text><ellipse cx="370.5" cy="217.8389" fill="#84BE84" rx="3" ry="3" style="stroke: #038048; stroke-width: 1.0;"/><text fill="#000000" font-family="sans-serif" font-size="11" font-style="italic" lengthAdjust="spacingAndGlyphs" textLength="141" x="379.5" y="220.4961">computeRDD(): DataFrame</text><ellipse cx="370.5" cy="230.7939" fill="#84BE84" rx="3" ry="3" style="stroke: #038048; stroke-width: 1.0;"/><text fill="#000000" font-family="sans-serif" font-size="11" lengthAdjust="spacingAndGlyphs" textLength="62" x="379.5" y="233.4512">rdd(): SRDD</text><ellipse cx="370.5" cy="243.749" fill="#84BE84" rx="3" ry="3" style="stroke: #038048; stroke-width: 1.0;"/><text fill="#000000" font-family="sans-serif" font-size="11" lengthAdjust="spacingAndGlyphs" textLength="157" x="379.5" y="246.4063">injectApp(app: SmvApp): Unit</text><rect fill="#FEFECE" filter="url(#f1)" height="106.0859" style="stroke: #A80036; stroke-width: 1.5;" width="202" x="214" y="313"/><text fill="#000000" font-family="sans-serif" font-size="12" font-style="italic" lengthAdjust="spacingAndGlyphs" textLength="88" x="271" y="329.6016">&lt;&lt;Abstract&gt;&gt;</text><text fill="#000000" font-family="sans-serif" font-size="12" lengthAdjust="spacingAndGlyphs" textLength="42" x="294" y="343.7344">SmvFile</text><line style="stroke: #A80036; stroke-width: 1.5;" x1="215" x2="415" y1="351.2656" y2="351.2656"/><ellipse cx="225" cy="363.2432" fill="none" rx="3" ry="3" style="stroke: #038048; stroke-width: 1.0;"/><text fill="#000000" font-family="sans-serif" font-size="11" lengthAdjust="spacingAndGlyphs" textLength="89" x="234" y="365.9004">basePath : String</text><ellipse cx="225" cy="376.1982" fill="none" rx="3" ry="3" style="stroke: #038048; stroke-width: 1.0;"/><text fill="#000000" font-family="sans-serif" font-size="11" lengthAdjust="spacingAndGlyphs" textLength="144" x="234" y="378.8555">failAtParsingError: Boolean</text><ellipse cx="225" cy="389.1533" fill="none" rx="3" ry="3" style="stroke: #038048; stroke-width: 1.0;"/><text fill="#000000" font-family="sans-serif" font-size="11" lengthAdjust="spacingAndGlyphs" textLength="176" x="234" y="391.8105">parserValidator: ParserValidation</text><line style="stroke: #A80036; stroke-width: 1.5;" x1="215" x2="415" y1="398.1309" y2="398.1309"/><ellipse cx="225" cy="410.1084" fill="#84BE84" rx="3" ry="3" style="stroke: #038048; stroke-width: 1.0;"/><text fill="#000000" font-family="sans-serif" font-size="11" lengthAdjust="spacingAndGlyphs" textLength="164" x="234" y="412.7656">run(df: DataFrame): DataFrame</text><rect fill="#FEFECE" filter="url(#f1)" height="58.043" style="stroke: #A80036; stroke-width: 1.5;" width="181" x="117.5" y="489.5"/><text fill="#000000" font-family="sans-serif" font-size="12" lengthAdjust="spacingAndGlyphs" textLength="62" x="177" y="506.1016">SmvCsvFile</text><line style="stroke: #A80036; stroke-width: 1.5;" x1="118.5" x2="297.5" y1="513.6328" y2="513.6328"/><ellipse cx="128.5" cy="525.6104" fill="none" rx="3" ry="3" style="stroke: #038048; stroke-width: 1.0;"/><text fill="#000000" font-family="sans-serif" font-size="11" lengthAdjust="spacingAndGlyphs" textLength="155" x="137.5" y="528.2676">csvAttributes : CsvAttributes</text><ellipse cx="128.5" cy="538.5654" fill="none" rx="3" ry="3" style="stroke: #038048; stroke-width: 1.0;"/><text fill="#000000" font-family="sans-serif" font-size="11" lengthAdjust="spacingAndGlyphs" textLength="102" x="137.5" y="541.2227">schemaPath: String</text><rect fill="#FEFECE" filter="url(#f1)" height="45.0879" style="stroke: #A80036; stroke-width: 1.5;" width="128" x="334" y="496"/><text fill="#000000" font-family="sans-serif" font-size="12" lengthAdjust="spacingAndGlyphs" textLength="56" x="370" y="512.6016">SmvFrlFile</text><line style="stroke: #A80036; stroke-width: 1.5;" x1="335" x2="461" y1="520.1328" y2="520.1328"/><ellipse cx="345" cy="532.1104" fill="none" rx="3" ry="3" style="stroke: #038048; stroke-width: 1.0;"/><text fill="#000000" font-family="sans-serif" font-size="11" lengthAdjust="spacingAndGlyphs" textLength="102" x="354" y="534.7676">schemaPath: String</text><rect fill="#FEFECE" filter="url(#f1)" height="59.2207" style="stroke: #A80036; stroke-width: 1.5;" width="193" x="451.5" y="336.5"/><text fill="#000000" font-family="sans-serif" font-size="12" font-style="italic" lengthAdjust="spacingAndGlyphs" textLength="88" x="504" y="353.1016">&lt;&lt;Abstract&gt;&gt;</text><text fill="#000000" font-family="sans-serif" font-size="12" lengthAdjust="spacingAndGlyphs" textLength="65" x="515.5" y="367.2344">SmvModule</text><line style="stroke: #A80036; stroke-width: 1.5;" x1="452.5" x2="643.5" y1="374.7656" y2="374.7656"/><ellipse cx="462.5" cy="386.7432" fill="#84BE84" rx="3" ry="3" style="stroke: #038048; stroke-width: 1.0;"/><text fill="#000000" font-family="sans-serif" font-size="11" font-style="italic" lengthAdjust="spacingAndGlyphs" textLength="167" x="471.5" y="389.4004">run(in: runParams) : DataFrame</text><rect fill="#FEFECE" filter="url(#f1)" height="78.998" style="stroke: #A80036; stroke-width: 1.5;" width="147" x="497.5" y="479"/><text fill="#000000" font-family="sans-serif" font-size="12" lengthAdjust="spacingAndGlyphs" textLength="70" x="536" y="495.6016">SmvCsvData</text><line style="stroke: #A80036; stroke-width: 1.5;" x1="498.5" x2="643.5" y1="503.1328" y2="503.1328"/><ellipse cx="508.5" cy="515.1104" fill="none" rx="3" ry="3" style="stroke: #038048; stroke-width: 1.0;"/><text fill="#000000" font-family="sans-serif" font-size="11" lengthAdjust="spacingAndGlyphs" textLength="94" x="517.5" y="517.7676">schemaStr: String</text><ellipse cx="508.5" cy="528.0654" fill="none" rx="3" ry="3" style="stroke: #038048; stroke-width: 1.0;"/><text fill="#000000" font-family="sans-serif" font-size="11" lengthAdjust="spacingAndGlyphs" textLength="61" x="517.5" y="530.7227">data: String</text><line style="stroke: #A80036; stroke-width: 1.5;" x1="498.5" x2="643.5" y1="537.043" y2="537.043"/><ellipse cx="508.5" cy="549.0205" fill="#84BE84" rx="3" ry="3" style="stroke: #038048; stroke-width: 1.0;"/><text fill="#000000" font-family="sans-serif" font-size="11" lengthAdjust="spacingAndGlyphs" textLength="121" x="517.5" y="551.6777">cnstr(schemaStr, data)</text><rect fill="#FEFECE" filter="url(#f1)" height="117.8633" style="stroke: #A80036; stroke-width: 1.5;" width="302" x="22" y="89"/><text fill="#000000" font-family="sans-serif" font-size="12" lengthAdjust="spacingAndGlyphs" textLength="47" x="149.5" y="105.6016">SmvApp</text><line style="stroke: #A80036; stroke-width: 1.5;" x1="23" x2="323" y1="113.1328" y2="113.1328"/><rect fill="none" height="6" style="stroke: #C82930; stroke-width: 1.0;" width="6" x="30" y="122.1104"/><text fill="#000000" font-family="sans-serif" font-size="11" lengthAdjust="spacingAndGlyphs" textLength="91" x="42" y="127.7676">sc: SparkContext</text><rect fill="none" height="6" style="stroke: #C82930; stroke-width: 1.0;" width="6" x="30" y="135.0654"/><text fill="#000000" font-family="sans-serif" font-size="11" lengthAdjust="spacingAndGlyphs" textLength="129" x="42" y="140.7227">sqlContext: SQLContext</text><rect fill="none" height="6" style="stroke: #C82930; stroke-width: 1.0;" width="6" x="30" y="148.0205"/><text fill="#000000" font-family="sans-serif" font-size="11" lengthAdjust="spacingAndGlyphs" textLength="122" x="42" y="153.6777">smvConfig: SmvConfig</text><line style="stroke: #A80036; stroke-width: 1.5;" x1="23" x2="323" y1="159.998" y2="159.998"/><ellipse cx="33" cy="171.9756" fill="#84BE84" rx="3" ry="3" style="stroke: #038048; stroke-width: 1.0;"/><text fill="#000000" font-family="sans-serif" font-size="11" lengthAdjust="spacingAndGlyphs" textLength="214" x="42" y="174.6328">resolveRDD(ds: SmvDataSet): DataFrame</text><ellipse cx="33" cy="184.9307" fill="#84BE84" rx="3" ry="3" style="stroke: #038048; stroke-width: 1.0;"/><text fill="#000000" font-family="sans-serif" font-size="11" lengthAdjust="spacingAndGlyphs" textLength="276" x="42" y="187.5879">createDF(schemaStr:String, data: String): DataFrame</text><ellipse cx="33" cy="197.8857" fill="#84BE84" rx="3" ry="3" style="stroke: #038048; stroke-width: 1.0;"/><text fill="#000000" font-family="sans-serif" font-size="11" lengthAdjust="spacingAndGlyphs" textLength="27" x="42" y="200.543">run()</text><rect fill="#FEFECE" filter="url(#f1)" height="24.1328" style="stroke: #A80036; stroke-width: 1.5;" width="66" x="68" y="354"/><text fill="#000000" font-family="sans-serif" font-size="12" lengthAdjust="spacingAndGlyphs" textLength="60" x="71" y="370.6016">SmvStages</text><rect fill="#FEFECE" filter="url(#f1)" height="24.1328" style="stroke: #A80036; stroke-width: 1.5;" width="60" x="22" y="506.5"/><text fill="#000000" font-family="sans-serif" font-size="12" lengthAdjust="spacingAndGlyphs" textLength="54" x="25" y="523.1016">SmvStage</text><rect fill="#FEFECE" filter="url(#f1)" height="70.998" style="stroke: #A80036; stroke-width: 1.5;" width="141" x="522.5" y="632"/><text fill="#000000" font-family="sans-serif" font-size="12" lengthAdjust="spacingAndGlyphs" textLength="50" x="568" y="648.6016">Module1</text><line style="stroke: #A80036; stroke-width: 1.5;" x1="523.5" x2="662.5" y1="656.1328" y2="656.1328"/><ellipse cx="533.5" cy="668.1104" fill="#84BE84" rx="3" ry="3" style="stroke: #038048; stroke-width: 1.0;"/><text fill="#000000" font-family="sans-serif" font-size="11" lengthAdjust="spacingAndGlyphs" textLength="96" x="542.5" y="670.7676">override version()</text><ellipse cx="533.5" cy="681.0654" fill="#84BE84" rx="3" ry="3" style="stroke: #038048; stroke-width: 1.0;"/><text fill="#000000" font-family="sans-serif" font-size="11" lengthAdjust="spacingAndGlyphs" textLength="115" x="542.5" y="683.7227">override requiresDS()</text><ellipse cx="533.5" cy="694.0205" fill="#84BE84" rx="3" ry="3" style="stroke: #038048; stroke-width: 1.0;"/><text fill="#000000" font-family="sans-serif" font-size="11" lengthAdjust="spacingAndGlyphs" textLength="109" x="542.5" y="696.6777">override run(inputs)</text><rect fill="#FEFECE" filter="url(#f1)" height="78.998" style="stroke: #A80036; stroke-width: 1.5;" width="112" x="375" y="628"/><text fill="#000000" font-family="sans-serif" font-size="12" lengthAdjust="spacingAndGlyphs" textLength="27" x="417.5" y="644.6016">File1</text><line style="stroke: #A80036; stroke-width: 1.5;" x1="376" x2="486" y1="652.1328" y2="652.1328"/><ellipse cx="386" cy="664.1104" fill="none" rx="3" ry="3" style="stroke: #038048; stroke-width: 1.0;"/><text fill="#000000" font-family="sans-serif" font-size="11" lengthAdjust="spacingAndGlyphs" textLength="48" x="395" y="666.7676">basePath</text><ellipse cx="386" cy="677.0654" fill="none" rx="3" ry="3" style="stroke: #038048; stroke-width: 1.0;"/><text fill="#000000" font-family="sans-serif" font-size="11" lengthAdjust="spacingAndGlyphs" textLength="72" x="395" y="679.7227">csvAttributes</text><line style="stroke: #A80036; stroke-width: 1.5;" x1="376" x2="486" y1="686.043" y2="686.043"/><ellipse cx="386" cy="698.0205" fill="#84BE84" rx="3" ry="3" style="stroke: #038048; stroke-width: 1.0;"/><text fill="#000000" font-family="sans-serif" font-size="11" lengthAdjust="spacingAndGlyphs" textLength="86" x="395" y="700.6777">override run(df)</text><rect fill="#FEFECE" filter="url(#f1)" height="70.998" style="stroke: #A80036; stroke-width: 1.5;" width="141" x="698.5" y="632"/><text fill="#000000" font-family="sans-serif" font-size="12" lengthAdjust="spacingAndGlyphs" textLength="50" x="744" y="648.6016">Module2</text><line style="stroke: #A80036; stroke-width: 1.5;" x1="699.5" x2="838.5" y1="656.1328" y2="656.1328"/><ellipse cx="709.5" cy="668.1104" fill="#84BE84" rx="3" ry="3" style="stroke: #038048; stroke-width: 1.0;"/><text fill="#000000" font-family="sans-serif" font-size="11" lengthAdjust="spacingAndGlyphs" textLength="96" x="718.5" y="670.7676">override version()</text><ellipse cx="709.5" cy="681.0654" fill="#84BE84" rx="3" ry="3" style="stroke: #038048; stroke-width: 1.0;"/><text fill="#000000" font-family="sans-serif" font-size="11" lengthAdjust="spacingAndGlyphs" textLength="115" x="718.5" y="683.7227">override requiresDS()</text><ellipse cx="709.5" cy="694.0205" fill="#84BE84" rx="3" ry="3" style="stroke: #038048; stroke-width: 1.0;"/><text fill="#000000" font-family="sans-serif" font-size="11" lengthAdjust="spacingAndGlyphs" textLength="109" x="718.5" y="696.6777">override run(inputs)</text><path d="M376.461,270.175 C366.766,285.132 357.293,299.748 348.801,312.85 " fill="none" style="stroke: #A80036; stroke-width: 1.0;"/><polygon fill="none" points="370.708,266.18,387.46,253.204,382.457,273.794,370.708,266.18" style="stroke: #A80036; stroke-width: 1.0;"/><path d="M266.193,435.649 C252.68,454.656 238.765,474.228 227.931,489.466 " fill="none" style="stroke: #A80036; stroke-width: 1.0;"/><polygon fill="none" points="260.583,431.459,277.877,419.215,271.993,439.572,260.583,431.459" style="stroke: #A80036; stroke-width: 1.0;"/><path d="M353.566,436.93 C365.387,458.365 377.527,480.377 386.124,495.966 " fill="none" style="stroke: #A80036; stroke-width: 1.0;"/><polygon fill="none" points="347.325,440.109,343.796,419.215,359.585,433.348,347.325,440.109" style="stroke: #A80036; stroke-width: 1.0;"/><path d="M507.89,271.842 C518.319,296.064 528.311,319.271 535.713,336.463 " fill="none" style="stroke: #A80036; stroke-width: 1.0;"/><polygon fill="none" points="501.345,274.342,499.866,253.204,514.204,268.805,501.345,274.342" style="stroke: #A80036; stroke-width: 1.0;"/><path d="M555.434,415.642 C558.569,436.16 562.168,459.708 565.115,478.991 " fill="none" style="stroke: #A80036; stroke-width: 1.0;"/><polygon fill="none" points="548.482,416.49,552.38,395.662,562.321,414.375,548.482,416.49" style="stroke: #A80036; stroke-width: 1.0;"/><path d="M337.411,148 C344.756,148 352.102,148 359.447,148 " fill="none" style="stroke: #A80036; stroke-width: 1.0;"/><polygon fill="#A80036" points="324.189,148,330.189,152,336.189,148,330.189,144,324.189,148" style="stroke: #A80036; stroke-width: 1.0;"/><text fill="#000000" font-family="sans-serif" font-size="13" lengthAdjust="spacingAndGlyphs" textLength="6" x="345.5936" y="144.994">*</text><path d="M149.459,219.622 C133.186,268.443 113.037,328.888 104.789,353.633 " fill="none" style="stroke: #A80036; stroke-width: 1.0;"/><polygon fill="#A80036" points="153.611,207.168,147.9187,211.595,149.8159,218.5521,155.5081,214.1251,153.611,207.168" style="stroke: #A80036; stroke-width: 1.0;"/><text fill="#000000" font-family="sans-serif" font-size="13" lengthAdjust="spacingAndGlyphs" textLength="8" x="96.702" y="343.0429">1</text><path d="M93.2746,390.728 C82.5264,423.74 63.493,482.2 55.5925,506.466 " fill="none" style="stroke: #A80036; stroke-width: 1.0;"/><polygon fill="#A80036" points="97.317,378.312,91.6561,382.779,93.6022,389.7225,99.2631,385.2555,97.317,378.312" style="stroke: #A80036; stroke-width: 1.0;"/><text fill="#000000" font-family="sans-serif" font-size="13" lengthAdjust="spacingAndGlyphs" textLength="6" x="49.8517" y="495.5271">*</text><path d="M606.734,408.401 C628.38,427.193 650.429,451.411 662,479 C676.955,514.658 673.457,529.07 662,566 C654.537,590.055 639.103,613.462 624.721,631.626 " fill="none" style="stroke: #A80036; stroke-width: 1.0;"/><polygon fill="none" points="602.255,413.781,591.198,395.706,611.114,402.941,602.255,413.781" style="stroke: #A80036; stroke-width: 1.0;"/><path d="M267.813,558.929 C301.086,580.862 342.245,607.993 374.903,629.521 " fill="none" style="stroke: #A80036; stroke-width: 1.0;"/><polygon fill="none" points="263.579,564.521,250.733,547.669,271.284,552.832,263.579,564.521" style="stroke: #A80036; stroke-width: 1.0;"/><path d="M613.594,407.01 C640.69,426.113 670.681,450.939 692,479 C727.765,526.074 749.749,592.113 760.638,631.9523 " fill="none" style="stroke: #A80036; stroke-width: 1.0;"/><polygon fill="none" points="609.385,412.614,596.764,395.593,617.245,401.028,609.385,412.614" style="stroke: #A80036; stroke-width: 1.0;"/></g></svg>