<?xml version="1.0" encoding="UTF-8" standalone="yes"?><svg xmlns="http://www.w3.org/2000/svg" xmlns:xlink="http://www.w3.org/1999/xlink" height="820pt" style="width:1071px;height:820px;" version="1.1" viewBox="0 0 1071 820" width="1071pt"><defs><filter height="300%" id="f1" width="300%" x="-1" y="-1"><feGaussianBlur result="blurOut" stdDeviation="2.0"/><feColorMatrix in="blurOut" result="blurOut2" type="matrix" values="0 0 0 0 0 0 0 0 0 0 0 0 0 0 0 0 0 0 .4 0"/><feOffset dx="4.0" dy="4.0" in="blurOut2" result="blurOut3"/><feBlend in="SourceGraphic" in2="blurOut3" mode="normal"/></filter></defs><g><polygon fill="#FFFFFF" filter="url(#f1)" points="14,16,51,16,58,38.4883,559,38.4883,559,805,14,805,14,16" style="stroke: #000000; stroke-width: 2.0;"/><line style="stroke: #000000; stroke-width: 2.0;" x1="14" x2="58" y1="38.4883" y2="38.4883"/><text fill="#000000" font-family="sans-serif" font-size="14" font-weight="bold" lengthAdjust="spacingAndGlyphs" textLength="31" x="17" y="32.5352">SMV</text><polygon fill="#FFFFFF" filter="url(#f1)" points="567,664,661,664,668,686.4883,1064,686.4883,1064,813,567,813,567,664" style="stroke: #000000; stroke-width: 2.0;"/><line style="stroke: #000000; stroke-width: 2.0;" x1="567" x2="668" y1="686.4883" y2="686.4883"/><text fill="#000000" font-family="sans-serif" font-size="14" font-weight="bold" lengthAdjust="spacingAndGlyphs" textLength="88" x="570" y="680.5352">ExampleApp</text><polygon fill="#FFFFFF" filter="url(#f1)" points="751,691,821,691,828,713.4883,1056,713.4883,1056,805,751,805,751,691" style="stroke: #000000; stroke-width: 2.0;"/><line style="stroke: #000000; stroke-width: 2.0;" x1="751" x2="828" y1="713.4883" y2="713.4883"/><text fill="#000000" font-family="sans-serif" font-size="14" font-weight="bold" lengthAdjust="spacingAndGlyphs" textLength="64" x="754" y="707.5352">AppPkg1</text><polygon fill="#FFFFFF" filter="url(#f1)" points="575,695,645,695,652,717.4883,733,717.4883,733,801,575,801,575,695" style="stroke: #000000; stroke-width: 2.0;"/><line style="stroke: #000000; stroke-width: 2.0;" x1="575" x2="652" y1="717.4883" y2="717.4883"/><text fill="#000000" font-family="sans-serif" font-size="14" font-weight="bold" lengthAdjust="spacingAndGlyphs" textLength="64" x="578" y="711.5352">AppPkg2</text><rect fill="#FEFECE" filter="url(#f1)" height="209.7266" style="stroke: #A80036; stroke-width: 1.5;" width="191" x="359.5" y="43"/><text fill="#000000" font-family="sans-serif" font-size="12" font-style="italic" lengthAdjust="spacingAndGlyphs" textLength="88" x="411" y="59.6016">&lt;&lt;Abstract&gt;&gt;</text><text fill="#000000" font-family="sans-serif" font-size="12" lengthAdjust="spacingAndGlyphs" textLength="67" x="421.5" y="73.7344">SmvDataSet</text><line style="stroke: #A80036; stroke-width: 1.5;" x1="360.5" x2="549.5" y1="81.2656" y2="81.2656"/><rect fill="none" height="6" style="stroke: #C82930; stroke-width: 1.0;" width="6" x="367.5" y="90.2432"/><text fill="#000000" font-family="sans-serif" font-size="11" lengthAdjust="spacingAndGlyphs" textLength="70" x="379.5" y="95.9004">app: SmvApp</text><ellipse cx="370.5" cy="106.1982" fill="none" rx="3" ry="3" style="stroke: #038048; stroke-width: 1.0;"/><text fill="#000000" font-family="sans-serif" font-size="11" lengthAdjust="spacingAndGlyphs" textLength="67" x="379.5" y="108.8555">name: String</text><ellipse cx="370.5" cy="119.1533" fill="none" rx="3" ry="3" style="stroke: #038048; stroke-width: 1.0;"/><text fill="#000000" font-family="sans-serif" font-size="11" lengthAdjust="spacingAndGlyphs" textLength="60" x="379.5" y="121.8105">version: Int</text><ellipse cx="370.5" cy="132.1084" fill="none" rx="3" ry="3" style="stroke: #038048; stroke-width: 1.0;"/><text fill="#000000" font-family="sans-serif" font-size="11" lengthAdjust="spacingAndGlyphs" textLength="99" x="379.5" y="134.7656">description: String</text><ellipse cx="370.5" cy="145.0635" fill="none" rx="3" ry="3" style="stroke: #038048; stroke-width: 1.0;"/><text fill="#000000" font-family="sans-serif" font-size="11" lengthAdjust="spacingAndGlyphs" textLength="98" x="379.5" y="147.7207">classCodeCRC: Int</text><ellipse cx="370.5" cy="158.0186" fill="none" rx="3" ry="3" style="stroke: #038048; stroke-width: 1.0;"/><text fill="#000000" font-family="sans-serif" font-size="11" lengthAdjust="spacingAndGlyphs" textLength="133" x="379.5" y="160.6758">validations: ValidationSet</text><ellipse cx="370.5" cy="170.9736" fill="none" rx="3" ry="3" style="stroke: #038048; stroke-width: 1.0;"/><text fill="#000000" font-family="sans-serif" font-size="11" lengthAdjust="spacingAndGlyphs" textLength="86" x="379.5" y="173.6309">hashOfHash: Int</text><ellipse cx="370.5" cy="183.9287" fill="none" rx="3" ry="3" style="stroke: #038048; stroke-width: 1.0;"/><text fill="#000000" font-family="sans-serif" font-size="11" lengthAdjust="spacingAndGlyphs" textLength="113" x="379.5" y="186.5859">isEphemeral: Boolean</text><line style="stroke: #A80036; stroke-width: 1.5;" x1="360.5" x2="549.5" y1="192.9063" y2="192.9063"/><ellipse cx="370.5" cy="204.8838" fill="#84BE84" rx="3" ry="3" style="stroke: #038048; stroke-width: 1.0;"/><text fill="#000000" font-family="sans-serif" font-size="11" font-style="italic" lengthAdjust="spacingAndGlyphs" textLength="165" x="379.5" y="207.541">requiresDS() : Seq[SmvDataSet]</text><ellipse cx="370.5" cy="217.8389" fill="#84BE84" rx="3" ry="3" style="stroke: #038048; stroke-width: 1.0;"/><text fill="#000000" font-family="sans-serif" font-size="11" font-style="italic" lengthAdjust="spacingAndGlyphs" textLength="141" x="379.5" y="220.4961">computeRDD(): DataFrame</text><ellipse cx="370.5" cy="230.7939" fill="#84BE84" rx="3" ry="3" style="stroke: #038048; stroke-width: 1.0;"/><text fill="#000000" font-family="sans-serif" font-size="11" lengthAdjust="spacingAndGlyphs" textLength="62" x="379.5" y="233.4512">rdd(): SRDD</text><ellipse cx="370.5" cy="243.749" fill="#84BE84" rx="3" ry="3" style="stroke: #038048; stroke-width: 1.0;"/><text fill="#000000" font-family="sans-serif" font-size="11" lengthAdjust="spacingAndGlyphs" textLength="157" x="379.5" y="246.4063">injectApp(app: SmvApp): Unit</text><rect fill="#FEFECE" filter="url(#f1)" height="106.0859" style="stroke: #A80036; stroke-width: 1.5;" width="202" x="349" y="313"/><text fill="#000000" font-family="sans-serif" font-size="12" font-style="italic" lengthAdjust="spacingAndGlyphs" textLength="88" x="406" y="329.6016">&lt;&lt;Abstract&gt;&gt;</text><text fill="#000000" font-family="sans-serif" font-size="12" lengthAdjust="spacingAndGlyphs" textLength="42" x="429" y="343.7344">SmvFile</text><line style="stroke: #A80036; stroke-width: 1.5;" x1="350" x2="550" y1="351.2656" y2="351.2656"/><ellipse cx="360" cy="363.2432" fill="none" rx="3" ry="3" style="stroke: #038048; stroke-width: 1.0;"/><text fill="#000000" font-family="sans-serif" font-size="11" lengthAdjust="spacingAndGlyphs" textLength="89" x="369" y="365.9004">basePath : String</text><ellipse cx="360" cy="376.1982" fill="none" rx="3" ry="3" style="stroke: #038048; stroke-width: 1.0;"/><text fill="#000000" font-family="sans-serif" font-size="11" lengthAdjust="spacingAndGlyphs" textLength="144" x="369" y="378.8555">failAtParsingError: Boolean</text><ellipse cx="360" cy="389.1533" fill="none" rx="3" ry="3" style="stroke: #038048; stroke-width: 1.0;"/><text fill="#000000" font-family="sans-serif" font-size="11" lengthAdjust="spacingAndGlyphs" textLength="176" x="369" y="391.8105">parserValidator: ParserValidation</text><line style="stroke: #A80036; stroke-width: 1.5;" x1="350" x2="550" y1="398.1309" y2="398.1309"/><ellipse cx="360" cy="410.1084" fill="#84BE84" rx="3" ry="3" style="stroke: #038048; stroke-width: 1.0;"/><text fill="#000000" font-family="sans-serif" font-size="11" lengthAdjust="spacingAndGlyphs" textLength="164" x="369" y="412.7656">run(df: DataFrame): DataFrame</text><rect fill="#FEFECE" filter="url(#f1)" height="58.043" style="stroke: #A80036; stroke-width: 1.5;" width="181" x="206.5" y="479"/><text fill="#000000" font-family="sans-serif" font-size="12" lengthAdjust="spacingAndGlyphs" textLength="62" x="266" y="495.6016">SmvCsvFile</text><line style="stroke: #A80036; stroke-width: 1.5;" x1="207.5" x2="386.5" y1="503.1328" y2="503.1328"/><ellipse cx="217.5" cy="515.1104" fill="none" rx="3" ry="3" style="stroke: #038048; stroke-width: 1.0;"/><text fill="#000000" font-family="sans-serif" font-size="11" lengthAdjust="spacingAndGlyphs" textLength="155" x="226.5" y="517.7676">csvAttributes : CsvAttributes</text><ellipse cx="217.5" cy="528.0654" fill="none" rx="3" ry="3" style="stroke: #038048; stroke-width: 1.0;"/><text fill="#000000" font-family="sans-serif" font-size="11" lengthAdjust="spacingAndGlyphs" textLength="102" x="226.5" y="530.7227">schemaPath: String</text><rect fill="#FEFECE" filter="url(#f1)" height="45.0879" style="stroke: #A80036; stroke-width: 1.5;" width="128" x="423" y="485.5"/><text fill="#000000" font-family="sans-serif" font-size="12" lengthAdjust="spacingAndGlyphs" textLength="56" x="459" y="502.1016">SmvFrlFile</text><line style="stroke: #A80036; stroke-width: 1.5;" x1="424" x2="550" y1="509.6328" y2="509.6328"/><ellipse cx="434" cy="521.6104" fill="none" rx="3" ry="3" style="stroke: #038048; stroke-width: 1.0;"/><text fill="#000000" font-family="sans-serif" font-size="11" lengthAdjust="spacingAndGlyphs" textLength="102" x="443" y="524.2676">schemaPath: String</text><rect fill="#FEFECE" filter="url(#f1)" height="59.2207" style="stroke: #A80036; stroke-width: 1.5;" width="193" x="215.5" y="597"/><text fill="#000000" font-family="sans-serif" font-size="12" font-style="italic" lengthAdjust="spacingAndGlyphs" textLength="88" x="268" y="613.6016">&lt;&lt;Abstract&gt;&gt;</text><text fill="#000000" font-family="sans-serif" font-size="12" lengthAdjust="spacingAndGlyphs" textLength="65" x="279.5" y="627.7344">SmvModule</text><line style="stroke: #A80036; stroke-width: 1.5;" x1="216.5" x2="407.5" y1="635.2656" y2="635.2656"/><ellipse cx="226.5" cy="647.2432" fill="#84BE84" rx="3" ry="3" style="stroke: #038048; stroke-width: 1.0;"/><text fill="#000000" font-family="sans-serif" font-size="11" font-style="italic" lengthAdjust="spacingAndGlyphs" textLength="167" x="235.5" y="649.9004">run(in: runParams) : DataFrame</text><rect fill="#FEFECE" filter="url(#f1)" height="78.998" style="stroke: #A80036; stroke-width: 1.5;" width="147" x="238.5" y="718"/><text fill="#000000" font-family="sans-serif" font-size="12" lengthAdjust="spacingAndGlyphs" textLength="102" x="261" y="734.6016">SmvCsvStringData</text><line style="stroke: #A80036; stroke-width: 1.5;" x1="239.5" x2="384.5" y1="742.1328" y2="742.1328"/><ellipse cx="249.5" cy="754.1104" fill="none" rx="3" ry="3" style="stroke: #038048; stroke-width: 1.0;"/><text fill="#000000" font-family="sans-serif" font-size="11" lengthAdjust="spacingAndGlyphs" textLength="94" x="258.5" y="756.7676">schemaStr: String</text><ellipse cx="249.5" cy="767.0654" fill="none" rx="3" ry="3" style="stroke: #038048; stroke-width: 1.0;"/><text fill="#000000" font-family="sans-serif" font-size="11" lengthAdjust="spacingAndGlyphs" textLength="61" x="258.5" y="769.7227">data: String</text><line style="stroke: #A80036; stroke-width: 1.5;" x1="239.5" x2="384.5" y1="776.043" y2="776.043"/><ellipse cx="249.5" cy="788.0205" fill="#84BE84" rx="3" ry="3" style="stroke: #038048; stroke-width: 1.0;"/><text fill="#000000" font-family="sans-serif" font-size="11" lengthAdjust="spacingAndGlyphs" textLength="121" x="258.5" y="790.6777">cnstr(schemaStr, data)</text><rect fill="#FEFECE" filter="url(#f1)" height="117.8633" style="stroke: #A80036; stroke-width: 1.5;" width="302" x="22" y="89"/><text fill="#000000" font-family="sans-serif" font-size="12" lengthAdjust="spacingAndGlyphs" textLength="47" x="149.5" y="105.6016">SmvApp</text><line style="stroke: #A80036; stroke-width: 1.5;" x1="23" x2="323" y1="113.1328" y2="113.1328"/><rect fill="none" height="6" style="stroke: #C82930; stroke-width: 1.0;" width="6" x="30" y="122.1104"/><text fill="#000000" font-family="sans-serif" font-size="11" lengthAdjust="spacingAndGlyphs" textLength="91" x="42" y="127.7676">sc: SparkContext</text><rect fill="none" height="6" style="stroke: #C82930; stroke-width: 1.0;" width="6" x="30" y="135.0654"/><text fill="#000000" font-family="sans-serif" font-size="11" lengthAdjust="spacingAndGlyphs" textLength="129" x="42" y="140.7227">sqlContext: SQLContext</text><rect fill="none" height="6" style="stroke: #C82930; stroke-width: 1.0;" width="6" x="30" y="148.0205"/><text fill="#000000" font-family="sans-serif" font-size="11" lengthAdjust="spacingAndGlyphs" textLength="122" x="42" y="153.6777">smvConfig: SmvConfig</text><line style="stroke: #A80036; stroke-width: 1.5;" x1="23" x2="323" y1="159.998" y2="159.998"/><ellipse cx="33" cy="171.9756" fill="#84BE84" rx="3" ry="3" style="stroke: #038048; stroke-width: 1.0;"/><text fill="#000000" font-family="sans-serif" font-size="11" lengthAdjust="spacingAndGlyphs" textLength="214" x="42" y="174.6328">resolveRDD(ds: SmvDataSet): DataFrame</text><ellipse cx="33" cy="184.9307" fill="#84BE84" rx="3" ry="3" style="stroke: #038048; stroke-width: 1.0;"/><text fill="#000000" font-family="sans-serif" font-size="11" lengthAdjust="spacingAndGlyphs" textLength="276" x="42" y="187.5879">createDF(schemaStr:String, data: String): DataFrame</text><ellipse cx="33" cy="197.8857" fill="#84BE84" rx="3" ry="3" style="stroke: #038048; stroke-width: 1.0;"/><text fill="#000000" font-family="sans-serif" font-size="11" lengthAdjust="spacingAndGlyphs" textLength="27" x="42" y="200.543">run()</text><rect fill="#FEFECE" filter="url(#f1)" height="24.1328" style="stroke: #A80036; stroke-width: 1.5;" width="66" x="68" y="354"/><text fill="#000000" font-family="sans-serif" font-size="12" lengthAdjust="spacingAndGlyphs" textLength="60" x="71" y="370.6016">SmvStages</text><rect fill="#FEFECE" filter="url(#f1)" height="24.1328" style="stroke: #A80036; stroke-width: 1.5;" width="60" x="72" y="496"/><text fill="#000000" font-family="sans-serif" font-size="12" lengthAdjust="spacingAndGlyphs" textLength="54" x="75" y="512.6016">SmvStage</text><rect fill="#FEFECE" filter="url(#f1)" height="70.998" style="stroke: #A80036; stroke-width: 1.5;" width="141" x="759.5" y="722"/><text fill="#000000" font-family="sans-serif" font-size="12" lengthAdjust="spacingAndGlyphs" textLength="50" x="805" y="738.6016">Module1</text><line style="stroke: #A80036; stroke-width: 1.5;" x1="760.5" x2="899.5" y1="746.1328" y2="746.1328"/><ellipse cx="770.5" cy="758.1104" fill="#84BE84" rx="3" ry="3" style="stroke: #038048; stroke-width: 1.0;"/><text fill="#000000" font-family="sans-serif" font-size="11" lengthAdjust="spacingAndGlyphs" textLength="96" x="779.5" y="760.7676">override version()</text><ellipse cx="770.5" cy="771.0654" fill="#84BE84" rx="3" ry="3" style="stroke: #038048; stroke-width: 1.0;"/><text fill="#000000" font-family="sans-serif" font-size="11" lengthAdjust="spacingAndGlyphs" textLength="115" x="779.5" y="773.7227">override requiresDS()</text><ellipse cx="770.5" cy="784.0205" fill="#84BE84" rx="3" ry="3" style="stroke: #038048; stroke-width: 1.0;"/><text fill="#000000" font-family="sans-serif" font-size="11" lengthAdjust="spacingAndGlyphs" textLength="109" x="779.5" y="786.6777">override run(inputs)</text><rect fill="#FEFECE" filter="url(#f1)" height="78.998" style="stroke: #A80036; stroke-width: 1.5;" width="112" x="936" y="718"/><text fill="#000000" font-family="sans-serif" font-size="12" lengthAdjust="spacingAndGlyphs" textLength="27" x="978.5" y="734.6016">File1</text><line style="stroke: #A80036; stroke-width: 1.5;" x1="937" x2="1047" y1="742.1328" y2="742.1328"/><ellipse cx="947" cy="754.1104" fill="none" rx="3" ry="3" style="stroke: #038048; stroke-width: 1.0;"/><text fill="#000000" font-family="sans-serif" font-size="11" lengthAdjust="spacingAndGlyphs" textLength="48" x="956" y="756.7676">basePath</text><ellipse cx="947" cy="767.0654" fill="none" rx="3" ry="3" style="stroke: #038048; stroke-width: 1.0;"/><text fill="#000000" font-family="sans-serif" font-size="11" lengthAdjust="spacingAndGlyphs" textLength="72" x="956" y="769.7227">csvAttributes</text><line style="stroke: #A80036; stroke-width: 1.5;" x1="937" x2="1047" y1="776.043" y2="776.043"/><ellipse cx="947" cy="788.0205" fill="#84BE84" rx="3" ry="3" style="stroke: #038048; stroke-width: 1.0;"/><text fill="#000000" font-family="sans-serif" font-size="11" lengthAdjust="spacingAndGlyphs" textLength="86" x="956" y="790.6777">override run(df)</text><rect fill="#FEFECE" filter="url(#f1)" height="70.998" style="stroke: #A80036; stroke-width: 1.5;" width="141" x="583.5" y="722"/><text fill="#000000" font-family="sans-serif" font-size="12" lengthAdjust="spacingAndGlyphs" textLength="50" x="629" y="738.6016">Module2</text><line style="stroke: #A80036; stroke-width: 1.5;" x1="584.5" x2="723.5" y1="746.1328" y2="746.1328"/><ellipse cx="594.5" cy="758.1104" fill="#84BE84" rx="3" ry="3" style="stroke: #038048; stroke-width: 1.0;"/><text fill="#000000" font-family="sans-serif" font-size="11" lengthAdjust="spacingAndGlyphs" textLength="96" x="603.5" y="760.7676">override version()</text><ellipse cx="594.5" cy="771.0654" fill="#84BE84" rx="3" ry="3" style="stroke: #038048; stroke-width: 1.0;"/><text fill="#000000" font-family="sans-serif" font-size="11" lengthAdjust="spacingAndGlyphs" textLength="115" x="603.5" y="773.7227">override requiresDS()</text><ellipse cx="594.5" cy="784.0205" fill="#84BE84" rx="3" ry="3" style="stroke: #038048; stroke-width: 1.0;"/><text fill="#000000" font-family="sans-serif" font-size="11" lengthAdjust="spacingAndGlyphs" textLength="109" x="603.5" y="786.6777">override run(inputs)</text><path d="M452.117,273.546 C451.798,287.324 451.488,300.734 451.207,312.85 " fill="none" style="stroke: #A80036; stroke-width: 1.0;"/><polygon fill="none" points="445.127,273.036,452.588,253.204,459.123,273.36,445.127,273.036" style="stroke: #A80036; stroke-width: 1.0;"/><path d="M378.016,432.868 C360.349,449.033 342.36,465.494 327.835,478.785 " fill="none" style="stroke: #A80036; stroke-width: 1.0;"/><polygon fill="none" points="373.548,427.468,393.028,419.131,382.999,437.797,373.548,427.468" style="stroke: #A80036; stroke-width: 1.0;"/><path d="M468.909,438.549 C473.407,455.565 477.871,472.459 481.24,485.207 " fill="none" style="stroke: #A80036; stroke-width: 1.0;"/><polygon fill="none" points="462.12,440.256,463.777,419.131,475.655,436.678,462.12,440.256" style="stroke: #A80036; stroke-width: 1.0;"/><path d="M345.944,266.864 C280.07,341.155 205.694,431.689 189,479 C180.423,503.309 177.244,514.059 189,537 C202.137,562.636 226.539,582.533 250.167,596.91 " fill="none" style="stroke: #A80036; stroke-width: 1.0;"/><polygon fill="none" points="340.879,262.026,359.416,251.761,351.327,271.345,340.879,262.026" style="stroke: #A80036; stroke-width: 1.0;"/><path d="M312,676.387 C312,690.041 312,704.688 312,717.675 " fill="none" style="stroke: #A80036; stroke-width: 1.0;"/><polygon fill="none" points="305,676.129,312,656.129,319,676.129,305,676.129" style="stroke: #A80036; stroke-width: 1.0;"/><path d="M337.411,148 C344.756,148 352.102,148 359.447,148 " fill="none" style="stroke: #A80036; stroke-width: 1.0;"/><polygon fill="#A80036" points="324.189,148,330.189,152,336.189,148,330.189,144,324.189,148" style="stroke: #A80036; stroke-width: 1.0;"/><text fill="#000000" font-family="sans-serif" font-size="13" lengthAdjust="spacingAndGlyphs" textLength="6" x="345.5936" y="144.994">*</text><path d="M149.459,219.622 C133.186,268.443 113.037,328.888 104.789,353.633 " fill="none" style="stroke: #A80036; stroke-width: 1.0;"/><polygon fill="#A80036" points="153.611,207.168,147.9187,211.595,149.8159,218.5521,155.5081,214.1251,153.611,207.168" style="stroke: #A80036; stroke-width: 1.0;"/><text fill="#000000" font-family="sans-serif" font-size="13" lengthAdjust="spacingAndGlyphs" textLength="8" x="96.702" y="343.0429">1</text><path d="M101.1761,391.651 C101.395,422.296 101.7593,473.299 101.9198,495.776 " fill="none" style="stroke: #A80036; stroke-width: 1.0;"/><polygon fill="#A80036" points="101.0818,378.457,97.1248,384.4854,101.1675,390.4567,105.1246,384.4283,101.0818,378.457" style="stroke: #A80036; stroke-width: 1.0;"/><text fill="#000000" font-family="sans-serif" font-size="13" lengthAdjust="spacingAndGlyphs" textLength="6" x="94.6492" y="485.2449">*</text><path d="M133.508,526.479 C167.003,545.061 220.512,574.746 260.218,596.773 " fill="none" style="stroke: #A80036; stroke-width: 1.0;"/><polygon fill="#A80036" points="122.136,520.171,125.4421,526.5795,132.6293,525.9926,129.3232,519.584,122.136,520.171" style="stroke: #A80036; stroke-width: 1.0;"/><text fill="#000000" font-family="sans-serif" font-size="13" lengthAdjust="spacingAndGlyphs" textLength="6" x="242.2344" y="586.2078">*</text><path d="M428.955,635.413 C551.119,643.987 727.013,657.333 741,664 C767.756,676.753 790.733,701.221 806.636,721.7904 " fill="none" style="stroke: #A80036; stroke-width: 1.0;"/><polygon fill="none" points="428.176,642.375,408.712,634.001,429.15,628.409,428.176,642.375" style="stroke: #A80036; stroke-width: 1.0;"/><path d="M407.14,537.103 C638.085,591.469 725.866,540.957 918,664 C938.956,677.42 956.633,698.819 969.451,717.656 " fill="none" style="stroke: #A80036; stroke-width: 1.0;"/><polygon fill="none" points="405.459,543.898,387.688,532.357,408.777,530.297,405.459,543.898" style="stroke: #A80036; stroke-width: 1.0;"/><path d="M428.84,636.725 C483.943,642.575 542.832,651.446 567,664 C592.824,677.415 615.148,701.589 630.715,721.8594 " fill="none" style="stroke: #A80036; stroke-width: 1.0;"/><polygon fill="none" points="427.98,643.674,408.782,634.705,429.383,629.745,427.98,643.674" style="stroke: #A80036; stroke-width: 1.0;"/></g></svg>