<?xml version="1.0" encoding="UTF-8" standalone="yes"?><svg xmlns="http://www.w3.org/2000/svg" xmlns:xlink="http://www.w3.org/1999/xlink" height="1072pt" style="width:692px;height:1072px;" version="1.1" viewBox="0 0 692 1072" width="692pt"><defs><filter height="300%" id="f1" width="300%" x="-1" y="-1"><feGaussianBlur result="blurOut" stdDeviation="2.0"/><feColorMatrix in="blurOut" result="blurOut2" type="matrix" values="0 0 0 0 0 0 0 0 0 0 0 0 0 0 0 0 0 0 .4 0"/><feOffset dx="4.0" dy="4.0" in="blurOut2" result="blurOut3"/><feBlend in="SourceGraphic" in2="blurOut3" mode="normal"/></filter></defs><g><polygon fill="#FFFFFF" filter="url(#f1)" points="48,16,85,16,92,38.4883,593,38.4883,593,908,48,908,48,16" style="stroke: #000000; stroke-width: 2.0;"/><line style="stroke: #000000; stroke-width: 2.0;" x1="48" x2="92" y1="38.4883" y2="38.4883"/><text fill="#000000" font-family="sans-serif" font-size="14" font-weight="bold" lengthAdjust="spacingAndGlyphs" textLength="31" x="51" y="32.5352">SMV</text><polygon fill="#FFFFFF" filter="url(#f1)" points="14,916,108,916,115,938.4883,685,938.4883,685,1065,14,1065,14,916" style="stroke: #000000; stroke-width: 2.0;"/><line style="stroke: #000000; stroke-width: 2.0;" x1="14" x2="115" y1="938.4883" y2="938.4883"/><text fill="#000000" font-family="sans-serif" font-size="14" font-weight="bold" lengthAdjust="spacingAndGlyphs" textLength="88" x="17" y="932.5352">ExampleApp</text><polygon fill="#FFFFFF" filter="url(#f1)" points="372,943,442,943,449,965.4883,677,965.4883,677,1057,372,1057,372,943" style="stroke: #000000; stroke-width: 2.0;"/><line style="stroke: #000000; stroke-width: 2.0;" x1="372" x2="449" y1="965.4883" y2="965.4883"/><text fill="#000000" font-family="sans-serif" font-size="14" font-weight="bold" lengthAdjust="spacingAndGlyphs" textLength="64" x="375" y="959.5352">AppPkg1</text><polygon fill="#FFFFFF" filter="url(#f1)" points="22,947,92,947,99,969.4883,354,969.4883,354,1053,22,1053,22,947" style="stroke: #000000; stroke-width: 2.0;"/><line style="stroke: #000000; stroke-width: 2.0;" x1="22" x2="99" y1="969.4883" y2="969.4883"/><text fill="#000000" font-family="sans-serif" font-size="14" font-weight="bold" lengthAdjust="spacingAndGlyphs" textLength="64" x="25" y="963.5352">AppPkg2</text><rect fill="#FEFECE" filter="url(#f1)" height="209.7266" style="stroke: #A80036; stroke-width: 1.5;" width="191" x="393.5" y="43"/><text fill="#000000" font-family="sans-serif" font-size="12" font-style="italic" lengthAdjust="spacingAndGlyphs" textLength="88" x="445" y="59.6016">&lt;&lt;Abstract&gt;&gt;</text><text fill="#000000" font-family="sans-serif" font-size="12" lengthAdjust="spacingAndGlyphs" textLength="67" x="455.5" y="73.7344">SmvDataSet</text><line style="stroke: #A80036; stroke-width: 1.5;" x1="394.5" x2="583.5" y1="81.2656" y2="81.2656"/><rect fill="none" height="6" style="stroke: #C82930; stroke-width: 1.0;" width="6" x="401.5" y="90.2432"/><text fill="#000000" font-family="sans-serif" font-size="11" lengthAdjust="spacingAndGlyphs" textLength="70" x="413.5" y="95.9004">app: SmvApp</text><ellipse cx="404.5" cy="106.1982" fill="none" rx="3" ry="3" style="stroke: #038048; stroke-width: 1.0;"/><text fill="#000000" font-family="sans-serif" font-size="11" lengthAdjust="spacingAndGlyphs" textLength="67" x="413.5" y="108.8555">name: String</text><ellipse cx="404.5" cy="119.1533" fill="none" rx="3" ry="3" style="stroke: #038048; stroke-width: 1.0;"/><text fill="#000000" font-family="sans-serif" font-size="11" lengthAdjust="spacingAndGlyphs" textLength="60" x="413.5" y="121.8105">version: Int</text><ellipse cx="404.5" cy="132.1084" fill="none" rx="3" ry="3" style="stroke: #038048; stroke-width: 1.0;"/><text fill="#000000" font-family="sans-serif" font-size="11" lengthAdjust="spacingAndGlyphs" textLength="99" x="413.5" y="134.7656">description: String</text><ellipse cx="404.5" cy="145.0635" fill="none" rx="3" ry="3" style="stroke: #038048; stroke-width: 1.0;"/><text fill="#000000" font-family="sans-serif" font-size="11" lengthAdjust="spacingAndGlyphs" textLength="98" x="413.5" y="147.7207">classCodeCRC: Int</text><ellipse cx="404.5" cy="158.0186" fill="none" rx="3" ry="3" style="stroke: #038048; stroke-width: 1.0;"/><text fill="#000000" font-family="sans-serif" font-size="11" lengthAdjust="spacingAndGlyphs" textLength="133" x="413.5" y="160.6758">validations: ValidationSet</text><ellipse cx="404.5" cy="170.9736" fill="none" rx="3" ry="3" style="stroke: #038048; stroke-width: 1.0;"/><text fill="#000000" font-family="sans-serif" font-size="11" lengthAdjust="spacingAndGlyphs" textLength="86" x="413.5" y="173.6309">hashOfHash: Int</text><ellipse cx="404.5" cy="183.9287" fill="none" rx="3" ry="3" style="stroke: #038048; stroke-width: 1.0;"/><text fill="#000000" font-family="sans-serif" font-size="11" lengthAdjust="spacingAndGlyphs" textLength="113" x="413.5" y="186.5859">isEphemeral: Boolean</text><line style="stroke: #A80036; stroke-width: 1.5;" x1="394.5" x2="583.5" y1="192.9063" y2="192.9063"/><ellipse cx="404.5" cy="204.8838" fill="#84BE84" rx="3" ry="3" style="stroke: #038048; stroke-width: 1.0;"/><text fill="#000000" font-family="sans-serif" font-size="11" font-style="italic" lengthAdjust="spacingAndGlyphs" textLength="165" x="413.5" y="207.541">requiresDS() : Seq[SmvDataSet]</text><ellipse cx="404.5" cy="217.8389" fill="#84BE84" rx="3" ry="3" style="stroke: #038048; stroke-width: 1.0;"/><text fill="#000000" font-family="sans-serif" font-size="11" font-style="italic" lengthAdjust="spacingAndGlyphs" textLength="141" x="413.5" y="220.4961">computeRDD(): DataFrame</text><ellipse cx="404.5" cy="230.7939" fill="#84BE84" rx="3" ry="3" style="stroke: #038048; stroke-width: 1.0;"/><text fill="#000000" font-family="sans-serif" font-size="11" lengthAdjust="spacingAndGlyphs" textLength="62" x="413.5" y="233.4512">rdd(): SRDD</text><ellipse cx="404.5" cy="243.749" fill="#84BE84" rx="3" ry="3" style="stroke: #038048; stroke-width: 1.0;"/><text fill="#000000" font-family="sans-serif" font-size="11" lengthAdjust="spacingAndGlyphs" textLength="157" x="413.5" y="246.4063">injectApp(app: SmvApp): Unit</text><rect fill="#FEFECE" filter="url(#f1)" height="106.0859" style="stroke: #A80036; stroke-width: 1.5;" width="202" x="383" y="313"/><text fill="#000000" font-family="sans-serif" font-size="12" font-style="italic" lengthAdjust="spacingAndGlyphs" textLength="88" x="440" y="329.6016">&lt;&lt;Abstract&gt;&gt;</text><text fill="#000000" font-family="sans-serif" font-size="12" lengthAdjust="spacingAndGlyphs" textLength="42" x="463" y="343.7344">SmvFile</text><line style="stroke: #A80036; stroke-width: 1.5;" x1="384" x2="584" y1="351.2656" y2="351.2656"/><ellipse cx="394" cy="363.2432" fill="none" rx="3" ry="3" style="stroke: #038048; stroke-width: 1.0;"/><text fill="#000000" font-family="sans-serif" font-size="11" lengthAdjust="spacingAndGlyphs" textLength="89" x="403" y="365.9004">basePath : String</text><ellipse cx="394" cy="376.1982" fill="none" rx="3" ry="3" style="stroke: #038048; stroke-width: 1.0;"/><text fill="#000000" font-family="sans-serif" font-size="11" lengthAdjust="spacingAndGlyphs" textLength="144" x="403" y="378.8555">failAtParsingError: Boolean</text><ellipse cx="394" cy="389.1533" fill="none" rx="3" ry="3" style="stroke: #038048; stroke-width: 1.0;"/><text fill="#000000" font-family="sans-serif" font-size="11" lengthAdjust="spacingAndGlyphs" textLength="176" x="403" y="391.8105">parserValidator: ParserValidation</text><line style="stroke: #A80036; stroke-width: 1.5;" x1="384" x2="584" y1="398.1309" y2="398.1309"/><ellipse cx="394" cy="410.1084" fill="#84BE84" rx="3" ry="3" style="stroke: #038048; stroke-width: 1.0;"/><text fill="#000000" font-family="sans-serif" font-size="11" lengthAdjust="spacingAndGlyphs" textLength="164" x="403" y="412.7656">run(df: DataFrame): DataFrame</text><rect fill="#FEFECE" filter="url(#f1)" height="58.043" style="stroke: #A80036; stroke-width: 1.5;" width="181" x="240.5" y="479"/><text fill="#000000" font-family="sans-serif" font-size="12" lengthAdjust="spacingAndGlyphs" textLength="62" x="300" y="495.6016">SmvCsvFile</text><line style="stroke: #A80036; stroke-width: 1.5;" x1="241.5" x2="420.5" y1="503.1328" y2="503.1328"/><ellipse cx="251.5" cy="515.1104" fill="none" rx="3" ry="3" style="stroke: #038048; stroke-width: 1.0;"/><text fill="#000000" font-family="sans-serif" font-size="11" lengthAdjust="spacingAndGlyphs" textLength="155" x="260.5" y="517.7676">csvAttributes : CsvAttributes</text><ellipse cx="251.5" cy="528.0654" fill="none" rx="3" ry="3" style="stroke: #038048; stroke-width: 1.0;"/><text fill="#000000" font-family="sans-serif" font-size="11" lengthAdjust="spacingAndGlyphs" textLength="102" x="260.5" y="530.7227">schemaPath: String</text><rect fill="#FEFECE" filter="url(#f1)" height="45.0879" style="stroke: #A80036; stroke-width: 1.5;" width="128" x="457" y="485.5"/><text fill="#000000" font-family="sans-serif" font-size="12" lengthAdjust="spacingAndGlyphs" textLength="56" x="493" y="502.1016">SmvFrlFile</text><line style="stroke: #A80036; stroke-width: 1.5;" x1="458" x2="584" y1="509.6328" y2="509.6328"/><ellipse cx="468" cy="521.6104" fill="none" rx="3" ry="3" style="stroke: #038048; stroke-width: 1.0;"/><text fill="#000000" font-family="sans-serif" font-size="11" lengthAdjust="spacingAndGlyphs" textLength="102" x="477" y="524.2676">schemaPath: String</text><rect fill="#FEFECE" filter="url(#f1)" height="59.2207" style="stroke: #A80036; stroke-width: 1.5;" width="193" x="125.5" y="597"/><text fill="#000000" font-family="sans-serif" font-size="12" font-style="italic" lengthAdjust="spacingAndGlyphs" textLength="88" x="178" y="613.6016">&lt;&lt;Abstract&gt;&gt;</text><text fill="#000000" font-family="sans-serif" font-size="12" lengthAdjust="spacingAndGlyphs" textLength="65" x="189.5" y="627.7344">SmvModule</text><line style="stroke: #A80036; stroke-width: 1.5;" x1="126.5" x2="317.5" y1="635.2656" y2="635.2656"/><ellipse cx="136.5" cy="647.2432" fill="#84BE84" rx="3" ry="3" style="stroke: #038048; stroke-width: 1.0;"/><text fill="#000000" font-family="sans-serif" font-size="11" font-style="italic" lengthAdjust="spacingAndGlyphs" textLength="167" x="145.5" y="649.9004">run(in: runParams) : DataFrame</text><rect fill="#FEFECE" filter="url(#f1)" height="78.998" style="stroke: #A80036; stroke-width: 1.5;" width="147" x="56.5" y="716"/><text fill="#000000" font-family="sans-serif" font-size="12" lengthAdjust="spacingAndGlyphs" textLength="102" x="79" y="732.6016">SmvCsvStringData</text><line style="stroke: #A80036; stroke-width: 1.5;" x1="57.5" x2="202.5" y1="740.1328" y2="740.1328"/><ellipse cx="67.5" cy="752.1104" fill="none" rx="3" ry="3" style="stroke: #038048; stroke-width: 1.0;"/><text fill="#000000" font-family="sans-serif" font-size="11" lengthAdjust="spacingAndGlyphs" textLength="94" x="76.5" y="754.7676">schemaStr: String</text><ellipse cx="67.5" cy="765.0654" fill="none" rx="3" ry="3" style="stroke: #038048; stroke-width: 1.0;"/><text fill="#000000" font-family="sans-serif" font-size="11" lengthAdjust="spacingAndGlyphs" textLength="61" x="76.5" y="767.7227">data: String</text><line style="stroke: #A80036; stroke-width: 1.5;" x1="57.5" x2="202.5" y1="774.043" y2="774.043"/><ellipse cx="67.5" cy="786.0205" fill="#84BE84" rx="3" ry="3" style="stroke: #038048; stroke-width: 1.0;"/><text fill="#000000" font-family="sans-serif" font-size="11" lengthAdjust="spacingAndGlyphs" textLength="121" x="76.5" y="788.6777">cnstr(schemaStr, data)</text><rect fill="#FEFECE" filter="url(#f1)" height="24.1328" style="stroke: #A80036; stroke-width: 1.5;" width="94" x="276" y="743.5"/><text fill="#000000" font-family="sans-serif" font-size="12" lengthAdjust="spacingAndGlyphs" textLength="88" x="279" y="760.1016">SmvModuleLink</text><rect fill="#FEFECE" filter="url(#f1)" height="45.0879" style="stroke: #A80036; stroke-width: 1.5;" width="184" x="115" y="855"/><text fill="#000000" font-family="sans-serif" font-size="12" lengthAdjust="spacingAndGlyphs" textLength="62" x="176" y="871.6016">SmvOutput</text><line style="stroke: #A80036; stroke-width: 1.5;" x1="116" x2="298" y1="879.1328" y2="879.1328"/><text fill="#000000" font-family="sans-serif" font-size="11" lengthAdjust="spacingAndGlyphs" textLength="172" x="121" y="893.7676">//trait mixed in with SmvModule</text><rect fill="#FEFECE" filter="url(#f1)" height="117.8633" style="stroke: #A80036; stroke-width: 1.5;" width="302" x="56" y="89"/><text fill="#000000" font-family="sans-serif" font-size="12" lengthAdjust="spacingAndGlyphs" textLength="47" x="183.5" y="105.6016">SmvApp</text><line style="stroke: #A80036; stroke-width: 1.5;" x1="57" x2="357" y1="113.1328" y2="113.1328"/><rect fill="none" height="6" style="stroke: #C82930; stroke-width: 1.0;" width="6" x="64" y="122.1104"/><text fill="#000000" font-family="sans-serif" font-size="11" lengthAdjust="spacingAndGlyphs" textLength="91" x="76" y="127.7676">sc: SparkContext</text><rect fill="none" height="6" style="stroke: #C82930; stroke-width: 1.0;" width="6" x="64" y="135.0654"/><text fill="#000000" font-family="sans-serif" font-size="11" lengthAdjust="spacingAndGlyphs" textLength="129" x="76" y="140.7227">sqlContext: SQLContext</text><rect fill="none" height="6" style="stroke: #C82930; stroke-width: 1.0;" width="6" x="64" y="148.0205"/><text fill="#000000" font-family="sans-serif" font-size="11" lengthAdjust="spacingAndGlyphs" textLength="122" x="76" y="153.6777">smvConfig: SmvConfig</text><line style="stroke: #A80036; stroke-width: 1.5;" x1="57" x2="357" y1="159.998" y2="159.998"/><ellipse cx="67" cy="171.9756" fill="#84BE84" rx="3" ry="3" style="stroke: #038048; stroke-width: 1.0;"/><text fill="#000000" font-family="sans-serif" font-size="11" lengthAdjust="spacingAndGlyphs" textLength="214" x="76" y="174.6328">resolveRDD(ds: SmvDataSet): DataFrame</text><ellipse cx="67" cy="184.9307" fill="#84BE84" rx="3" ry="3" style="stroke: #038048; stroke-width: 1.0;"/><text fill="#000000" font-family="sans-serif" font-size="11" lengthAdjust="spacingAndGlyphs" textLength="276" x="76" y="187.5879">createDF(schemaStr:String, data: String): DataFrame</text><ellipse cx="67" cy="197.8857" fill="#84BE84" rx="3" ry="3" style="stroke: #038048; stroke-width: 1.0;"/><text fill="#000000" font-family="sans-serif" font-size="11" lengthAdjust="spacingAndGlyphs" textLength="27" x="76" y="200.543">run()</text><rect fill="#FEFECE" filter="url(#f1)" height="24.1328" style="stroke: #A80036; stroke-width: 1.5;" width="66" x="102" y="354"/><text fill="#000000" font-family="sans-serif" font-size="12" lengthAdjust="spacingAndGlyphs" textLength="60" x="105" y="370.6016">SmvStages</text><rect fill="#FEFECE" filter="url(#f1)" height="24.1328" style="stroke: #A80036; stroke-width: 1.5;" width="60" x="106" y="496"/><text fill="#000000" font-family="sans-serif" font-size="12" lengthAdjust="spacingAndGlyphs" textLength="54" x="109" y="512.6016">SmvStage</text><rect fill="#FEFECE" filter="url(#f1)" height="70.998" style="stroke: #A80036; stroke-width: 1.5;" width="141" x="380.5" y="974"/><text fill="#000000" font-family="sans-serif" font-size="12" lengthAdjust="spacingAndGlyphs" textLength="50" x="426" y="990.6016">Module1</text><line style="stroke: #A80036; stroke-width: 1.5;" x1="381.5" x2="520.5" y1="998.1328" y2="998.1328"/><ellipse cx="391.5" cy="1010.1104" fill="#84BE84" rx="3" ry="3" style="stroke: #038048; stroke-width: 1.0;"/><text fill="#000000" font-family="sans-serif" font-size="11" lengthAdjust="spacingAndGlyphs" textLength="96" x="400.5" y="1012.7676">override version()</text><ellipse cx="391.5" cy="1023.0654" fill="#84BE84" rx="3" ry="3" style="stroke: #038048; stroke-width: 1.0;"/><text fill="#000000" font-family="sans-serif" font-size="11" lengthAdjust="spacingAndGlyphs" textLength="115" x="400.5" y="1025.7227">override requiresDS()</text><ellipse cx="391.5" cy="1036.0205" fill="#84BE84" rx="3" ry="3" style="stroke: #038048; stroke-width: 1.0;"/><text fill="#000000" font-family="sans-serif" font-size="11" lengthAdjust="spacingAndGlyphs" textLength="109" x="400.5" y="1038.6777">override run(inputs)</text><rect fill="#FEFECE" filter="url(#f1)" height="78.998" style="stroke: #A80036; stroke-width: 1.5;" width="112" x="557" y="970"/><text fill="#000000" font-family="sans-serif" font-size="12" lengthAdjust="spacingAndGlyphs" textLength="27" x="599.5" y="986.6016">File1</text><line style="stroke: #A80036; stroke-width: 1.5;" x1="558" x2="668" y1="994.1328" y2="994.1328"/><ellipse cx="568" cy="1006.1104" fill="none" rx="3" ry="3" style="stroke: #038048; stroke-width: 1.0;"/><text fill="#000000" font-family="sans-serif" font-size="11" lengthAdjust="spacingAndGlyphs" textLength="48" x="577" y="1008.7676">basePath</text><ellipse cx="568" cy="1019.0654" fill="none" rx="3" ry="3" style="stroke: #038048; stroke-width: 1.0;"/><text fill="#000000" font-family="sans-serif" font-size="11" lengthAdjust="spacingAndGlyphs" textLength="72" x="577" y="1021.7227">csvAttributes</text><line style="stroke: #A80036; stroke-width: 1.5;" x1="558" x2="668" y1="1028.043" y2="1028.043"/><ellipse cx="568" cy="1040.0205" fill="#84BE84" rx="3" ry="3" style="stroke: #038048; stroke-width: 1.0;"/><text fill="#000000" font-family="sans-serif" font-size="11" lengthAdjust="spacingAndGlyphs" textLength="86" x="577" y="1042.6777">override run(df)</text><rect fill="#FEFECE" filter="url(#f1)" height="45.0879" style="stroke: #A80036; stroke-width: 1.5;" width="139" x="30.5" y="987"/><text fill="#000000" font-family="sans-serif" font-size="12" lengthAdjust="spacingAndGlyphs" textLength="41" x="79.5" y="1003.6016">MLink1</text><line style="stroke: #A80036; stroke-width: 1.5;" x1="31.5" x2="168.5" y1="1011.1328" y2="1011.1328"/><text fill="#000000" font-family="sans-serif" font-size="11" lengthAdjust="spacingAndGlyphs" textLength="127" x="36.5" y="1025.7676">smvModule: SmvOutput</text><rect fill="#FEFECE" filter="url(#f1)" height="70.998" style="stroke: #A80036; stroke-width: 1.5;" width="141" x="204.5" y="974"/><text fill="#000000" font-family="sans-serif" font-size="12" lengthAdjust="spacingAndGlyphs" textLength="50" x="250" y="990.6016">Module2</text><line style="stroke: #A80036; stroke-width: 1.5;" x1="205.5" x2="344.5" y1="998.1328" y2="998.1328"/><ellipse cx="215.5" cy="1010.1104" fill="#84BE84" rx="3" ry="3" style="stroke: #038048; stroke-width: 1.0;"/><text fill="#000000" font-family="sans-serif" font-size="11" lengthAdjust="spacingAndGlyphs" textLength="96" x="224.5" y="1012.7676">override version()</text><ellipse cx="215.5" cy="1023.0654" fill="#84BE84" rx="3" ry="3" style="stroke: #038048; stroke-width: 1.0;"/><text fill="#000000" font-family="sans-serif" font-size="11" lengthAdjust="spacingAndGlyphs" textLength="115" x="224.5" y="1025.7227">override requiresDS()</text><ellipse cx="215.5" cy="1036.0205" fill="#84BE84" rx="3" ry="3" style="stroke: #038048; stroke-width: 1.0;"/><text fill="#000000" font-family="sans-serif" font-size="11" lengthAdjust="spacingAndGlyphs" textLength="109" x="224.5" y="1038.6777">override run(inputs)</text><path d="M486.117,273.546 C485.798,287.324 485.488,300.734 485.207,312.85 " fill="none" style="stroke: #A80036; stroke-width: 1.0;"/><polygon fill="none" points="479.127,273.036,486.588,253.204,493.123,273.36,479.127,273.036" style="stroke: #A80036; stroke-width: 1.0;"/><path d="M412.016,432.868 C394.349,449.033 376.36,465.494 361.835,478.785 " fill="none" style="stroke: #A80036; stroke-width: 1.0;"/><polygon fill="none" points="407.548,427.468,427.028,419.131,416.999,437.797,407.548,427.468" style="stroke: #A80036; stroke-width: 1.0;"/><path d="M502.909,438.549 C507.407,455.565 511.871,472.459 515.24,485.207 " fill="none" style="stroke: #A80036; stroke-width: 1.0;"/><polygon fill="none" points="496.12,440.256,497.777,419.131,509.655,436.678,496.12,440.256" style="stroke: #A80036; stroke-width: 1.0;"/><path d="M379.711,267.284 C313.966,341.519 239.826,431.827 223,479 C209.114,517.929 212.454,566.465 216.746,596.727 " fill="none" style="stroke: #A80036; stroke-width: 1.0;"/><polygon fill="none" points="374.628,262.467,393.158,252.19,385.081,271.78,374.628,262.467" style="stroke: #A80036; stroke-width: 1.0;"/><path d="M189.434,672.455 C179.134,686.674 167.848,702.253 157.904,715.98 " fill="none" style="stroke: #A80036; stroke-width: 1.0;"/><polygon fill="none" points="183.951,668.091,201.353,656.001,195.289,676.305,183.951,668.091" style="stroke: #A80036; stroke-width: 1.0;"/><path d="M257.352,671.952 C277.685,697.52 301.63,727.629 314.229,743.472 " fill="none" style="stroke: #A80036; stroke-width: 1.0;"/><polygon fill="none" points="251.636,676.012,244.666,656.001,262.594,667.298,251.636,676.012" style="stroke: #A80036; stroke-width: 1.0;"/><path d="M223.811,676.112 C224.544,709.598 224.524,755.079 221,795 C219.195,815.45 215.038,838.484 211.72,854.834 " fill="none" style="stroke: #A80036; stroke-width: 1.0;"/><polygon fill="none" points="216.811,676.206,223.25,656.018,230.805,675.815,216.811,676.206" style="stroke: #A80036; stroke-width: 1.0;"/><path d="M371.411,148 C378.756,148 386.102,148 393.447,148 " fill="none" style="stroke: #A80036; stroke-width: 1.0;"/><polygon fill="#A80036" points="358.189,148,364.189,152,370.189,148,364.189,144,358.189,148" style="stroke: #A80036; stroke-width: 1.0;"/><text fill="#000000" font-family="sans-serif" font-size="13" lengthAdjust="spacingAndGlyphs" textLength="6" x="379.5936" y="144.994">*</text><path d="M183.459,219.622 C167.186,268.443 147.037,328.888 138.789,353.633 " fill="none" style="stroke: #A80036; stroke-width: 1.0;"/><polygon fill="#A80036" points="187.611,207.168,181.9187,211.595,183.8159,218.5521,189.5081,214.1251,187.611,207.168" style="stroke: #A80036; stroke-width: 1.0;"/><text fill="#000000" font-family="sans-serif" font-size="13" lengthAdjust="spacingAndGlyphs" textLength="8" x="130.702" y="343.0429">1</text><path d="M135.176,391.651 C135.395,422.296 135.759,473.299 135.92,495.776 " fill="none" style="stroke: #A80036; stroke-width: 1.0;"/><polygon fill="#A80036" points="135.082,378.457,131.125,384.4854,135.1677,390.4567,139.1248,384.4283,135.082,378.457" style="stroke: #A80036; stroke-width: 1.0;"/><text fill="#000000" font-family="sans-serif" font-size="13" lengthAdjust="spacingAndGlyphs" textLength="6" x="128.6495" y="485.2449">*</text><path d="M152.074,530.774 C165.775,549.334 185.578,576.161 200.616,596.531 " fill="none" style="stroke: #A80036; stroke-width: 1.0;"/><polygon fill="#A80036" points="144.246,520.171,144.5917,527.3738,151.3734,529.825,151.0277,522.6222,144.246,520.171" style="stroke: #A80036; stroke-width: 1.0;"/><text fill="#000000" font-family="sans-serif" font-size="13" lengthAdjust="spacingAndGlyphs" textLength="6" x="189.5868" y="586.3806">*</text><path d="M303.099,777.087 C282.229,798.677 249.556,832.476 228.209,854.56 " fill="none" style="stroke: #A80036; stroke-width: 1.0;"/><polygon fill="#A80036" points="312.295,767.574,305.249,769.1083,303.9553,776.2025,311.0013,774.6681,312.295,767.574" style="stroke: #A80036; stroke-width: 1.0;"/><text fill="#000000" font-family="sans-serif" font-size="13" lengthAdjust="spacingAndGlyphs" textLength="8" x="224.6188" y="844.3566">1</text><path d="M318.455,897.297 C333.627,902.169 348.577,908.296 362,916 C387.127,930.421 409.685,954.049 425.804,973.8142 " fill="none" style="stroke: #A80036; stroke-width: 1.0;"/><polygon fill="none" points="316.508,904.021,299.217,891.773,320.372,890.565,316.508,904.021" style="stroke: #A80036; stroke-width: 1.0;"/><path d="M356.813,554.722 C411.865,652.234 539.956,879.119 591.22,969.921 " fill="none" style="stroke: #A80036; stroke-width: 1.0;"/><polygon fill="none" points="350.706,558.144,346.97,537.286,362.898,551.261,350.706,558.144" style="stroke: #A80036; stroke-width: 1.0;"/><path d="M332.181,787.115 C340.399,821.501 346.913,876.595 316,908 C305.926,918.234 199.999,909.896 187,916 C154.472,931.273 128.096,964.597 113.224,986.7939 " fill="none" style="stroke: #A80036; stroke-width: 1.0;"/><polygon fill="none" points="325.358,788.704,326.786,767.562,338.854,784.98,325.358,788.704" style="stroke: #A80036; stroke-width: 1.0;"/><path d="M333.058,665.71 C354.536,678.32 374.288,694.756 387,716 C438.795,802.555 356.721,917.253 307.588,973.8616 " fill="none" style="stroke: #A80036; stroke-width: 1.0;"/><polygon fill="none" points="329.528,671.762,315.148,656.199,336.095,659.397,329.528,671.762" style="stroke: #A80036; stroke-width: 1.0;"/></g></svg>