<?xml version="1.0" encoding="UTF-8" standalone="yes"?><svg xmlns="http://www.w3.org/2000/svg" xmlns:xlink="http://www.w3.org/1999/xlink" height="362pt" style="width:310px;height:362px;" version="1.1" viewBox="0 0 310 362" width="310pt"><defs><filter height="300%" id="f1" width="300%" x="-1" y="-1"><feGaussianBlur result="blurOut" stdDeviation="2.0"/><feColorMatrix in="blurOut" result="blurOut2" type="matrix" values="0 0 0 0 0 0 0 0 0 0 0 0 0 0 0 0 0 0 .4 0"/><feOffset dx="4.0" dy="4.0" in="blurOut2" result="blurOut3"/><feBlend in="SourceGraphic" in2="blurOut3" mode="normal"/></filter></defs><g><polygon fill="#FFFFFF" filter="url(#f1)" points="50,100,87,100,94,122.4883,265,122.4883,265,271,50,271,50,100" style="stroke: #000000; stroke-width: 2.0;"/><line style="stroke: #000000; stroke-width: 2.0;" x1="50" x2="94" y1="122.4883" y2="122.4883"/><text fill="#000000" font-family="sans-serif" font-size="14" font-weight="bold" lengthAdjust="spacingAndGlyphs" textLength="31" x="53" y="116.5352">SMV</text><polygon fill="#FFFFFF" filter="url(#f1)" points="14,296,48,296,55,318.4883,303,318.4883,303,355,14,355,14,296" style="stroke: #000000; stroke-width: 2.0;"/><line style="stroke: #000000; stroke-width: 2.0;" x1="14" x2="55" y1="318.4883" y2="318.4883"/><text fill="#000000" font-family="sans-serif" font-size="14" font-weight="bold" lengthAdjust="spacingAndGlyphs" textLength="28" x="17" y="312.5352">App</text><polygon fill="#FFFFFF" filter="url(#f1)" points="59,16,105,16,112,38.4883,247,38.4883,247,75,59,75,59,16" style="stroke: #000000; stroke-width: 2.0;"/><line style="stroke: #000000; stroke-width: 2.0;" x1="59" x2="112" y1="38.4883" y2="38.4883"/><text fill="#000000" font-family="sans-serif" font-size="14" font-weight="bold" lengthAdjust="spacingAndGlyphs" textLength="40" x="62" y="32.5352">Spark</text><rect fill="#FEFECE" filter="url(#f1)" height="24.1328" style="stroke: #A80036; stroke-width: 1.5;" width="73" x="58.5" y="134"/><text fill="#000000" font-family="sans-serif" font-size="12" lengthAdjust="spacingAndGlyphs" textLength="67" x="61.5" y="150.6016">SmvDataSet</text><rect fill="#FEFECE" filter="url(#f1)" height="38.2656" style="stroke: #A80036; stroke-width: 1.5;" width="90" x="58" y="225"/><text fill="#000000" font-family="sans-serif" font-size="12" font-style="italic" lengthAdjust="spacingAndGlyphs" textLength="88" x="59" y="241.6016">&lt;&lt;Abstract&gt;&gt;</text><text fill="#000000" font-family="sans-serif" font-size="12" lengthAdjust="spacingAndGlyphs" textLength="65" x="70.5" y="255.7344">SmvModule</text><rect fill="#FEFECE" filter="url(#f1)" height="24.1328" style="stroke: #A80036; stroke-width: 1.5;" width="48" x="183" y="232"/><text fill="#000000" font-family="sans-serif" font-size="12" lengthAdjust="spacingAndGlyphs" textLength="42" x="186" y="248.6016">SmvFile</text><rect fill="#FEFECE" filter="url(#f1)" height="38.2656" style="stroke: #A80036; stroke-width: 1.5;" width="90" x="167" y="127"/><text fill="#000000" font-family="sans-serif" font-size="12" font-style="italic" lengthAdjust="spacingAndGlyphs" textLength="88" x="168" y="143.6016">&lt;&lt;Abstract&gt;&gt;</text><text fill="#000000" font-family="sans-serif" font-size="12" lengthAdjust="spacingAndGlyphs" textLength="47" x="188.5" y="157.7344">SmvApp</text><rect fill="#FEFECE" filter="url(#f1)" height="24.1328" style="stroke: #A80036; stroke-width: 1.5;" width="40" x="172" y="323"/><text fill="#000000" font-family="sans-serif" font-size="12" lengthAdjust="spacingAndGlyphs" textLength="34" x="175" y="339.6016">mod3</text><rect fill="#FEFECE" filter="url(#f1)" height="24.1328" style="stroke: #A80036; stroke-width: 1.5;" width="40" x="97" y="323"/><text fill="#000000" font-family="sans-serif" font-size="12" lengthAdjust="spacingAndGlyphs" textLength="34" x="100" y="339.6016">mod2</text><rect fill="#FEFECE" filter="url(#f1)" height="24.1328" style="stroke: #A80036; stroke-width: 1.5;" width="40" x="22" y="323"/><text fill="#000000" font-family="sans-serif" font-size="12" lengthAdjust="spacingAndGlyphs" textLength="34" x="25" y="339.6016">mod1</text><rect fill="#FEFECE" filter="url(#f1)" height="24.1328" style="stroke: #A80036; stroke-width: 1.5;" width="47" x="247.5" y="323"/><text fill="#000000" font-family="sans-serif" font-size="12" lengthAdjust="spacingAndGlyphs" textLength="41" x="250.5" y="339.6016">myApp</text><rect fill="#FEFECE" filter="url(#f1)" height="24.1328" style="stroke: #A80036; stroke-width: 1.5;" width="67" x="171.5" y="43"/><text fill="#000000" font-family="sans-serif" font-size="12" lengthAdjust="spacingAndGlyphs" textLength="61" x="174.5" y="59.6016">SqlContext</text><rect fill="#FEFECE" filter="url(#f1)" height="24.1328" style="stroke: #A80036; stroke-width: 1.5;" width="69" x="67.5" y="43"/><text fill="#000000" font-family="sans-serif" font-size="12" lengthAdjust="spacingAndGlyphs" textLength="63" x="70.5" y="59.6016">DataFrame</text><path d="M97.597,178.164 C98.8864,193.637 100.3985,211.782 101.4947,224.936 " fill="none" style="stroke: #A80036; stroke-width: 1.0;"/><polygon fill="none" points="90.6029,178.525,95.9177,158.012,104.5545,177.362,90.6029,178.525" style="stroke: #A80036; stroke-width: 1.0;"/><path d="M123.246,171.211 C145.924,190.649 176.729,217.054 193.957,231.82 " fill="none" style="stroke: #A80036; stroke-width: 1.0;"/><polygon fill="none" points="118.477,176.343,107.848,158.012,127.589,165.713,118.477,176.343" style="stroke: #A80036; stroke-width: 1.0;"/><path d="M131.562,146 C138.894,146 146.226,146 153.557,146 " fill="none" style="stroke: #A80036; stroke-width: 1.0;"/><polygon fill="#A80036" points="166.754,146,160.754,142,154.754,146,160.754,150,166.754,146" style="stroke: #A80036; stroke-width: 1.0;"/><text fill="#000000" font-family="sans-serif" font-size="13" lengthAdjust="spacingAndGlyphs" textLength="6" x="139.7217" y="142.0398">*</text><path d="M135.284,277.2839 C151.202,293.2016 169.38,311.3798 180.773,322.7732 " fill="none" style="stroke: #A80036; stroke-width: 1.0;"/><polygon fill="none" points="130.203,282.1024,121.01,263.0105,140.102,272.2029,130.203,282.1024" style="stroke: #A80036; stroke-width: 1.0;"/><path d="M108.942,282.7732 C111.217,297.2373 113.645,312.6718 115.234,322.7732 " fill="none" style="stroke: #A80036; stroke-width: 1.0;"/><polygon fill="none" points="102.0261,283.8553,105.8331,263.0105,115.856,281.6798,102.0261,283.8553" style="stroke: #A80036; stroke-width: 1.0;"/><path d="M79.1742,279.7622 C68.6908,295.0576 57.1012,311.9671 49.6948,322.7732 " fill="none" style="stroke: #A80036; stroke-width: 1.0;"/><polygon fill="none" points="73.5748,275.5501,90.6557,263.0105,85.1227,283.465,73.5748,275.5501" style="stroke: #A80036; stroke-width: 1.0;"/><path d="M231.28,182.902 C237.642,195.882 244.289,210.833 249,225 C260.575,259.806 267.087,302.9886 269.675,322.9412 " fill="none" style="stroke: #A80036; stroke-width: 1.0;"/><polygon fill="none" points="225.033,186.061,222.129,165.072,237.488,179.669,225.033,186.061" style="stroke: #A80036; stroke-width: 1.0;"/><path d="M101.1134,67.272 C100.0615,80.647 98.2778,103.325 96.9078,120.744 " fill="none" style="stroke: #A80036; stroke-width: 1.0; stroke-dasharray: 7.0,7.0;"/><polygon fill="none" points="95.8794,133.82,100.3372,128.1519,96.8196,121.8569,92.3618,127.525,95.8794,133.82" style="stroke: #A80036; stroke-width: 1.0;"/><path d="M205.887,67.272 C206.797,78.849 208.256,97.396 209.52,113.47 " fill="none" style="stroke: #A80036; stroke-width: 1.0; stroke-dasharray: 7.0,7.0;"/><polygon fill="none" points="210.562,126.721,214.0789,120.4257,209.6205,114.758,206.1036,121.0533,210.562,126.721" style="stroke: #A80036; stroke-width: 1.0;"/><path d="M136.602,55 C143.838,55 151.074,55 158.31,55 " fill="none" style="stroke: #A80036; stroke-width: 1.0;"/><polygon fill="#A80036" points="171.335,55,165.335,51,159.335,55,165.335,59,171.335,55" style="stroke: #A80036; stroke-width: 1.0;"/><text fill="#000000" font-family="sans-serif" font-size="13" lengthAdjust="spacingAndGlyphs" textLength="6" x="144.3574" y="51.0398">*</text></g></svg>