<?xml version="1.0" encoding="UTF-8" standalone="yes"?><svg xmlns="http://www.w3.org/2000/svg" xmlns:xlink="http://www.w3.org/1999/xlink" height="582pt" style="width:613px;height:582px;" version="1.1" viewBox="0 0 613 582" width="613pt"><defs><filter height="300%" id="f1" width="300%" x="-1" y="-1"><feGaussianBlur result="blurOut" stdDeviation="2.0"/><feColorMatrix in="blurOut" result="blurOut2" type="matrix" values="0 0 0 0 0 0 0 0 0 0 0 0 0 0 0 0 0 0 .4 0"/><feOffset dx="4.0" dy="4.0" in="blurOut2" result="blurOut3"/><feBlend in="SourceGraphic" in2="blurOut3" mode="normal"/></filter></defs><g><polygon fill="#FFFFFF" filter="url(#f1)" points="14,16,51,16,58,38.4883,606,38.4883,606,575,14,575,14,16" style="stroke: #000000; stroke-width: 2.0;"/><line style="stroke: #000000; stroke-width: 2.0;" x1="14" x2="58" y1="38.4883" y2="38.4883"/><text fill="#000000" font-family="sans-serif" font-size="14" font-weight="bold" lengthAdjust="spacingAndGlyphs" textLength="31" x="17" y="32.5352">SMV</text><rect fill="#FEFECE" filter="url(#f1)" height="83.9531" style="stroke: #A80036; stroke-width: 1.5;" width="162" x="422" y="47.5"/><text fill="#000000" font-family="sans-serif" font-size="12" lengthAdjust="spacingAndGlyphs" textLength="80" x="463" y="64.1016">CDSSubGroup</text><line style="stroke: #A80036; stroke-width: 1.5;" x1="423" x2="583" y1="71.6328" y2="71.6328"/><text fill="#000000" font-family="sans-serif" font-size="11" lengthAdjust="spacingAndGlyphs" textLength="150" x="428" y="86.2676">currentSchema: SmvSchema</text><text fill="#000000" font-family="sans-serif" font-size="11" lengthAdjust="spacingAndGlyphs" textLength="140" x="428" y="99.2227">crossSchema: SmvSchema</text><text fill="#000000" font-family="sans-serif" font-size="11" lengthAdjust="spacingAndGlyphs" textLength="90" x="428" y="112.1777">currentRow: Row</text><text fill="#000000" font-family="sans-serif" font-size="11" lengthAdjust="spacingAndGlyphs" textLength="134" x="428" y="125.1328">crossRows: Iterable[Row]</text><rect fill="#FEFECE" filter="url(#f1)" height="72.1758" style="stroke: #A80036; stroke-width: 1.5;" width="259" x="227.5" y="411"/><text fill="#000000" font-family="sans-serif" font-size="12" font-style="italic" lengthAdjust="spacingAndGlyphs" textLength="88" x="313" y="427.6016">&lt;&lt;Abstract&gt;&gt;</text><text fill="#000000" font-family="sans-serif" font-size="12" lengthAdjust="spacingAndGlyphs" textLength="46" x="334" y="441.7344">SmvCDS</text><line style="stroke: #A80036; stroke-width: 1.5;" x1="228.5" x2="485.5" y1="449.2656" y2="449.2656"/><text fill="#000000" font-family="sans-serif" font-size="11" lengthAdjust="spacingAndGlyphs" textLength="105" x="233.5" y="463.9004">from(that): SmvCDS</text><text fill="#000000" font-family="sans-serif" font-size="11" lengthAdjust="spacingAndGlyphs" textLength="247" x="233.5" y="476.8555">mapping(input: CDSSubGroup): CDSSubGroup</text><rect fill="#FEFECE" filter="url(#f1)" height="24.1328" style="stroke: #A80036; stroke-width: 1.5;" width="88" x="106" y="543"/><text fill="#000000" font-family="sans-serif" font-size="12" lengthAdjust="spacingAndGlyphs" textLength="82" x="109" y="559.6016">CombinedCDS</text><rect fill="#FEFECE" filter="url(#f1)" height="24.1328" style="stroke: #A80036; stroke-width: 1.5;" width="62" x="229" y="543"/><text fill="#000000" font-family="sans-serif" font-size="12" lengthAdjust="spacingAndGlyphs" textLength="56" x="232" y="559.6016">NoOpCDS</text><rect fill="#FEFECE" filter="url(#f1)" height="70.998" style="stroke: #A80036; stroke-width: 1.5;" width="210" x="22" y="280"/><text fill="#000000" font-family="sans-serif" font-size="12" lengthAdjust="spacingAndGlyphs" textLength="111" x="71.5" y="296.6016">SmvCDSAggColumn</text><line style="stroke: #A80036; stroke-width: 1.5;" x1="23" x2="231" y1="304.1328" y2="304.1328"/><text fill="#000000" font-family="sans-serif" font-size="11" lengthAdjust="spacingAndGlyphs" textLength="198" x="28" y="318.7676">from(otherCds): SmvCDSAggColumn</text><text fill="#000000" font-family="sans-serif" font-size="11" lengthAdjust="spacingAndGlyphs" textLength="163" x="28" y="331.7227">as(name): SmvCDSAggColumn</text><text fill="#000000" font-family="sans-serif" font-size="11" lengthAdjust="spacingAndGlyphs" textLength="87" x="28" y="344.6777">isAgg(): Boolean</text><rect fill="#FEFECE" filter="url(#f1)" height="24.1328" style="stroke: #A80036; stroke-width: 1.5;" width="69" x="102.5" y="435"/><text fill="#000000" font-family="sans-serif" font-size="12" lengthAdjust="spacingAndGlyphs" textLength="63" x="105.5" y="451.6016">Expression</text><rect fill="#FEFECE" filter="url(#f1)" height="24.1328" style="stroke: #A80036; stroke-width: 1.5;" width="125" x="326.5" y="543"/><text fill="#000000" font-family="sans-serif" font-size="12" lengthAdjust="spacingAndGlyphs" textLength="119" x="329.5" y="559.6016">SmvSelfCompareCDS</text><rect fill="#FEFECE" filter="url(#f1)" height="24.1328" style="stroke: #A80036; stroke-width: 1.5;" width="111" x="486.5" y="543"/><text fill="#000000" font-family="sans-serif" font-size="12" lengthAdjust="spacingAndGlyphs" textLength="105" x="489.5" y="559.6016">SmvTopNRecsCDS</text><rect fill="#FEFECE" filter="url(#f1)" height="58.043" style="stroke: #A80036; stroke-width: 1.5;" width="202" x="267" y="286.5"/><text fill="#000000" font-family="sans-serif" font-size="12" lengthAdjust="spacingAndGlyphs" textLength="107" x="314.5" y="303.1016">SmvSingleCDSAggs</text><line style="stroke: #A80036; stroke-width: 1.5;" x1="268" x2="468" y1="310.6328" y2="310.6328"/><text fill="#000000" font-family="sans-serif" font-size="11" lengthAdjust="spacingAndGlyphs" textLength="133" x="273" y="325.2676">resolvedExprs(schema2)</text><text fill="#000000" font-family="sans-serif" font-size="11" lengthAdjust="spacingAndGlyphs" textLength="190" x="273" y="338.2227">createExecuter(schema1, schema2)</text><rect fill="#FEFECE" filter="url(#f1)" height="93.1309" style="stroke: #A80036; stroke-width: 1.5;" width="148" x="213" y="43"/><text fill="#000000" font-family="sans-serif" font-size="12" font-style="italic" lengthAdjust="spacingAndGlyphs" textLength="88" x="243" y="59.6016">&lt;&lt;Abstract&gt;&gt;</text><text fill="#000000" font-family="sans-serif" font-size="12" lengthAdjust="spacingAndGlyphs" textLength="50" x="262" y="73.7344">SmvGDO</text><line style="stroke: #A80036; stroke-width: 1.5;" x1="214" x2="360" y1="81.2656" y2="81.2656"/><text fill="#000000" font-family="sans-serif" font-size="11" lengthAdjust="spacingAndGlyphs" textLength="69" x="219" y="95.9004">inGroupKeys</text><line style="stroke: #A80036; stroke-width: 1.5;" x1="214" x2="360" y1="102.2207" y2="102.2207"/><text fill="#000000" font-family="sans-serif" font-size="11" lengthAdjust="spacingAndGlyphs" textLength="136" x="219" y="116.8555">createInGroupMapping(*)</text><text fill="#000000" font-family="sans-serif" font-size="11" lengthAdjust="spacingAndGlyphs" textLength="107" x="219" y="129.8105">createOutSchema(*)</text><rect fill="#FEFECE" filter="url(#f1)" height="24.1328" style="stroke: #A80036; stroke-width: 1.5;" width="101" x="76.5" y="196"/><text fill="#000000" font-family="sans-serif" font-size="12" lengthAdjust="spacingAndGlyphs" textLength="95" x="79.5" y="212.6016">SmvCDSAggGDO</text><rect fill="#FEFECE" filter="url(#f1)" height="24.1328" style="stroke: #A80036; stroke-width: 1.5;" width="123" x="212.5" y="196"/><text fill="#000000" font-family="sans-serif" font-size="12" lengthAdjust="spacingAndGlyphs" textLength="117" x="215.5" y="212.6016">SmvCDSRunAggGDO</text><rect fill="#FEFECE" filter="url(#f1)" height="24.1328" style="stroke: #A80036; stroke-width: 1.5;" width="132" x="371" y="196"/><text fill="#000000" font-family="sans-serif" font-size="12" lengthAdjust="spacingAndGlyphs" textLength="126" x="374" y="212.6016">SmvCDSPanelAggGDO</text><rect fill="#FEFECE" filter="url(#f1)" height="24.1328" style="stroke: #A80036; stroke-width: 1.5;" width="93" x="504.5" y="303.5"/><text fill="#000000" font-family="sans-serif" font-size="12" lengthAdjust="spacingAndGlyphs" textLength="87" x="507.5" y="320.1016">SmvCDSAsGDO</text><path d="M258.57,491.9597 C221.594,510.5414 183.779,530.6508 163.685,542.7847 " fill="none" style="stroke: #A80036; stroke-width: 1.0;"/><polygon fill="none" points="255.55,485.6441,276.574,483.0021,261.786,498.1784,255.55,485.6441" style="stroke: #A80036; stroke-width: 1.0;"/><path d="M192.275,537.5264 C223.931,523.0077 267.081,501.3688 301.43,483.0021 " fill="none" style="stroke: #A80036; stroke-width: 1.0;"/><polygon fill="none" points="180.323,542.9075,187.4362,544.0915,191.2651,537.9809,184.1518,536.7968,180.323,542.9075" style="stroke: #A80036; stroke-width: 1.0;"/><text fill="#000000" font-family="sans-serif" font-size="13" lengthAdjust="spacingAndGlyphs" textLength="8" x="282.0745" y="503.8759">2</text><path d="M311.404,497.8268 C296.001,514.6589 280.206,531.9193 270.263,542.7847 " fill="none" style="stroke: #A80036; stroke-width: 1.0;"/><polygon fill="none" points="306.304,493.0311,324.97,483.0021,316.632,502.4825,306.304,493.0311" style="stroke: #A80036; stroke-width: 1.0;"/><path d="M130.707,364.505 C132.678,390.032 134.937,419.287 136.14,434.864 " fill="none" style="stroke: #A80036; stroke-width: 1.0;"/><polygon fill="#A80036" points="129.68,351.204,126.1534,357.4939,130.6031,363.1684,134.1297,356.8785,129.68,351.204" style="stroke: #A80036; stroke-width: 1.0;"/><text fill="#000000" font-family="sans-serif" font-size="13" lengthAdjust="spacingAndGlyphs" textLength="8" x="126.1353" y="424.3692">1</text><path d="M199.773,357.474 C230.264,374.642 265.354,394.399 294.637,410.887 " fill="none" style="stroke: #A80036; stroke-width: 1.0;"/><polygon fill="#A80036" points="188.334,351.034,191.5994,357.4634,198.7901,356.9221,195.5248,350.4927,188.334,351.034" style="stroke: #A80036; stroke-width: 1.0;"/><text fill="#000000" font-family="sans-serif" font-size="13" lengthAdjust="spacingAndGlyphs" textLength="8" x="273.9866" y="400.1545">1</text><path d="M373.359,502.1896 C378.008,517.5902 382.617,532.8569 385.614,542.7847 " fill="none" style="stroke: #A80036; stroke-width: 1.0;"/><polygon fill="none" points="366.646,504.1718,367.567,483.0021,380.048,500.1256,366.646,504.1718" style="stroke: #A80036; stroke-width: 1.0;"/><path d="M435.494,492.9747 C467.424,511.27 501.634,530.8714 522.426,542.7847 " fill="none" style="stroke: #A80036; stroke-width: 1.0;"/><polygon fill="none" points="431.962,499.0188,418.089,483.0021,438.922,486.8715,431.962,499.0188" style="stroke: #A80036; stroke-width: 1.0;"/><path d="M232.438,315.5 C239.519,315.5 246.6,315.5 253.681,315.5 " fill="none" style="stroke: #A80036; stroke-width: 1.0;"/><polygon fill="none" points="266.858,315.5,260.858,311.5,254.858,315.5,260.858,319.5,266.858,315.5" style="stroke: #A80036; stroke-width: 1.0;"/><text fill="#000000" font-family="sans-serif" font-size="13" lengthAdjust="spacingAndGlyphs" textLength="6" x="240.0625" y="312.552">*</text><path d="M306.266,351.108 C256.508,379.003 189.613,416.505 156.814,434.892 " fill="none" style="stroke: #A80036; stroke-width: 1.0;"/><polygon fill="#A80036" points="317.876,344.6,310.6863,344.0448,307.4086,350.468,314.5983,351.0231,317.876,344.6" style="stroke: #A80036; stroke-width: 1.0;"/><text fill="#000000" font-family="sans-serif" font-size="13" lengthAdjust="spacingAndGlyphs" textLength="6" x="157.7498" y="424.4087">*</text><path d="M364.509,357.598 C363.063,374.618 361.403,394.165 360.012,410.544 " fill="none" style="stroke: #A80036; stroke-width: 1.0;"/><polygon fill="#A80036" points="365.613,344.6,361.1196,350.24,364.5976,356.557,369.0909,350.917,365.613,344.6" style="stroke: #A80036; stroke-width: 1.0;"/><text fill="#000000" font-family="sans-serif" font-size="13" lengthAdjust="spacingAndGlyphs" textLength="8" x="351.836" y="400.2947">1</text><path d="M207.859,148.125 C182.775,166.389 157.578,184.735 142.135,195.98 " fill="none" style="stroke: #A80036; stroke-width: 1.0;"/><polygon fill="none" points="203.934,142.323,224.223,136.21,212.175,153.641,203.934,142.323" style="stroke: #A80036; stroke-width: 1.0;"/><path d="M127,233.55 C127,247.347 127,264.789 127,279.946 " fill="none" style="stroke: #A80036; stroke-width: 1.0;"/><polygon fill="#A80036" points="127,220.29,123,226.29,127,232.29,131,226.29,127,220.29" style="stroke: #A80036; stroke-width: 1.0;"/><text fill="#000000" font-family="sans-serif" font-size="13" lengthAdjust="spacingAndGlyphs" textLength="6" x="120.4281" y="269.337">*</text><path d="M164.579,225.451 C201.76,241.727 259.39,266.955 303.831,286.409 " fill="none" style="stroke: #A80036; stroke-width: 1.0;"/><polygon fill="#A80036" points="152.336,220.091,156.2284,226.1613,163.3289,224.903,159.4365,218.8327,152.336,220.091" style="stroke: #A80036; stroke-width: 1.0;"/><text fill="#000000" font-family="sans-serif" font-size="13" lengthAdjust="spacingAndGlyphs" textLength="6" x="282.2982" y="275.5466">*</text><path d="M279.653,156.336 C277.949,171.611 276.323,186.178 275.257,195.739 " fill="none" style="stroke: #A80036; stroke-width: 1.0;"/><polygon fill="none" points="272.724,155.31,281.899,136.21,286.638,156.862,272.724,155.31" style="stroke: #A80036; stroke-width: 1.0;"/><path d="M247.766,227.828 C227.698,242.231 199.464,262.494 175.342,279.806 " fill="none" style="stroke: #A80036; stroke-width: 1.0;"/><polygon fill="#A80036" points="258.546,220.091,251.3392,220.3398,248.797,227.0879,256.0038,226.8391,258.546,220.091" style="stroke: #A80036; stroke-width: 1.0;"/><text fill="#000000" font-family="sans-serif" font-size="13" lengthAdjust="spacingAndGlyphs" textLength="6" x="177.9853" y="269.1703">*</text><path d="M293.006,230.331 C307.366,246.448 327.21,268.72 342.879,286.306 " fill="none" style="stroke: #A80036; stroke-width: 1.0;"/><polygon fill="#A80036" points="284.06,220.29,285.0647,227.4308,292.0426,229.2498,291.0379,222.109,284.06,220.29" style="stroke: #A80036; stroke-width: 1.0;"/><text fill="#000000" font-family="sans-serif" font-size="13" lengthAdjust="spacingAndGlyphs" textLength="6" x="330.7275" y="275.8768">*</text><path d="M361.867,148.646 C385.16,166.738 408.471,184.843 422.811,195.98 " fill="none" style="stroke: #A80036; stroke-width: 1.0;"/><polygon fill="none" points="357.355,154.006,345.853,136.21,365.943,142.949,357.355,154.006" style="stroke: #A80036; stroke-width: 1.0;"/><path d="M391.951,224.331 C349.319,238.84 283.812,261.133 228.602,279.923 " fill="none" style="stroke: #A80036; stroke-width: 1.0;"/><polygon fill="#A80036" points="404.41,220.091,397.4412,218.2374,393.0499,223.9573,400.0187,225.8108,404.41,220.091" style="stroke: #A80036; stroke-width: 1.0;"/><text fill="#000000" font-family="sans-serif" font-size="13" lengthAdjust="spacingAndGlyphs" textLength="6" x="240.1655" y="269.8461">*</text><path d="M422.436,231.268 C411.949,247.303 397.72,269.058 386.44,286.306 " fill="none" style="stroke: #A80036; stroke-width: 1.0;"/><polygon fill="#A80036" points="429.616,220.29,422.9843,223.122,423.0478,230.3328,429.6795,227.5008,429.616,220.29" style="stroke: #A80036; stroke-width: 1.0;"/><text fill="#000000" font-family="sans-serif" font-size="13" lengthAdjust="spacingAndGlyphs" textLength="6" x="383.8175" y="275.8768">*</text><path d="M379.643,127.752 C440.575,153.016 510.882,183.929 521,196 C547.72,227.878 551.11,280.405 551.232,303.276 " fill="none" style="stroke: #A80036; stroke-width: 1.0;"/><polygon fill="none" points="376.939,134.209,361.111,120.12,382.27,121.264,376.939,134.209" style="stroke: #A80036; stroke-width: 1.0;"/><path d="M523.369,334.945 C493.883,354.627 446.463,386.281 409.779,410.769 " fill="none" style="stroke: #A80036; stroke-width: 1.0;"/><polygon fill="#A80036" points="534.46,327.541,527.2489,327.545,524.479,334.2029,531.6902,334.1989,534.46,327.541" style="stroke: #A80036; stroke-width: 1.0;"/><text fill="#000000" font-family="sans-serif" font-size="13" lengthAdjust="spacingAndGlyphs" textLength="8" x="410.7726" y="400.2869">1</text></g></svg>