<?xml version="1.0" encoding="UTF-8" standalone="yes"?><svg xmlns="http://www.w3.org/2000/svg" xmlns:xlink="http://www.w3.org/1999/xlink" height="446pt" style="width:730px;height:446px;" version="1.1" viewBox="0 0 730 446" width="730pt"><defs><filter height="300%" id="f1" width="300%" x="-1" y="-1"><feGaussianBlur result="blurOut" stdDeviation="2.0"/><feColorMatrix in="blurOut" result="blurOut2" type="matrix" values="0 0 0 0 0 0 0 0 0 0 0 0 0 0 0 0 0 0 .4 0"/><feOffset dx="4.0" dy="4.0" in="blurOut2" result="blurOut3"/><feBlend in="SourceGraphic" in2="blurOut3" mode="normal"/></filter></defs><g><polygon fill="#FFFFFF" filter="url(#f1)" points="14,16,51,16,58,38.4883,296,38.4883,296,439,14,439,14,16" style="stroke: #000000; stroke-width: 2.0;"/><line style="stroke: #000000; stroke-width: 2.0;" x1="14" x2="58" y1="38.4883" y2="38.4883"/><text fill="#000000" font-family="sans-serif" font-size="14" font-weight="bold" lengthAdjust="spacingAndGlyphs" textLength="31" x="17" y="32.5352">SMV</text><polygon fill="#FFFFFF" filter="url(#f1)" points="304,380,338,380,345,402.4883,723,402.4883,723,439,304,439,304,380" style="stroke: #000000; stroke-width: 2.0;"/><line style="stroke: #000000; stroke-width: 2.0;" x1="304" x2="345" y1="402.4883" y2="402.4883"/><text fill="#000000" font-family="sans-serif" font-size="14" font-weight="bold" lengthAdjust="spacingAndGlyphs" textLength="28" x="307" y="396.5352">App</text><rect fill="#FEFECE" filter="url(#f1)" height="24.1328" style="stroke: #A80036; stroke-width: 1.5;" width="69" x="218.5" y="316"/><text fill="#000000" font-family="sans-serif" font-size="12" lengthAdjust="spacingAndGlyphs" textLength="63" x="221.5" y="332.6016">Expression</text><rect fill="#FEFECE" filter="url(#f1)" height="38.2656" style="stroke: #A80036; stroke-width: 1.5;" width="90" x="111" y="43"/><text fill="#000000" font-family="sans-serif" font-size="12" font-style="italic" lengthAdjust="spacingAndGlyphs" textLength="88" x="112" y="59.6016">&lt;&lt;Abstract&gt;&gt;</text><text fill="#000000" font-family="sans-serif" font-size="12" lengthAdjust="spacingAndGlyphs" textLength="50" x="131" y="73.7344">SmvGDO</text><rect fill="#FEFECE" filter="url(#f1)" height="38.2656" style="stroke: #A80036; stroke-width: 1.5;" width="90" x="93" y="309"/><text fill="#000000" font-family="sans-serif" font-size="12" font-style="italic" lengthAdjust="spacingAndGlyphs" textLength="88" x="94" y="325.6016">&lt;&lt;Abstract&gt;&gt;</text><text fill="#000000" font-family="sans-serif" font-size="12" lengthAdjust="spacingAndGlyphs" textLength="46" x="115" y="339.7344">SmvCDS</text><rect fill="#FEFECE" filter="url(#f1)" height="24.1328" style="stroke: #A80036; stroke-width: 1.5;" width="84" x="59" y="407"/><text fill="#000000" font-family="sans-serif" font-size="12" lengthAdjust="spacingAndGlyphs" textLength="78" x="62" y="423.6016">SmvCDSChain</text><rect fill="#FEFECE" filter="url(#f1)" height="24.1328" style="stroke: #A80036; stroke-width: 1.5;" width="117" x="22.5" y="225"/><text fill="#000000" font-family="sans-serif" font-size="12" lengthAdjust="spacingAndGlyphs" textLength="111" x="25.5" y="241.6016">SmvCDSAggColumn</text><rect fill="#FEFECE" filter="url(#f1)" height="24.1328" style="stroke: #A80036; stroke-width: 1.5;" width="113" x="174.5" y="225"/><text fill="#000000" font-family="sans-serif" font-size="12" lengthAdjust="spacingAndGlyphs" textLength="107" x="177.5" y="241.6016">SmvSingleCDSAggs</text><rect fill="#FEFECE" filter="url(#f1)" height="24.1328" style="stroke: #A80036; stroke-width: 1.5;" width="101" x="105.5" y="141"/><text fill="#000000" font-family="sans-serif" font-size="12" lengthAdjust="spacingAndGlyphs" textLength="95" x="108.5" y="157.6016">SmvCDSAggGDO</text><rect fill="#FEFECE" filter="url(#f1)" height="24.1328" style="stroke: #A80036; stroke-width: 1.5;" width="40" x="387" y="407"/><text fill="#000000" font-family="sans-serif" font-size="12" lengthAdjust="spacingAndGlyphs" textLength="34" x="390" y="423.6016">mod3</text><rect fill="#FEFECE" filter="url(#f1)" height="24.1328" style="stroke: #A80036; stroke-width: 1.5;" width="40" x="312" y="407"/><text fill="#000000" font-family="sans-serif" font-size="12" lengthAdjust="spacingAndGlyphs" textLength="34" x="315" y="423.6016">mod2</text><rect fill="#FEFECE" filter="url(#f1)" height="24.1328" style="stroke: #A80036; stroke-width: 1.5;" width="40" x="462" y="407"/><text fill="#000000" font-family="sans-serif" font-size="12" lengthAdjust="spacingAndGlyphs" textLength="34" x="465" y="423.6016">mod1</text><rect fill="#FEFECE" filter="url(#f1)" height="24.1328" style="stroke: #A80036; stroke-width: 1.5;" width="36" x="608" y="407"/><text fill="#000000" font-family="sans-serif" font-size="12" lengthAdjust="spacingAndGlyphs" textLength="30" x="611" y="423.6016">exp1</text><rect fill="#FEFECE" filter="url(#f1)" height="24.1328" style="stroke: #A80036; stroke-width: 1.5;" width="36" x="537" y="407"/><text fill="#000000" font-family="sans-serif" font-size="12" lengthAdjust="spacingAndGlyphs" textLength="30" x="540" y="423.6016">exp2</text><rect fill="#FEFECE" filter="url(#f1)" height="24.1328" style="stroke: #A80036; stroke-width: 1.5;" width="36" x="679" y="407"/><text fill="#000000" font-family="sans-serif" font-size="12" lengthAdjust="spacingAndGlyphs" textLength="30" x="682" y="423.6016">exp3</text><path d="M122.82,365.5145 C116.658,380.3354 109.989,396.3782 105.6673,406.7732 " fill="none" style="stroke: #A80036; stroke-width: 1.0;"/><polygon fill="none" points="116.371,362.791,130.512,347.0105,129.299,368.1653,116.371,362.791" style="stroke: #A80036; stroke-width: 1.0;"/><path d="M76.494,262.306 C73.1226,284.523 69.8936,318.206 75,347 C78.8967,368.9729 89.0835,393.0725 95.4881,406.7848 " fill="none" style="stroke: #A80036; stroke-width: 1.0;"/><polygon fill="#A80036" points="78.6969,249.243,73.755,254.4944,76.7017,261.076,81.6436,255.8245,78.6969,249.243" style="stroke: #A80036; stroke-width: 1.0;"/><text fill="#000000" font-family="sans-serif" font-size="13" lengthAdjust="spacingAndGlyphs" textLength="8" x="83.5644" y="396.2573">1</text><path d="M114.278,255.219 C148.915,273.142 202.13,300.678 231.565,315.908 " fill="none" style="stroke: #A80036; stroke-width: 1.0;"/><polygon fill="#A80036" points="102.4361,249.092,105.9267,255.402,113.0938,254.6068,109.6032,248.2968,102.4361,249.092" style="stroke: #A80036; stroke-width: 1.0;"/><text fill="#000000" font-family="sans-serif" font-size="13" lengthAdjust="spacingAndGlyphs" textLength="8" x="213.0731" y="305.4313">1</text><path d="M209.735,258.351 C193.88,273.524 172.41,294.07 157.101,308.721 " fill="none" style="stroke: #A80036; stroke-width: 1.0;"/><polygon fill="#A80036" points="219.221,249.272,212.1206,250.5309,210.5518,257.5693,217.6522,256.3104,219.221,249.272" style="stroke: #A80036; stroke-width: 1.0;"/><text fill="#000000" font-family="sans-serif" font-size="13" lengthAdjust="spacingAndGlyphs" textLength="8" x="153.7257" y="298.0952">1</text><path d="M236.961,262.114 C241.281,279.591 246.924,302.421 250.236,315.82 " fill="none" style="stroke: #A80036; stroke-width: 1.0;"/><polygon fill="#A80036" points="233.786,249.272,231.3429,256.0566,236.666,260.9213,239.1091,254.1366,233.786,249.272" style="stroke: #A80036; stroke-width: 1.0;"/><text fill="#000000" font-family="sans-serif" font-size="13" lengthAdjust="spacingAndGlyphs" textLength="6" x="241.8583" y="305.307">*</text><path d="M174.228,237 C162.683,237 151.139,237 139.594,237 " fill="none" style="stroke: #A80036; stroke-width: 1.0; stroke-dasharray: 7.0,7.0;"/><text fill="#000000" font-family="sans-serif" font-size="13" lengthAdjust="spacingAndGlyphs" textLength="6" x="160.5697" y="233.6188">*</text><text fill="#000000" font-family="sans-serif" font-size="13" lengthAdjust="spacingAndGlyphs" textLength="6" x="147.4857" y="233.6188">*</text><path d="M156,101.026 C156,115.417 156,130.731 156,140.773 " fill="none" style="stroke: #A80036; stroke-width: 1.0;"/><polygon fill="none" points="149,101.011,156,81.01,163,101.01,149,101.011" style="stroke: #A80036; stroke-width: 1.0;"/><path d="M136.753,175.044 C122.224,190.929 102.8594,212.1 91.1941,224.854 " fill="none" style="stroke: #A80036; stroke-width: 1.0;"/><polygon fill="#A80036" points="145.885,165.059,138.884,166.7872,137.7866,173.9143,144.7876,172.1861,145.885,165.059" style="stroke: #A80036; stroke-width: 1.0;"/><text fill="#000000" font-family="sans-serif" font-size="13" lengthAdjust="spacingAndGlyphs" textLength="6" x="88.1617" y="214.355">*</text><path d="M175.247,175.044 C189.776,190.929 209.141,212.1 220.806,224.854 " fill="none" style="stroke: #A80036; stroke-width: 1.0;"/><polygon fill="#A80036" points="166.115,165.059,167.2124,172.1861,174.2134,173.9143,173.116,166.7872,166.115,165.059" style="stroke: #A80036; stroke-width: 1.0;"/><text fill="#000000" font-family="sans-serif" font-size="13" lengthAdjust="spacingAndGlyphs" textLength="6" x="209.3635" y="214.355">*</text><path d="M203.268,346.851 C279.803,361.9563 307.812,346.366 370,380 C381.987,386.483 392.48,398.1707 399.201,406.8784 " fill="none" style="stroke: #A80036; stroke-width: 1.0;"/><polygon fill="none" points="201.322,353.5899,183.301,342.444,204.339,339.919,201.322,353.5899" style="stroke: #A80036; stroke-width: 1.0;"/><path d="M202.719,347.8648 C247.403,361.0555 299.565,376.8544 304,380 C313.759,386.9217 321.494,398.3081 326.339,406.8153 " fill="none" style="stroke: #A80036; stroke-width: 1.0;"/><polygon fill="none" points="200.447,354.493,183.233,342.136,204.395,341.061,200.447,354.493" style="stroke: #A80036; stroke-width: 1.0;"/><path d="M202.971,346.577 C312.568,365.4585 352.61,333.466 445,380 C457.171,386.1302 467.636,397.8731 474.299,406.69 " fill="none" style="stroke: #A80036; stroke-width: 1.0;"/><polygon fill="none" points="201.538,353.4302,183.229,342.765,204.193,339.684,201.538,353.4302" style="stroke: #A80036; stroke-width: 1.0;"/><path d="M307.943,332.853 C390.764,339.4 543.015,354.5213 591,380 C602.724,386.2252 612.59,397.9532 618.828,406.7407 " fill="none" style="stroke: #A80036; stroke-width: 1.0;"/><polygon fill="none" points="307.179,339.816,287.767,331.32,308.24,325.856,307.179,339.816" style="stroke: #A80036; stroke-width: 1.0;"/><path d="M308.091,329.575 C364.598,332.356 453.407,342.96 520,380 C531.601,386.4525 541.486,398.145 547.762,406.8621 " fill="none" style="stroke: #A80036; stroke-width: 1.0;"/><polygon fill="none" points="307.513,336.559,287.777,328.845,308.015,322.568,307.513,336.559" style="stroke: #A80036; stroke-width: 1.0;"/><path d="M307.944,331.193 C404.809,335.82 601.442,348.8368 662,380 C673.803,386.074 683.657,397.8256 689.87,406.66 " fill="none" style="stroke: #A80036; stroke-width: 1.0;"/><polygon fill="none" points="307.445,338.178,287.781,330.283,308.076,324.192,307.445,338.178" style="stroke: #A80036; stroke-width: 1.0;"/></g></svg>