<?xml version="1.0" encoding="UTF-8" standalone="yes"?><svg xmlns="http://www.w3.org/2000/svg" xmlns:xlink="http://www.w3.org/1999/xlink" height="596pt" style="width:938px;height:596px;" version="1.1" viewBox="0 0 938 596" width="938pt"><defs><filter height="300%" id="f1" width="300%" x="-1" y="-1"><feGaussianBlur result="blurOut" stdDeviation="2.0"/><feColorMatrix in="blurOut" result="blurOut2" type="matrix" values="0 0 0 0 0 0 0 0 0 0 0 0 0 0 0 0 0 0 .4 0"/><feOffset dx="4.0" dy="4.0" in="blurOut2" result="blurOut3"/><feBlend in="SourceGraphic" in2="blurOut3" mode="normal"/></filter></defs><g><polygon fill="#FFFFFF" filter="url(#f1)" points="14,16,51,16,58,38.4883,931,38.4883,931,589,14,589,14,16" style="stroke: #000000; stroke-width: 2.0;"/><line style="stroke: #000000; stroke-width: 2.0;" x1="14" x2="58" y1="38.4883" y2="38.4883"/><text fill="#000000" font-family="sans-serif" font-size="14" font-weight="bold" lengthAdjust="spacingAndGlyphs" textLength="31" x="17" y="32.5352">SMV</text><rect fill="#FEFECE" filter="url(#f1)" height="83.9531" style="stroke: #A80036; stroke-width: 1.5;" width="162" x="748" y="47.5"/><text fill="#000000" font-family="sans-serif" font-size="12" lengthAdjust="spacingAndGlyphs" textLength="80" x="789" y="64.1016">CDSSubGroup</text><line style="stroke: #A80036; stroke-width: 1.5;" x1="749" x2="909" y1="71.6328" y2="71.6328"/><text fill="#000000" font-family="sans-serif" font-size="11" lengthAdjust="spacingAndGlyphs" textLength="150" x="754" y="86.2676">currentSchema: SmvSchema</text><text fill="#000000" font-family="sans-serif" font-size="11" lengthAdjust="spacingAndGlyphs" textLength="140" x="754" y="99.2227">crossSchema: SmvSchema</text><text fill="#000000" font-family="sans-serif" font-size="11" lengthAdjust="spacingAndGlyphs" textLength="90" x="754" y="112.1777">currentRow: Row</text><text fill="#000000" font-family="sans-serif" font-size="11" lengthAdjust="spacingAndGlyphs" textLength="134" x="754" y="125.1328">crossRows: Iterable[Row]</text><rect fill="#FEFECE" filter="url(#f1)" height="72.1758" style="stroke: #A80036; stroke-width: 1.5;" width="237" x="249.5" y="425"/><text fill="#000000" font-family="sans-serif" font-size="12" font-style="italic" lengthAdjust="spacingAndGlyphs" textLength="88" x="324" y="441.6016">&lt;&lt;Abstract&gt;&gt;</text><text fill="#000000" font-family="sans-serif" font-size="12" lengthAdjust="spacingAndGlyphs" textLength="46" x="345" y="455.7344">SmvCDS</text><line style="stroke: #A80036; stroke-width: 1.5;" x1="250.5" x2="485.5" y1="463.2656" y2="463.2656"/><text fill="#000000" font-family="sans-serif" font-size="11" lengthAdjust="spacingAndGlyphs" textLength="105" x="255.5" y="477.9004">from(that): SmvCDS</text><text fill="#000000" font-family="sans-serif" font-size="11" lengthAdjust="spacingAndGlyphs" textLength="225" x="255.5" y="490.8555">filter(input: CDSSubGroup): CDSSubGroup</text><rect fill="#FEFECE" filter="url(#f1)" height="24.1328" style="stroke: #A80036; stroke-width: 1.5;" width="88" x="214" y="557"/><text fill="#000000" font-family="sans-serif" font-size="12" lengthAdjust="spacingAndGlyphs" textLength="82" x="217" y="573.6016">CombinedCDS</text><rect fill="#FEFECE" filter="url(#f1)" height="24.1328" style="stroke: #A80036; stroke-width: 1.5;" width="62" x="337" y="557"/><text fill="#000000" font-family="sans-serif" font-size="12" lengthAdjust="spacingAndGlyphs" textLength="56" x="340" y="573.6016">NoOpCDS</text><rect fill="#FEFECE" filter="url(#f1)" height="70.998" style="stroke: #A80036; stroke-width: 1.5;" width="210" x="22" y="294"/><text fill="#000000" font-family="sans-serif" font-size="12" lengthAdjust="spacingAndGlyphs" textLength="111" x="71.5" y="310.6016">SmvCDSAggColumn</text><line style="stroke: #A80036; stroke-width: 1.5;" x1="23" x2="231" y1="318.1328" y2="318.1328"/><text fill="#000000" font-family="sans-serif" font-size="11" lengthAdjust="spacingAndGlyphs" textLength="198" x="28" y="332.7676">from(otherCds): SmvCDSAggColumn</text><text fill="#000000" font-family="sans-serif" font-size="11" lengthAdjust="spacingAndGlyphs" textLength="163" x="28" y="345.7227">as(name): SmvCDSAggColumn</text><text fill="#000000" font-family="sans-serif" font-size="11" lengthAdjust="spacingAndGlyphs" textLength="87" x="28" y="358.6777">isAgg(): Boolean</text><rect fill="#FEFECE" filter="url(#f1)" height="24.1328" style="stroke: #A80036; stroke-width: 1.5;" width="69" x="118.5" y="449"/><text fill="#000000" font-family="sans-serif" font-size="12" lengthAdjust="spacingAndGlyphs" textLength="63" x="121.5" y="465.6016">Expression</text><rect fill="#FEFECE" filter="url(#f1)" height="24.1328" style="stroke: #A80036; stroke-width: 1.5;" width="125" x="434.5" y="557"/><text fill="#000000" font-family="sans-serif" font-size="12" lengthAdjust="spacingAndGlyphs" textLength="119" x="437.5" y="573.6016">SmvSelfCompareCDS</text><rect fill="#FEFECE" filter="url(#f1)" height="24.1328" style="stroke: #A80036; stroke-width: 1.5;" width="111" x="594.5" y="557"/><text fill="#000000" font-family="sans-serif" font-size="12" lengthAdjust="spacingAndGlyphs" textLength="105" x="597.5" y="573.6016">SmvTopNRecsCDS</text><rect fill="#FEFECE" filter="url(#f1)" height="58.043" style="stroke: #A80036; stroke-width: 1.5;" width="202" x="267" y="300.5"/><text fill="#000000" font-family="sans-serif" font-size="12" lengthAdjust="spacingAndGlyphs" textLength="107" x="314.5" y="317.1016">SmvSingleCDSAggs</text><line style="stroke: #A80036; stroke-width: 1.5;" x1="268" x2="468" y1="324.6328" y2="324.6328"/><text fill="#000000" font-family="sans-serif" font-size="11" lengthAdjust="spacingAndGlyphs" textLength="133" x="273" y="339.2676">resolvedExprs(schema2)</text><text fill="#000000" font-family="sans-serif" font-size="11" lengthAdjust="spacingAndGlyphs" textLength="190" x="273" y="352.2227">createExecuter(schema1, schema2)</text><rect fill="#FEFECE" filter="url(#f1)" height="93.1309" style="stroke: #A80036; stroke-width: 1.5;" width="148" x="517" y="43"/><text fill="#000000" font-family="sans-serif" font-size="12" font-style="italic" lengthAdjust="spacingAndGlyphs" textLength="88" x="547" y="59.6016">&lt;&lt;Abstract&gt;&gt;</text><text fill="#000000" font-family="sans-serif" font-size="12" lengthAdjust="spacingAndGlyphs" textLength="50" x="566" y="73.7344">SmvGDO</text><line style="stroke: #A80036; stroke-width: 1.5;" x1="518" x2="664" y1="81.2656" y2="81.2656"/><text fill="#000000" font-family="sans-serif" font-size="11" lengthAdjust="spacingAndGlyphs" textLength="69" x="523" y="95.9004">inGroupKeys</text><line style="stroke: #A80036; stroke-width: 1.5;" x1="518" x2="664" y1="102.2207" y2="102.2207"/><text fill="#000000" font-family="sans-serif" font-size="11" lengthAdjust="spacingAndGlyphs" textLength="136" x="523" y="116.8555">createInGroupMapping(*)</text><text fill="#000000" font-family="sans-serif" font-size="11" lengthAdjust="spacingAndGlyphs" textLength="107" x="523" y="129.8105">createOutSchema(*)</text><rect fill="#FEFECE" filter="url(#f1)" height="38.2656" style="stroke: #A80036; stroke-width: 1.5;" width="90" x="522" y="196"/><text fill="#000000" font-family="sans-serif" font-size="12" font-style="italic" lengthAdjust="spacingAndGlyphs" textLength="88" x="523" y="212.6016">&lt;&lt;Abstract&gt;&gt;</text><text fill="#000000" font-family="sans-serif" font-size="12" lengthAdjust="spacingAndGlyphs" textLength="72" x="531" y="226.7344">SmvAggGDO</text><rect fill="#FEFECE" filter="url(#f1)" height="24.1328" style="stroke: #A80036; stroke-width: 1.5;" width="101" x="504.5" y="317.5"/><text fill="#000000" font-family="sans-serif" font-size="12" lengthAdjust="spacingAndGlyphs" textLength="95" x="507.5" y="334.1016">SmvOneAggGDO</text><rect fill="#FEFECE" filter="url(#f1)" height="24.1328" style="stroke: #A80036; stroke-width: 1.5;" width="100" x="641" y="317.5"/><text fill="#000000" font-family="sans-serif" font-size="12" lengthAdjust="spacingAndGlyphs" textLength="94" x="644" y="334.1016">SmvRunAggGDO</text><rect fill="#FEFECE" filter="url(#f1)" height="24.1328" style="stroke: #A80036; stroke-width: 1.5;" width="109" x="776.5" y="317.5"/><text fill="#000000" font-family="sans-serif" font-size="12" lengthAdjust="spacingAndGlyphs" textLength="103" x="779.5" y="334.1016">SmvPanelAggGDO</text><rect fill="#FEFECE" filter="url(#f1)" height="24.1328" style="stroke: #A80036; stroke-width: 1.5;" width="93" x="744.5" y="203"/><text fill="#000000" font-family="sans-serif" font-size="12" lengthAdjust="spacingAndGlyphs" textLength="87" x="747.5" y="219.6016">SmvCDSAsGDO</text><path d="M304.642,510.8021 C286.55,527.9553 269.636,545.6987 261.421,556.7847 " fill="none" style="stroke: #A80036; stroke-width: 1.0;"/><polygon fill="none" points="300.157,505.4161,319.604,497.0021,309.648,515.7073,300.157,505.4161" style="stroke: #A80036; stroke-width: 1.0;"/><path d="M288.823,548.6233 C306.566,534.2228 328.053,514.1811 344.46,497.0021 " fill="none" style="stroke: #A80036; stroke-width: 1.0;"/><polygon fill="none" points="278.339,556.7847,285.5306,556.2554,287.8081,549.4134,280.6164,549.9427,278.339,556.7847" style="stroke: #A80036; stroke-width: 1.0;"/><text fill="#000000" font-family="sans-serif" font-size="13" lengthAdjust="spacingAndGlyphs" textLength="8" x="331.2102" y="517.8759">2</text><path d="M368,517.216 C368,532.2661 368,547.0776 368,556.7847 " fill="none" style="stroke: #A80036; stroke-width: 1.0;"/><polygon fill="none" points="361,517.0022,368,497.0021,375,517.0021,361,517.0022" style="stroke: #A80036; stroke-width: 1.0;"/><path d="M136.567,378.152 C141.709,403.762 147.622,433.215 150.764,448.864 " fill="none" style="stroke: #A80036; stroke-width: 1.0;"/><polygon fill="#A80036" points="133.968,365.204,131.2271,371.8739,136.3298,376.9693,139.0706,370.2994,133.968,365.204" style="stroke: #A80036; stroke-width: 1.0;"/><text fill="#000000" font-family="sans-serif" font-size="13" lengthAdjust="spacingAndGlyphs" textLength="8" x="140.1917" y="438.3692">1</text><path d="M202.831,371.247 C234.878,388.468 271.835,408.326 302.655,424.887 " fill="none" style="stroke: #A80036; stroke-width: 1.0;"/><polygon fill="#A80036" points="191.267,365.034,194.6592,371.3974,201.8378,370.7137,198.4456,364.3502,191.267,365.034" style="stroke: #A80036; stroke-width: 1.0;"/><text fill="#000000" font-family="sans-serif" font-size="13" lengthAdjust="spacingAndGlyphs" textLength="8" x="281.4361" y="414.1545">1</text><path d="M426.146,509.7788 C447.404,527.2465 469.591,545.4781 483.351,556.7847 " fill="none" style="stroke: #A80036; stroke-width: 1.0;"/><polygon fill="none" points="421.605,515.1079,410.597,497.0021,430.493,504.2912,421.605,515.1079" style="stroke: #A80036; stroke-width: 1.0;"/><path d="M479.964,504.0859 C530.918,523.2389 587.161,544.3796 620.49,556.9075 " fill="none" style="stroke: #A80036; stroke-width: 1.0;"/><polygon fill="none" points="477.377,510.5916,461.119,497.0021,482.303,497.4868,477.377,510.5916" style="stroke: #A80036; stroke-width: 1.0;"/><path d="M232.438,329.5 C239.519,329.5 246.6,329.5 253.681,329.5 " fill="none" style="stroke: #A80036; stroke-width: 1.0;"/><polygon fill="none" points="266.858,329.5,260.858,325.5,254.858,329.5,260.858,333.5,266.858,329.5" style="stroke: #A80036; stroke-width: 1.0;"/><text fill="#000000" font-family="sans-serif" font-size="13" lengthAdjust="spacingAndGlyphs" textLength="6" x="240.0625" y="326.552">*</text><path d="M309.955,365.462 C263.706,393.319 201.84,430.582 171.441,448.892 " fill="none" style="stroke: #A80036; stroke-width: 1.0;"/><polygon fill="#A80036" points="321.348,358.6,314.1445,358.2692,311.0686,364.7914,318.2721,365.1222,321.348,358.6" style="stroke: #A80036; stroke-width: 1.0;"/><text fill="#000000" font-family="sans-serif" font-size="13" lengthAdjust="spacingAndGlyphs" textLength="6" x="171.8104" y="438.4087">*</text><path d="M368,371.851 C368,388.812 368,408.246 368,424.544 " fill="none" style="stroke: #A80036; stroke-width: 1.0;"/><polygon fill="#A80036" points="368,358.6,364,364.6,368,370.6,372,364.6,368,358.6" style="stroke: #A80036; stroke-width: 1.0;"/><text fill="#000000" font-family="sans-serif" font-size="13" lengthAdjust="spacingAndGlyphs" textLength="8" x="359.2875" y="414.2947">1</text><path d="M578.312,155.79 C575.439,170.573 572.619,185.085 570.513,195.921 " fill="none" style="stroke: #A80036; stroke-width: 1.0;"/><polygon fill="none" points="571.445,154.433,582.131,136.136,585.188,157.104,571.445,154.433" style="stroke: #A80036; stroke-width: 1.0;"/><path d="M508.795,229.728 C445.103,244.888 340.059,270.297 250,294 C244.209,295.524 238.271,297.111 232.283,298.729 " fill="none" style="stroke: #A80036; stroke-width: 1.0;"/><polygon fill="none" points="521.738,226.652,514.976,224.147,510.0629,229.4254,516.8249,231.9304,521.738,226.652" style="stroke: #A80036; stroke-width: 1.0;"/><text fill="#000000" font-family="sans-serif" font-size="13" lengthAdjust="spacingAndGlyphs" textLength="6" x="239.8966" y="293.6174">*</text><path d="M523.652,240.506 C492.464,258.137 450.332,281.956 417.767,300.365 " fill="none" style="stroke: #A80036; stroke-width: 1.0;"/><polygon fill="#A80036" points="535.027,234.075,527.8353,233.546,524.581,239.981,531.7727,240.51,535.027,234.075" style="stroke: #A80036; stroke-width: 1.0;"/><text fill="#000000" font-family="sans-serif" font-size="13" lengthAdjust="spacingAndGlyphs" textLength="6" x="421.9973" y="289.9487">*</text><path d="M562.92,254.246 C560.558,276.392 557.752,302.7 556.194,317.307 " fill="none" style="stroke: #A80036; stroke-width: 1.0;"/><polygon fill="none" points="555.99,253.22,565.072,234.075,569.911,254.705,555.99,253.22" style="stroke: #A80036; stroke-width: 1.0;"/><path d="M602.061,247.809 C627.7,271.071 660.97,301.255 678.662,317.307 " fill="none" style="stroke: #A80036; stroke-width: 1.0;"/><polygon fill="none" points="597.032,252.698,586.923,234.075,606.439,242.329,597.032,252.698" style="stroke: #A80036; stroke-width: 1.0;"/><path d="M631.156,240.93 C668.663,255.786 716.786,275.332 759,294 C775.86,301.456 794.635,310.477 808.785,317.424 " fill="none" style="stroke: #A80036; stroke-width: 1.0;"/><polygon fill="none" points="628.37,247.356,612.327,233.512,633.501,234.33,628.37,247.356" style="stroke: #A80036; stroke-width: 1.0;"/><path d="M682.069,146.735 C716.326,167.889 751.992,189.913 772.814,202.77 " fill="none" style="stroke: #A80036; stroke-width: 1.0;"/><polygon fill="none" points="678.244,152.6,664.904,136.136,685.599,140.688,678.244,152.6" style="stroke: #A80036; stroke-width: 1.0;"/><path d="M832.289,232.701 C857.699,245.399 888.155,265.571 903,294 C917.606,321.972 923.269,340.815 903,365 C850.965,427.089 627.944,448.627 486.787,456.079 " fill="none" style="stroke: #A80036; stroke-width: 1.0;"/><polygon fill="#A80036" points="820.311,227.064,824.0363,233.2383,831.1685,232.1743,827.4432,226,820.311,227.064" style="stroke: #A80036; stroke-width: 1.0;"/><text fill="#000000" font-family="sans-serif" font-size="13" lengthAdjust="spacingAndGlyphs" textLength="8" x="494.653" y="452.856">1</text></g></svg>