<?xml version="1.0" encoding="UTF-8" standalone="yes"?><svg xmlns="http://www.w3.org/2000/svg" xmlns:xlink="http://www.w3.org/1999/xlink" height="1094pt" style="width:613px;height:1094px;" version="1.1" viewBox="0 0 613 1094" width="613pt"><defs><filter height="300%" id="f1" width="300%" x="-1" y="-1"><feGaussianBlur result="blurOut" stdDeviation="2.0"/><feColorMatrix in="blurOut" result="blurOut2" type="matrix" values="0 0 0 0 0 0 0 0 0 0 0 0 0 0 0 0 0 0 .4 0"/><feOffset dx="4.0" dy="4.0" in="blurOut2" result="blurOut3"/><feBlend in="SourceGraphic" in2="blurOut3" mode="normal"/></filter></defs><g><polygon fill="#FFFFFF" filter="url(#f1)" points="14,16,51,16,58,38.4883,606,38.4883,606,1087,14,1087,14,16" style="stroke: #000000; stroke-width: 2.0;"/><line style="stroke: #000000; stroke-width: 2.0;" x1="14" x2="58" y1="38.4883" y2="38.4883"/><text fill="#000000" font-family="sans-serif" font-size="14" font-weight="bold" lengthAdjust="spacingAndGlyphs" textLength="31" x="17" y="32.5352">SMV</text><rect fill="#FEFECE" filter="url(#f1)" height="59.2207" style="stroke: #A80036; stroke-width: 1.5;" width="117" x="304.5" y="411"/><text fill="#000000" font-family="sans-serif" font-size="12" font-style="italic" lengthAdjust="spacingAndGlyphs" textLength="88" x="319" y="427.6016">&lt;&lt;Abstract&gt;&gt;</text><text fill="#000000" font-family="sans-serif" font-size="12" lengthAdjust="spacingAndGlyphs" textLength="46" x="340" y="441.7344">SmvCDS</text><line style="stroke: #A80036; stroke-width: 1.5;" x1="305.5" x2="420.5" y1="449.2656" y2="449.2656"/><text fill="#000000" font-family="sans-serif" font-size="11" lengthAdjust="spacingAndGlyphs" textLength="105" x="310.5" y="463.9004">from(that): SmvCDS</text><rect fill="#FEFECE" filter="url(#f1)" height="59.2207" style="stroke: #A80036; stroke-width: 1.5;" width="315" x="196.5" y="530"/><text fill="#000000" font-family="sans-serif" font-size="12" font-style="italic" lengthAdjust="spacingAndGlyphs" textLength="88" x="310" y="546.6016">&lt;&lt;Abstract&gt;&gt;</text><text fill="#000000" font-family="sans-serif" font-size="12" lengthAdjust="spacingAndGlyphs" textLength="95" x="306.5" y="560.7344">FullCompareCDS</text><line style="stroke: #A80036; stroke-width: 1.5;" x1="197.5" x2="510.5" y1="568.2656" y2="568.2656"/><text fill="#000000" font-family="sans-serif" font-size="11" lengthAdjust="spacingAndGlyphs" textLength="303" x="202.5" y="582.9004">mapping(schema1, schema2): (Row, Iterable) =&gt; Iterable</text><rect fill="#FEFECE" filter="url(#f1)" height="59.2207" style="stroke: #A80036; stroke-width: 1.5;" width="254" x="37" y="733"/><text fill="#000000" font-family="sans-serif" font-size="12" font-style="italic" lengthAdjust="spacingAndGlyphs" textLength="88" x="120" y="749.6016">&lt;&lt;Abstract&gt;&gt;</text><text fill="#000000" font-family="sans-serif" font-size="12" lengthAdjust="spacingAndGlyphs" textLength="96" x="116" y="763.7344">SelfCompareCDS</text><line style="stroke: #A80036; stroke-width: 1.5;" x1="38" x2="290" y1="771.2656" y2="771.2656"/><text fill="#000000" font-family="sans-serif" font-size="11" lengthAdjust="spacingAndGlyphs" textLength="242" x="43" y="785.9004">mapping(schema): (Row, Iterable) =&gt; Iterable</text><rect fill="#FEFECE" filter="url(#f1)" height="59.2207" style="stroke: #A80036; stroke-width: 1.5;" width="218" x="242" y="936"/><text fill="#000000" font-family="sans-serif" font-size="12" font-style="italic" lengthAdjust="spacingAndGlyphs" textLength="88" x="307" y="952.6016">&lt;&lt;Abstract&gt;&gt;</text><text fill="#000000" font-family="sans-serif" font-size="12" lengthAdjust="spacingAndGlyphs" textLength="51" x="325.5" y="966.7344">FilterCDS</text><line style="stroke: #A80036; stroke-width: 1.5;" x1="243" x2="459" y1="974.2656" y2="974.2656"/><text fill="#000000" font-family="sans-serif" font-size="11" lengthAdjust="spacingAndGlyphs" textLength="206" x="248" y="988.9004">mapping(schema): Iterable =&gt; Iterable</text><rect fill="#FEFECE" filter="url(#f1)" height="24.1328" style="stroke: #A80036; stroke-width: 1.5;" width="166" x="81" y="649"/><text fill="#000000" font-family="sans-serif" font-size="12" lengthAdjust="spacingAndGlyphs" textLength="160" x="84" y="665.6016">SelfCompareToFullCompare</text><rect fill="#FEFECE" filter="url(#f1)" height="24.1328" style="stroke: #A80036; stroke-width: 1.5;" width="122" x="222" y="852"/><text fill="#000000" font-family="sans-serif" font-size="12" lengthAdjust="spacingAndGlyphs" textLength="116" x="225" y="868.6016">FilterToSelfCompare</text><rect fill="#FEFECE" filter="url(#f1)" height="24.1328" style="stroke: #A80036; stroke-width: 1.5;" width="107" x="453.5" y="649"/><text fill="#000000" font-family="sans-serif" font-size="12" lengthAdjust="spacingAndGlyphs" textLength="101" x="456.5" y="665.6016">CombinedFullCDS</text><rect fill="#FEFECE" filter="url(#f1)" height="24.1328" style="stroke: #A80036; stroke-width: 1.5;" width="108" x="379" y="852"/><text fill="#000000" font-family="sans-serif" font-size="12" lengthAdjust="spacingAndGlyphs" textLength="102" x="382" y="868.6016">CombinedSelfCDS</text><rect fill="#FEFECE" filter="url(#f1)" height="24.1328" style="stroke: #A80036; stroke-width: 1.5;" width="116" x="169" y="1055"/><text fill="#000000" font-family="sans-serif" font-size="12" lengthAdjust="spacingAndGlyphs" textLength="110" x="172" y="1071.6016">CombinedFilterCDS</text><rect fill="#FEFECE" filter="url(#f1)" height="24.1328" style="stroke: #A80036; stroke-width: 1.5;" width="62" x="320" y="1055"/><text fill="#000000" font-family="sans-serif" font-size="12" lengthAdjust="spacingAndGlyphs" textLength="56" x="323" y="1071.6016">NoOpCDS</text><rect fill="#FEFECE" filter="url(#f1)" height="70.998" style="stroke: #A80036; stroke-width: 1.5;" width="210" x="22" y="280"/><text fill="#000000" font-family="sans-serif" font-size="12" lengthAdjust="spacingAndGlyphs" textLength="111" x="71.5" y="296.6016">SmvCDSAggColumn</text><line style="stroke: #A80036; stroke-width: 1.5;" x1="23" x2="231" y1="304.1328" y2="304.1328"/><text fill="#000000" font-family="sans-serif" font-size="11" lengthAdjust="spacingAndGlyphs" textLength="198" x="28" y="318.7676">from(otherCds): SmvCDSAggColumn</text><text fill="#000000" font-family="sans-serif" font-size="11" lengthAdjust="spacingAndGlyphs" textLength="163" x="28" y="331.7227">as(name): SmvCDSAggColumn</text><text fill="#000000" font-family="sans-serif" font-size="11" lengthAdjust="spacingAndGlyphs" textLength="87" x="28" y="344.6777">isAgg(): Boolean</text><rect fill="#FEFECE" filter="url(#f1)" height="24.1328" style="stroke: #A80036; stroke-width: 1.5;" width="69" x="144.5" y="428.5"/><text fill="#000000" font-family="sans-serif" font-size="12" lengthAdjust="spacingAndGlyphs" textLength="63" x="147.5" y="445.1016">Expression</text><rect fill="#FEFECE" filter="url(#f1)" height="24.1328" style="stroke: #A80036; stroke-width: 1.5;" width="136" x="282" y="649"/><text fill="#000000" font-family="sans-serif" font-size="12" lengthAdjust="spacingAndGlyphs" textLength="130" x="285" y="665.6016">SmvPanelCompareCDS</text><rect fill="#FEFECE" filter="url(#f1)" height="24.1328" style="stroke: #A80036; stroke-width: 1.5;" width="125" x="61.5" y="852"/><text fill="#000000" font-family="sans-serif" font-size="12" lengthAdjust="spacingAndGlyphs" textLength="119" x="64.5" y="868.6016">SmvSelfCompareCDS</text><rect fill="#FEFECE" filter="url(#f1)" height="24.1328" style="stroke: #A80036; stroke-width: 1.5;" width="111" x="417.5" y="1055"/><text fill="#000000" font-family="sans-serif" font-size="12" lengthAdjust="spacingAndGlyphs" textLength="105" x="420.5" y="1071.6016">SmvTopNRecsCDS</text><rect fill="#FEFECE" filter="url(#f1)" height="58.043" style="stroke: #A80036; stroke-width: 1.5;" width="202" x="267" y="286.5"/><text fill="#000000" font-family="sans-serif" font-size="12" lengthAdjust="spacingAndGlyphs" textLength="107" x="314.5" y="303.1016">SmvSingleCDSAggs</text><line style="stroke: #A80036; stroke-width: 1.5;" x1="268" x2="468" y1="310.6328" y2="310.6328"/><text fill="#000000" font-family="sans-serif" font-size="11" lengthAdjust="spacingAndGlyphs" textLength="150" x="273" y="325.2676">createOutSchema(schema2)</text><text fill="#000000" font-family="sans-serif" font-size="11" lengthAdjust="spacingAndGlyphs" textLength="190" x="273" y="338.2227">createExecuter(schema1, schema2)</text><rect fill="#FEFECE" filter="url(#f1)" height="93.1309" style="stroke: #A80036; stroke-width: 1.5;" width="148" x="281" y="43"/><text fill="#000000" font-family="sans-serif" font-size="12" font-style="italic" lengthAdjust="spacingAndGlyphs" textLength="88" x="311" y="59.6016">&lt;&lt;Abstract&gt;&gt;</text><text fill="#000000" font-family="sans-serif" font-size="12" lengthAdjust="spacingAndGlyphs" textLength="50" x="330" y="73.7344">SmvGDO</text><line style="stroke: #A80036; stroke-width: 1.5;" x1="282" x2="428" y1="81.2656" y2="81.2656"/><text fill="#000000" font-family="sans-serif" font-size="11" lengthAdjust="spacingAndGlyphs" textLength="69" x="287" y="95.9004">inGroupKeys</text><line style="stroke: #A80036; stroke-width: 1.5;" x1="282" x2="428" y1="102.2207" y2="102.2207"/><text fill="#000000" font-family="sans-serif" font-size="11" lengthAdjust="spacingAndGlyphs" textLength="136" x="287" y="116.8555">createInGroupMapping(*)</text><text fill="#000000" font-family="sans-serif" font-size="11" lengthAdjust="spacingAndGlyphs" textLength="107" x="287" y="129.8105">createOutSchema(*)</text><rect fill="#FEFECE" filter="url(#f1)" height="24.1328" style="stroke: #A80036; stroke-width: 1.5;" width="101" x="76.5" y="196"/><text fill="#000000" font-family="sans-serif" font-size="12" lengthAdjust="spacingAndGlyphs" textLength="95" x="79.5" y="212.6016">SmvCDSAggGDO</text><rect fill="#FEFECE" filter="url(#f1)" height="24.1328" style="stroke: #A80036; stroke-width: 1.5;" width="123" x="212.5" y="196"/><text fill="#000000" font-family="sans-serif" font-size="12" lengthAdjust="spacingAndGlyphs" textLength="117" x="215.5" y="212.6016">SmvCDSRunAggGDO</text><rect fill="#FEFECE" filter="url(#f1)" height="24.1328" style="stroke: #A80036; stroke-width: 1.5;" width="132" x="371" y="196"/><text fill="#000000" font-family="sans-serif" font-size="12" lengthAdjust="spacingAndGlyphs" textLength="126" x="374" y="212.6016">SmvCDSPanelAggGDO</text><rect fill="#FEFECE" filter="url(#f1)" height="24.1328" style="stroke: #A80036; stroke-width: 1.5;" width="93" x="504.5" y="303.5"/><text fill="#000000" font-family="sans-serif" font-size="12" lengthAdjust="spacingAndGlyphs" textLength="87" x="507.5" y="320.1016">SmvCDSAsGDO</text><path d="M359.25,490.25 C358.215,503.699 357.126,517.856 356.21,529.769 " fill="none" style="stroke: #A80036; stroke-width: 1.0;"/><polygon fill="none" points="352.285,489.526,360.798,470.121,366.244,490.599,352.285,489.526" style="stroke: #A80036; stroke-width: 1.0;"/><path d="M285.574,467.007 C210.15,496.844 101.4123,554.564 63,649 C49.4019,682.431 79.5483,712.404 110.371,732.99 " fill="none" style="stroke: #A80036; stroke-width: 1.0;"/><polygon fill="none" points="283.263,460.397,304.445,459.843,288.231,473.485,283.263,460.397" style="stroke: #A80036; stroke-width: 1.0;"/><path d="M439.977,470.737 C470.431,485.121 504.046,504.849 529,530 C574.925,576.288 597,594.795 597,660 C597,660 597,660 597,763.5 C597,849.675 505.358,905.534 433.941,935.981 " fill="none" style="stroke: #A80036; stroke-width: 1.0;"/><polygon fill="none" points="436.919,477.038,421.529,462.471,442.643,464.262,436.919,477.038" style="stroke: #A80036; stroke-width: 1.0;"/><path d="M281.479,598.478 C246.99,616.54 208.308,636.797 185.068,648.967 " fill="none" style="stroke: #A80036; stroke-width: 1.0;"/><polygon fill="none" points="278.589,592.09,299.554,589.013,285.084,604.492,278.589,592.09" style="stroke: #A80036; stroke-width: 1.0;"/><path d="M213.632,804.999 C234.108,822.12 256.188,840.582 269.805,851.967 " fill="none" style="stroke: #A80036; stroke-width: 1.0;"/><polygon fill="none" points="208.954,810.212,198.101,792.013,217.934,799.472,208.954,810.212" style="stroke: #A80036; stroke-width: 1.0;"/><path d="M164,686.442 C164,700.4 164,717.981 164,732.618 " fill="none" style="stroke: #A80036; stroke-width: 1.0;"/><polygon fill="none" points="164,673.028,160,679.028,164,685.028,168,679.028,164,673.028" style="stroke: #A80036; stroke-width: 1.0;"/><text fill="#000000" font-family="sans-serif" font-size="13" lengthAdjust="spacingAndGlyphs" textLength="8" x="155.175" y="722.4856">1</text><path d="M297.909,886.815 C307.701,901.144 320.62,920.047 331.262,935.618 " fill="none" style="stroke: #A80036; stroke-width: 1.0;"/><polygon fill="none" points="290.537,876.028,290.6203,883.2386,297.3083,885.935,297.225,878.7244,290.537,876.028" style="stroke: #A80036; stroke-width: 1.0;"/><text fill="#000000" font-family="sans-serif" font-size="13" lengthAdjust="spacingAndGlyphs" textLength="8" x="318.366" y="925.4856">1</text><path d="M414.71,599.981 C441.884,617.654 471.838,637.133 490.035,648.967 " fill="none" style="stroke: #A80036; stroke-width: 1.0;"/><polygon fill="none" points="410.794,605.785,397.844,589.013,418.426,594.048,410.794,605.785" style="stroke: #A80036; stroke-width: 1.0;"/><path d="M259.965,798.996 C310.41,817.655 368.753,839.236 403.172,851.967 " fill="none" style="stroke: #A80036; stroke-width: 1.0;"/><polygon fill="none" points="257.414,805.516,241.085,792.013,262.271,792.386,257.414,805.516" style="stroke: #A80036; stroke-width: 1.0;"/><path d="M299.598,1007.7458 C278.173,1024.9376 255.008,1043.5259 240.75,1054.9671 " fill="none" style="stroke: #A80036; stroke-width: 1.0;"/><polygon fill="none" points="295.487,1002.07,315.467,995.0127,304.249,1012.9893,295.487,1002.07" style="stroke: #A80036; stroke-width: 1.0;"/><path d="M351,1015.1377 C351,1030.0781 351,1045.1523 351,1054.9671 " fill="none" style="stroke: #A80036; stroke-width: 1.0;"/><polygon fill="none" points="344,1015.0127,351,995.0127,358,1015.0127,344,1015.0127" style="stroke: #A80036; stroke-width: 1.0;"/><path d="M146.709,363.118 C156.73,386.822 168.077,413.664 174.298,428.377 " fill="none" style="stroke: #A80036; stroke-width: 1.0;"/><polygon fill="#A80036" points="141.623,351.09,140.275,358.174,146.2955,362.1429,147.6436,355.059,141.623,351.09" style="stroke: #A80036; stroke-width: 1.0;"/><text fill="#000000" font-family="sans-serif" font-size="13" lengthAdjust="spacingAndGlyphs" textLength="8" x="162.7084" y="417.8875">1</text><path d="M205.091,357.2 C238.879,374.81 277.615,394.999 308.266,410.973 " fill="none" style="stroke: #A80036; stroke-width: 1.0;"/><polygon fill="#A80036" points="193.367,351.09,196.839,357.4102,204.0084,356.6362,200.5364,350.316,193.367,351.09" style="stroke: #A80036; stroke-width: 1.0;"/><text fill="#000000" font-family="sans-serif" font-size="13" lengthAdjust="spacingAndGlyphs" textLength="8" x="288.1521" y="400.9138">1</text><path d="M352.045,609.138 C351.444,624.078 350.838,639.152 350.444,648.967 " fill="none" style="stroke: #A80036; stroke-width: 1.0;"/><polygon fill="none" points="345.056,608.715,352.854,589.013,359.045,609.278,345.056,608.715" style="stroke: #A80036; stroke-width: 1.0;"/><path d="M145.065,810.602 C138.859,826.038 132.516,841.816 128.435,851.967 " fill="none" style="stroke: #A80036; stroke-width: 1.0;"/><polygon fill="none" points="138.583,807.958,152.538,792.013,151.572,813.18,138.583,807.958" style="stroke: #A80036; stroke-width: 1.0;"/><path d="M401.573,1007.7458 C422.652,1024.9376 445.444,1043.5259 459.472,1054.9671 " fill="none" style="stroke: #A80036; stroke-width: 1.0;"/><polygon fill="none" points="397.035,1013.0779,385.96,995.0127,405.883,1002.2286,397.035,1013.0779" style="stroke: #A80036; stroke-width: 1.0;"/><path d="M232.438,315.5 C239.519,315.5 246.6,315.5 253.681,315.5 " fill="none" style="stroke: #A80036; stroke-width: 1.0;"/><polygon fill="none" points="266.858,315.5,260.858,311.5,254.858,315.5,260.858,319.5,266.858,315.5" style="stroke: #A80036; stroke-width: 1.0;"/><text fill="#000000" font-family="sans-serif" font-size="13" lengthAdjust="spacingAndGlyphs" textLength="6" x="240.0625" y="312.552">*</text><path d="M313.504,351.965 C273.755,377.834 222.425,411.239 196.154,428.336 " fill="none" style="stroke: #A80036; stroke-width: 1.0;"/><polygon fill="#A80036" points="324.64,344.719,317.4293,344.6394,314.5826,351.2648,321.7932,351.3444,324.64,344.719" style="stroke: #A80036; stroke-width: 1.0;"/><text fill="#000000" font-family="sans-serif" font-size="13" lengthAdjust="spacingAndGlyphs" textLength="6" x="195.9925" y="417.8296">*</text><path d="M366.322,357.788 C365.611,375.263 364.801,395.187 364.159,410.987 " fill="none" style="stroke: #A80036; stroke-width: 1.0;"/><polygon fill="#A80036" points="366.853,344.719,362.6123,350.5514,366.3651,356.7091,370.6057,350.8767,366.853,344.719" style="stroke: #A80036; stroke-width: 1.0;"/><text fill="#000000" font-family="sans-serif" font-size="13" lengthAdjust="spacingAndGlyphs" textLength="8" x="355.5375" y="400.4686">1</text><path d="M262.984,137.517 C220.972,158.983 174.82,182.565 148.534,195.997 " fill="none" style="stroke: #A80036; stroke-width: 1.0;"/><polygon fill="none" points="259.98,131.191,280.975,128.324,266.35,143.658,259.98,131.191" style="stroke: #A80036; stroke-width: 1.0;"/><path d="M127,233.55 C127,247.347 127,264.789 127,279.946 " fill="none" style="stroke: #A80036; stroke-width: 1.0;"/><polygon fill="#A80036" points="127,220.29,123,226.29,127,232.29,131,226.29,127,220.29" style="stroke: #A80036; stroke-width: 1.0;"/><text fill="#000000" font-family="sans-serif" font-size="13" lengthAdjust="spacingAndGlyphs" textLength="6" x="120.4281" y="269.337">*</text><path d="M164.579,225.451 C201.76,241.727 259.39,266.955 303.831,286.409 " fill="none" style="stroke: #A80036; stroke-width: 1.0;"/><polygon fill="#A80036" points="152.336,220.091,156.2284,226.1613,163.3289,224.903,159.4365,218.8327,152.336,220.091" style="stroke: #A80036; stroke-width: 1.0;"/><text fill="#000000" font-family="sans-serif" font-size="13" lengthAdjust="spacingAndGlyphs" textLength="6" x="282.2982" y="275.5466">*</text><path d="M311.739,152.721 C300.22,169.289 289,185.426 281.83,195.739 " fill="none" style="stroke: #A80036; stroke-width: 1.0;"/><polygon fill="none" points="306.055,148.634,323.219,136.21,317.549,156.627,306.055,148.634" style="stroke: #A80036; stroke-width: 1.0;"/><path d="M247.766,227.828 C227.698,242.231 199.464,262.494 175.342,279.806 " fill="none" style="stroke: #A80036; stroke-width: 1.0;"/><polygon fill="#A80036" points="258.546,220.091,251.3392,220.3398,248.797,227.0879,256.0038,226.8391,258.546,220.091" style="stroke: #A80036; stroke-width: 1.0;"/><text fill="#000000" font-family="sans-serif" font-size="13" lengthAdjust="spacingAndGlyphs" textLength="6" x="177.9853" y="269.1703">*</text><path d="M293.006,230.331 C307.366,246.448 327.21,268.72 342.879,286.306 " fill="none" style="stroke: #A80036; stroke-width: 1.0;"/><polygon fill="#A80036" points="284.06,220.29,285.0647,227.4308,292.0426,229.2498,291.0379,222.109,284.06,220.29" style="stroke: #A80036; stroke-width: 1.0;"/><text fill="#000000" font-family="sans-serif" font-size="13" lengthAdjust="spacingAndGlyphs" textLength="6" x="330.7275" y="275.8768">*</text><path d="M398.795,152.721 C410.456,169.289 421.815,185.426 429.073,195.739 " fill="none" style="stroke: #A80036; stroke-width: 1.0;"/><polygon fill="none" points="392.961,156.594,387.173,136.21,404.409,148.535,392.961,156.594" style="stroke: #A80036; stroke-width: 1.0;"/><path d="M391.951,224.331 C349.319,238.84 283.812,261.133 228.602,279.923 " fill="none" style="stroke: #A80036; stroke-width: 1.0;"/><polygon fill="#A80036" points="404.41,220.091,397.4412,218.2374,393.0499,223.9573,400.0187,225.8108,404.41,220.091" style="stroke: #A80036; stroke-width: 1.0;"/><text fill="#000000" font-family="sans-serif" font-size="13" lengthAdjust="spacingAndGlyphs" textLength="6" x="240.1655" y="269.8461">*</text><path d="M422.436,231.268 C411.949,247.303 397.72,269.058 386.44,286.306 " fill="none" style="stroke: #A80036; stroke-width: 1.0;"/><polygon fill="#A80036" points="429.616,220.29,422.9843,223.122,423.0478,230.3328,429.6795,227.5008,429.616,220.29" style="stroke: #A80036; stroke-width: 1.0;"/><text fill="#000000" font-family="sans-serif" font-size="13" lengthAdjust="spacingAndGlyphs" textLength="6" x="383.8175" y="275.8768">*</text><path d="M446.653,131.909 C474.108,148.324 501.946,169.663 521,196 C545.257,229.528 549.966,280.734 550.833,303.233 " fill="none" style="stroke: #A80036; stroke-width: 1.0;"/><polygon fill="none" points="443.208,138.002,429.229,122.077,450.088,125.809,443.208,138.002" style="stroke: #A80036; stroke-width: 1.0;"/><path d="M522.828,334.932 C492.124,355.02 442.604,387.419 406.815,410.834 " fill="none" style="stroke: #A80036; stroke-width: 1.0;"/><polygon fill="#A80036" points="533.985,327.632,526.7742,327.5696,523.9432,334.2017,531.154,334.2641,533.985,327.632" style="stroke: #A80036; stroke-width: 1.0;"/><text fill="#000000" font-family="sans-serif" font-size="13" lengthAdjust="spacingAndGlyphs" textLength="8" x="407.5245" y="400.2821">1</text></g></svg>