<?xml version="1.0" encoding="UTF-8" standalone="yes"?><svg xmlns="http://www.w3.org/2000/svg" xmlns:xlink="http://www.w3.org/1999/xlink" height="688pt" style="width:895px;height:688px;" version="1.1" viewBox="0 0 895 688" width="895pt"><defs><filter height="300%" id="f1" width="300%" x="-1" y="-1"><feGaussianBlur result="blurOut" stdDeviation="2.0"/><feColorMatrix in="blurOut" result="blurOut2" type="matrix" values="0 0 0 0 0 0 0 0 0 0 0 0 0 0 0 0 0 0 .4 0"/><feOffset dx="4.0" dy="4.0" in="blurOut2" result="blurOut3"/><feBlend in="SourceGraphic" in2="blurOut3" mode="normal"/></filter></defs><g><polygon fill="#FFFFFF" filter="url(#f1)" points="14,16,51,16,58,38.4883,888,38.4883,888,681,14,681,14,16" style="stroke: #000000; stroke-width: 2.0;"/><line style="stroke: #000000; stroke-width: 2.0;" x1="14" x2="58" y1="38.4883" y2="38.4883"/><text fill="#000000" font-family="sans-serif" font-size="14" font-weight="bold" lengthAdjust="spacingAndGlyphs" textLength="31" x="17" y="32.5352">SMV</text><rect fill="#FEFECE" filter="url(#f1)" height="59.2207" style="stroke: #A80036; stroke-width: 1.5;" width="117" x="220.5" y="411"/><text fill="#000000" font-family="sans-serif" font-size="12" font-style="italic" lengthAdjust="spacingAndGlyphs" textLength="88" x="235" y="427.6016">&lt;&lt;Abstract&gt;&gt;</text><text fill="#000000" font-family="sans-serif" font-size="12" lengthAdjust="spacingAndGlyphs" textLength="46" x="256" y="441.7344">SmvCDS</text><line style="stroke: #A80036; stroke-width: 1.5;" x1="221.5" x2="336.5" y1="449.2656" y2="449.2656"/><text fill="#000000" font-family="sans-serif" font-size="11" lengthAdjust="spacingAndGlyphs" textLength="105" x="226.5" y="463.9004">from(that): SmvCDS</text><rect fill="#FEFECE" filter="url(#f1)" height="59.2207" style="stroke: #A80036; stroke-width: 1.5;" width="315" x="22.5" y="530"/><text fill="#000000" font-family="sans-serif" font-size="12" font-style="italic" lengthAdjust="spacingAndGlyphs" textLength="88" x="136" y="546.6016">&lt;&lt;Abstract&gt;&gt;</text><text fill="#000000" font-family="sans-serif" font-size="12" lengthAdjust="spacingAndGlyphs" textLength="95" x="132.5" y="560.7344">FullCompareCDS</text><line style="stroke: #A80036; stroke-width: 1.5;" x1="23.5" x2="336.5" y1="568.2656" y2="568.2656"/><text fill="#000000" font-family="sans-serif" font-size="11" lengthAdjust="spacingAndGlyphs" textLength="303" x="28.5" y="582.9004">mapping(schema1, schema2): (Row, Iterable) =&gt; Iterable</text><rect fill="#FEFECE" filter="url(#f1)" height="59.2207" style="stroke: #A80036; stroke-width: 1.5;" width="254" x="373" y="530"/><text fill="#000000" font-family="sans-serif" font-size="12" font-style="italic" lengthAdjust="spacingAndGlyphs" textLength="88" x="456" y="546.6016">&lt;&lt;Abstract&gt;&gt;</text><text fill="#000000" font-family="sans-serif" font-size="12" lengthAdjust="spacingAndGlyphs" textLength="96" x="452" y="560.7344">SelfCompareCDS</text><line style="stroke: #A80036; stroke-width: 1.5;" x1="374" x2="626" y1="568.2656" y2="568.2656"/><text fill="#000000" font-family="sans-serif" font-size="11" lengthAdjust="spacingAndGlyphs" textLength="242" x="379" y="582.9004">mapping(schema): (Row, Iterable) =&gt; Iterable</text><rect fill="#FEFECE" filter="url(#f1)" height="59.2207" style="stroke: #A80036; stroke-width: 1.5;" width="218" x="662" y="530"/><text fill="#000000" font-family="sans-serif" font-size="12" font-style="italic" lengthAdjust="spacingAndGlyphs" textLength="88" x="727" y="546.6016">&lt;&lt;Abstract&gt;&gt;</text><text fill="#000000" font-family="sans-serif" font-size="12" lengthAdjust="spacingAndGlyphs" textLength="51" x="745.5" y="560.7344">FilterCDS</text><line style="stroke: #A80036; stroke-width: 1.5;" x1="663" x2="879" y1="568.2656" y2="568.2656"/><text fill="#000000" font-family="sans-serif" font-size="11" lengthAdjust="spacingAndGlyphs" textLength="206" x="668" y="582.9004">mapping(schema): Iterable =&gt; Iterable</text><rect fill="#FEFECE" filter="url(#f1)" height="24.1328" style="stroke: #A80036; stroke-width: 1.5;" width="107" x="126.5" y="649"/><text fill="#000000" font-family="sans-serif" font-size="12" lengthAdjust="spacingAndGlyphs" textLength="101" x="129.5" y="665.6016">CombinedFullCDS</text><rect fill="#FEFECE" filter="url(#f1)" height="24.1328" style="stroke: #A80036; stroke-width: 1.5;" width="108" x="386" y="649"/><text fill="#000000" font-family="sans-serif" font-size="12" lengthAdjust="spacingAndGlyphs" textLength="102" x="389" y="665.6016">CombinedSelfCDS</text><rect fill="#FEFECE" filter="url(#f1)" height="24.1328" style="stroke: #A80036; stroke-width: 1.5;" width="116" x="764" y="649"/><text fill="#000000" font-family="sans-serif" font-size="12" lengthAdjust="spacingAndGlyphs" textLength="110" x="767" y="665.6016">CombinedFilterCDS</text><rect fill="#FEFECE" filter="url(#f1)" height="24.1328" style="stroke: #A80036; stroke-width: 1.5;" width="62" x="598" y="649"/><text fill="#000000" font-family="sans-serif" font-size="12" lengthAdjust="spacingAndGlyphs" textLength="56" x="601" y="665.6016">NoOpCDS</text><rect fill="#FEFECE" filter="url(#f1)" height="70.998" style="stroke: #A80036; stroke-width: 1.5;" width="210" x="61" y="280"/><text fill="#000000" font-family="sans-serif" font-size="12" lengthAdjust="spacingAndGlyphs" textLength="111" x="110.5" y="296.6016">SmvCDSAggColumn</text><line style="stroke: #A80036; stroke-width: 1.5;" x1="62" x2="270" y1="304.1328" y2="304.1328"/><text fill="#000000" font-family="sans-serif" font-size="11" lengthAdjust="spacingAndGlyphs" textLength="198" x="67" y="318.7676">from(otherCds): SmvCDSAggColumn</text><text fill="#000000" font-family="sans-serif" font-size="11" lengthAdjust="spacingAndGlyphs" textLength="163" x="67" y="331.7227">as(name): SmvCDSAggColumn</text><text fill="#000000" font-family="sans-serif" font-size="11" lengthAdjust="spacingAndGlyphs" textLength="87" x="67" y="344.6777">isAgg(): Boolean</text><rect fill="#FEFECE" filter="url(#f1)" height="24.1328" style="stroke: #A80036; stroke-width: 1.5;" width="69" x="372.5" y="428.5"/><text fill="#000000" font-family="sans-serif" font-size="12" lengthAdjust="spacingAndGlyphs" textLength="63" x="375.5" y="445.1016">Expression</text><rect fill="#FEFECE" filter="url(#f1)" height="24.1328" style="stroke: #A80036; stroke-width: 1.5;" width="34" x="269" y="649"/><text fill="#000000" font-family="sans-serif" font-size="12" lengthAdjust="spacingAndGlyphs" textLength="28" x="272" y="665.6016">cds1</text><rect fill="#FEFECE" filter="url(#f1)" height="24.1328" style="stroke: #A80036; stroke-width: 1.5;" width="34" x="529" y="649"/><text fill="#000000" font-family="sans-serif" font-size="12" lengthAdjust="spacingAndGlyphs" textLength="28" x="532" y="665.6016">cds2</text><rect fill="#FEFECE" filter="url(#f1)" height="24.1328" style="stroke: #A80036; stroke-width: 1.5;" width="34" x="695" y="649"/><text fill="#000000" font-family="sans-serif" font-size="12" lengthAdjust="spacingAndGlyphs" textLength="28" x="698" y="665.6016">cds3</text><rect fill="#FEFECE" filter="url(#f1)" height="58.043" style="stroke: #A80036; stroke-width: 1.5;" width="202" x="306" y="286.5"/><text fill="#000000" font-family="sans-serif" font-size="12" lengthAdjust="spacingAndGlyphs" textLength="107" x="353.5" y="303.1016">SmvSingleCDSAggs</text><line style="stroke: #A80036; stroke-width: 1.5;" x1="307" x2="507" y1="310.6328" y2="310.6328"/><text fill="#000000" font-family="sans-serif" font-size="11" lengthAdjust="spacingAndGlyphs" textLength="150" x="312" y="325.2676">createOutSchema(schema2)</text><text fill="#000000" font-family="sans-serif" font-size="11" lengthAdjust="spacingAndGlyphs" textLength="190" x="312" y="338.2227">createExecuter(schema1, schema2)</text><rect fill="#FEFECE" filter="url(#f1)" height="93.1309" style="stroke: #A80036; stroke-width: 1.5;" width="148" x="419" y="43"/><text fill="#000000" font-family="sans-serif" font-size="12" font-style="italic" lengthAdjust="spacingAndGlyphs" textLength="88" x="449" y="59.6016">&lt;&lt;Abstract&gt;&gt;</text><text fill="#000000" font-family="sans-serif" font-size="12" lengthAdjust="spacingAndGlyphs" textLength="50" x="468" y="73.7344">SmvGDO</text><line style="stroke: #A80036; stroke-width: 1.5;" x1="420" x2="566" y1="81.2656" y2="81.2656"/><text fill="#000000" font-family="sans-serif" font-size="11" lengthAdjust="spacingAndGlyphs" textLength="69" x="425" y="95.9004">inGroupKeys</text><line style="stroke: #A80036; stroke-width: 1.5;" x1="420" x2="566" y1="102.2207" y2="102.2207"/><text fill="#000000" font-family="sans-serif" font-size="11" lengthAdjust="spacingAndGlyphs" textLength="136" x="425" y="116.8555">createInGroupMapping(*)</text><text fill="#000000" font-family="sans-serif" font-size="11" lengthAdjust="spacingAndGlyphs" textLength="107" x="425" y="129.8105">createOutSchema(*)</text><rect fill="#FEFECE" filter="url(#f1)" height="24.1328" style="stroke: #A80036; stroke-width: 1.5;" width="101" x="442.5" y="196"/><text fill="#000000" font-family="sans-serif" font-size="12" lengthAdjust="spacingAndGlyphs" textLength="95" x="445.5" y="212.6016">SmvCDSAggGDO</text><rect fill="#FEFECE" filter="url(#f1)" height="24.1328" style="stroke: #A80036; stroke-width: 1.5;" width="123" x="116.5" y="196"/><text fill="#000000" font-family="sans-serif" font-size="12" lengthAdjust="spacingAndGlyphs" textLength="117" x="119.5" y="212.6016">SmvCDSRunAggGDO</text><rect fill="#FEFECE" filter="url(#f1)" height="24.1328" style="stroke: #A80036; stroke-width: 1.5;" width="132" x="275" y="196"/><text fill="#000000" font-family="sans-serif" font-size="12" lengthAdjust="spacingAndGlyphs" textLength="126" x="278" y="212.6016">SmvCDSPanelAggGDO</text><rect fill="#FEFECE" filter="url(#f1)" height="24.1328" style="stroke: #A80036; stroke-width: 1.5;" width="143" x="543.5" y="303.5"/><text fill="#000000" font-family="sans-serif" font-size="12" lengthAdjust="spacingAndGlyphs" textLength="137" x="546.5" y="320.1016">SelfCompareCDSAsGDO</text><rect fill="#FEFECE" filter="url(#f1)" height="24.1328" style="stroke: #A80036; stroke-width: 1.5;" width="98" x="722" y="303.5"/><text fill="#000000" font-family="sans-serif" font-size="12" lengthAdjust="spacingAndGlyphs" textLength="92" x="725" y="320.1016">FilterCDSAsGDO</text><path d="M241.785,485.481 C229.249,500.297 215.591,516.438 204.311,529.769 " fill="none" style="stroke: #A80036; stroke-width: 1.0;"/><polygon fill="none" points="236.519,480.868,254.782,470.121,247.207,489.911,236.519,480.868" style="stroke: #A80036; stroke-width: 1.0;"/><path d="M351.133,479.688 C382.049,496.055 417.54,514.845 446.113,529.972 " fill="none" style="stroke: #A80036; stroke-width: 1.0;"/><polygon fill="none" points="347.463,485.666,333.063,470.121,354.014,473.293,347.463,485.666" style="stroke: #A80036; stroke-width: 1.0;"/><path d="M357.086,470.107 C484.476,506.151 521.784,503.602 644,530 C649.853,531.264 655.855,532.572 661.913,533.901 " fill="none" style="stroke: #A80036; stroke-width: 1.0;"/><polygon fill="none" points="354.898,476.762,337.616,464.501,358.772,463.308,354.898,476.762" style="stroke: #A80036; stroke-width: 1.0;"/><path d="M167.253,609.1377 C167.177,624.0781 168.634,639.1523 171.626,648.9671 " fill="none" style="stroke: #A80036; stroke-width: 1.0;"/><polygon fill="none" points="160.271,608.6042,168.344,589.0127,174.251,609.3625,160.271,608.6042" style="stroke: #A80036; stroke-width: 1.0;"/><path d="M191.757,635.9074 C193.866,621.7771 194.061,603.8447 192.341,589.0127 " fill="none" style="stroke: #A80036; stroke-width: 1.0;"/><polygon fill="#A80036" points="188.867,648.9671,194.0692,643.9734,191.4604,637.2507,186.2582,642.2444,188.867,648.9671" style="stroke: #A80036; stroke-width: 1.0;"/><text fill="#000000" font-family="sans-serif" font-size="13" lengthAdjust="spacingAndGlyphs" textLength="8" x="186.1656" y="609.6874">2</text><path d="M459.971,605.8126 C449.998,621.8095 441.423,638.4232 438.279,648.9671 " fill="none" style="stroke: #A80036; stroke-width: 1.0;"/><polygon fill="none" points="454.243,601.7849,471.151,589.0127,465.898,609.541,454.243,601.7849" style="stroke: #A80036; stroke-width: 1.0;"/><path d="M463.944,638.9663 C475.273,624.4366 487.391,604.9376 495.148,589.0127 " fill="none" style="stroke: #A80036; stroke-width: 1.0;"/><polygon fill="#A80036" points="455.52,648.9671,462.4447,646.9551,463.2508,639.7892,456.3261,641.8012,455.52,648.9671" style="stroke: #A80036; stroke-width: 1.0;"/><text fill="#000000" font-family="sans-serif" font-size="13" lengthAdjust="spacingAndGlyphs" textLength="8" x="485.2116" y="609.6874">2</text><path d="M782.281,607.3458 C790.028,622.8637 799.628,638.7597 807.971,648.9671 " fill="none" style="stroke: #A80036; stroke-width: 1.0;"/><polygon fill="none" points="775.852,610.1177,773.959,589.0127,788.6,604.3309,775.852,610.1177" style="stroke: #A80036; stroke-width: 1.0;"/><path d="M821.569,636.3524 C816.464,622.155 807.376,604.0009 797.956,589.0127 " fill="none" style="stroke: #A80036; stroke-width: 1.0;"/><polygon fill="#A80036" points="825.212,648.9671,827.3906,642.093,821.8832,637.4381,819.7046,644.3122,825.212,648.9671" style="stroke: #A80036; stroke-width: 1.0;"/><text fill="#000000" font-family="sans-serif" font-size="13" lengthAdjust="spacingAndGlyphs" textLength="8" x="794.9776" y="609.6874">2</text><path d="M713.578,600.7361 C688.646,618.2059 661.394,637.3015 644.745,648.9671 " fill="none" style="stroke: #A80036; stroke-width: 1.0;"/><polygon fill="none" points="709.912,594.757,730.308,589.0127,717.946,606.2225,709.912,594.757" style="stroke: #A80036; stroke-width: 1.0;"/><path d="M248.742,357.028 C281.918,373.497 320.413,392.883 355,411 C365.761,416.637 377.65,423.132 387.34,428.497 " fill="none" style="stroke: #A80036; stroke-width: 1.0;"/><polygon fill="#A80036" points="236.777,351.1,240.3775,357.3479,247.5296,356.4275,243.9291,350.1796,236.777,351.1" style="stroke: #A80036; stroke-width: 1.0;"/><text fill="#000000" font-family="sans-serif" font-size="13" lengthAdjust="spacingAndGlyphs" textLength="8" x="368.9888" y="417.5717">1</text><path d="M206.599,360.692 C221.982,377.436 239.078,396.045 252.793,410.973 " fill="none" style="stroke: #A80036; stroke-width: 1.0;"/><polygon fill="#A80036" points="197.778,351.09,198.8915,358.2146,205.8963,359.927,204.7828,352.8024,197.778,351.09" style="stroke: #A80036; stroke-width: 1.0;"/><text fill="#000000" font-family="sans-serif" font-size="13" lengthAdjust="spacingAndGlyphs" textLength="8" x="238.1852" y="400.4515">1</text><path d="M225.019,602.7586 C243.029,619.6638 262.297,637.7502 274.246,648.9671 " fill="none" style="stroke: #A80036; stroke-width: 1.0;"/><polygon fill="none" points="220.167,607.8045,210.375,589.0127,229.748,597.5969,220.167,607.8045" style="stroke: #A80036; stroke-width: 1.0;"/><path d="M521.657,607.3458 C528.831,622.8637 536.18,638.7597 540.899,648.9671 " fill="none" style="stroke: #A80036; stroke-width: 1.0;"/><polygon fill="none" points="515.221,610.104,513.182,589.0127,527.928,604.2291,515.221,610.104" style="stroke: #A80036; stroke-width: 1.0;"/><path d="M743.828,606.3233 C734.436,622.1623 724.728,638.5354 718.542,648.9671 " fill="none" style="stroke: #A80036; stroke-width: 1.0;"/><polygon fill="none" points="737.871,602.6454,754.093,589.0127,749.913,609.786,737.871,602.6454" style="stroke: #A80036; stroke-width: 1.0;"/><path d="M271.438,315.5 C278.519,315.5 285.6,315.5 292.681,315.5 " fill="none" style="stroke: #A80036; stroke-width: 1.0;"/><polygon fill="none" points="305.858,315.5,299.858,311.5,293.858,315.5,299.858,319.5,305.858,315.5" style="stroke: #A80036; stroke-width: 1.0;"/><text fill="#000000" font-family="sans-serif" font-size="13" lengthAdjust="spacingAndGlyphs" textLength="6" x="279.0625" y="312.552">*</text><path d="M407,357.899 C407,382.75 407,412.521 407,428.336 " fill="none" style="stroke: #A80036; stroke-width: 1.0;"/><polygon fill="#A80036" points="407,344.719,403,350.719,407,356.719,411,350.719,407,344.719" style="stroke: #A80036; stroke-width: 1.0;"/><text fill="#000000" font-family="sans-serif" font-size="13" lengthAdjust="spacingAndGlyphs" textLength="6" x="399.7625" y="417.8296">*</text><path d="M368.02,353.957 C348.936,372.296 326.329,394.02 308.672,410.987 " fill="none" style="stroke: #A80036; stroke-width: 1.0;"/><polygon fill="#A80036" points="377.634,344.719,370.5361,345.9917,368.981,353.0331,376.0789,351.7604,377.634,344.719" style="stroke: #A80036; stroke-width: 1.0;"/><text fill="#000000" font-family="sans-serif" font-size="13" lengthAdjust="spacingAndGlyphs" textLength="8" x="306.2878" y="400.4686">1</text><path d="M493,156.336 C493,171.611 493,186.178 493,195.739 " fill="none" style="stroke: #A80036; stroke-width: 1.0;"/><polygon fill="none" points="486,156.21,493,136.21,500,156.209,486,156.21" style="stroke: #A80036; stroke-width: 1.0;"/><path d="M446.203,224.098 C400.698,238.779 330.002,261.588 271.009,280.621 " fill="none" style="stroke: #A80036; stroke-width: 1.0;"/><polygon fill="#A80036" points="458.623,220.091,451.6847,218.1263,447.2025,223.7752,454.1408,225.7399,458.623,220.091" style="stroke: #A80036; stroke-width: 1.0;"/><text fill="#000000" font-family="sans-serif" font-size="13" lengthAdjust="spacingAndGlyphs" textLength="6" x="278.9409" y="275.0886">*</text><path d="M475.231,230.798 C462.125,246.876 444.18,268.889 429.983,286.306 " fill="none" style="stroke: #A80036; stroke-width: 1.0;"/><polygon fill="#A80036" points="483.796,220.29,476.9045,222.4129,476.2135,229.5908,483.105,227.4679,483.796,220.29" style="stroke: #A80036; stroke-width: 1.0;"/><text fill="#000000" font-family="sans-serif" font-size="13" lengthAdjust="spacingAndGlyphs" textLength="6" x="428.3543" y="275.8768">*</text><path d="M399.975,124.904 C334.629,149.072 251.385,179.859 207.753,195.996 " fill="none" style="stroke: #A80036; stroke-width: 1.0;"/><polygon fill="none" points="397.562,118.334,418.748,117.961,402.418,131.464,397.562,118.334" style="stroke: #A80036; stroke-width: 1.0;"/><path d="M175.208,233.55 C173.638,247.347 171.654,264.789 169.93,279.946 " fill="none" style="stroke: #A80036; stroke-width: 1.0;"/><polygon fill="#A80036" points="176.716,220.29,172.0638,225.7997,175.3603,232.2132,180.0125,226.7035,176.716,220.29" style="stroke: #A80036; stroke-width: 1.0;"/><text fill="#000000" font-family="sans-serif" font-size="13" lengthAdjust="spacingAndGlyphs" textLength="6" x="164.1073" y="269.337">*</text><path d="M214.172,225.664 C249.515,241.947 303.983,267.04 346.026,286.409 " fill="none" style="stroke: #A80036; stroke-width: 1.0;"/><polygon fill="#A80036" points="202.074,220.091,205.8502,226.2343,212.9733,225.1114,209.1971,218.9681,202.074,220.091" style="stroke: #A80036; stroke-width: 1.0;"/><text fill="#000000" font-family="sans-serif" font-size="13" lengthAdjust="spacingAndGlyphs" textLength="6" x="325.232" y="275.5466">*</text><path d="M417.476,148.385 C393.758,166.564 369.979,184.789 355.378,195.98 " fill="none" style="stroke: #A80036; stroke-width: 1.0;"/><polygon fill="none" points="413.23,142.82,433.362,136.21,421.746,153.932,413.23,142.82" style="stroke: #A80036; stroke-width: 1.0;"/><path d="M311.428,226.828 C287.451,241.282 252.938,262.089 223.55,279.806 " fill="none" style="stroke: #A80036; stroke-width: 1.0;"/><polygon fill="#A80036" points="322.603,220.091,315.3994,219.7631,312.326,226.2865,319.5297,226.6144,322.603,220.091" style="stroke: #A80036; stroke-width: 1.0;"/><text fill="#000000" font-family="sans-serif" font-size="13" lengthAdjust="spacingAndGlyphs" textLength="6" x="227.9486" y="269.1703">*</text><path d="M355.227,231.741 C365.228,247.729 378.678,269.228 389.362,286.306 " fill="none" style="stroke: #A80036; stroke-width: 1.0;"/><polygon fill="#A80036" points="348.063,220.29,347.8549,227.4981,354.4284,230.4626,354.6366,223.2545,348.063,220.29" style="stroke: #A80036; stroke-width: 1.0;"/><text fill="#000000" font-family="sans-serif" font-size="13" lengthAdjust="spacingAndGlyphs" textLength="6" x="378.8474" y="275.8768">*</text><path d="M535.451,153.093 C544.281,166.992 553.25,181.815 561,196 C581.921,234.291 601.99,282.199 610.6,303.459 " fill="none" style="stroke: #A80036; stroke-width: 1.0;"/><polygon fill="none" points="529.441,156.689,524.443,136.098,541.192,149.078,529.441,156.689" style="stroke: #A80036; stroke-width: 1.0;"/><path d="M565.274,148.735 C631.012,201.704 722.855,275.707 757.265,303.433 " fill="none" style="stroke: #A80036; stroke-width: 1.0;"/><polygon fill="none" points="560.774,154.099,549.593,136.1,569.558,143.198,560.774,154.099" style="stroke: #A80036; stroke-width: 1.0;"/><path d="M604.073,339.495 C582.966,383.911 536.642,481.392 513.589,529.905 " fill="none" style="stroke: #A80036; stroke-width: 1.0;"/><polygon fill="#A80036" points="609.76,327.527,603.572,331.2295,604.6097,338.3656,610.7977,334.663,609.76,327.527" style="stroke: #A80036; stroke-width: 1.0;"/><text fill="#000000" font-family="sans-serif" font-size="13" lengthAdjust="spacingAndGlyphs" textLength="8" x="507.6866" y="519.3687">1</text><path d="M771,340.655 C771,385.588 771,481.81 771,529.905 " fill="none" style="stroke: #A80036; stroke-width: 1.0;"/><polygon fill="#A80036" points="771,327.527,767,333.527,771,339.527,775,333.527,771,327.527" style="stroke: #A80036; stroke-width: 1.0;"/><text fill="#000000" font-family="sans-serif" font-size="13" lengthAdjust="spacingAndGlyphs" textLength="8" x="762.125" y="519.3687">1</text></g></svg>